<svg xmlns="http://www.w3.org/2000/svg" fill="none" viewBox="0 0 227 50" height="50" width="227">
<g clip-path="url(#clip0_2898_1156)">
<path fill="#C7C7C7" d="M53.2261 47.8233V41.1445H54.1454V47.8233H53.2261Z"></path>
<path fill="#C7C7C7" d="M61.1032 47.8231L57.4769 42.1308L57.4996 42.5901L57.5223 43.3838V47.8231H56.7051V41.1443H57.772L61.438 46.8706C61.3983 46.2526 61.3813 45.8047 61.3813 45.5213V41.1387H62.2098V47.8174H61.1032V47.8231Z"></path>
<path fill="#C7C7C7" d="M69.973 45.9806C69.973 46.5986 69.729 47.0748 69.241 47.415C68.7529 47.7551 68.0606 47.9196 67.1753 47.9196C65.5238 47.9196 64.5648 47.3526 64.3037 46.2244L65.1947 46.0486C65.2968 46.4511 65.5182 46.746 65.8473 46.9331C66.1821 47.1202 66.6361 47.2165 67.2093 47.2165C67.7825 47.2165 68.2592 47.1145 68.5827 46.9161C68.9061 46.7176 69.065 46.4228 69.065 46.0316C69.065 45.8162 69.014 45.6347 68.9118 45.4987C68.8097 45.3626 68.6678 45.2492 68.4862 45.1642C68.3046 45.0791 68.0833 44.9997 67.8336 44.943C67.5839 44.8863 67.3001 44.8183 66.9937 44.7503C66.4602 44.6312 66.0516 44.5178 65.7735 44.3988C65.4955 44.2797 65.2741 44.1493 65.1152 44.0076C64.9563 43.8658 64.8315 43.6957 64.7464 43.503C64.6612 43.3102 64.6215 43.0891 64.6215 42.8396C64.6215 42.267 64.8428 41.8248 65.2855 41.5186C65.7281 41.2125 66.3637 41.0537 67.1923 41.0537C67.9641 41.0537 68.5486 41.1728 68.9572 41.3996C69.3658 41.632 69.6496 42.0289 69.8141 42.5902L68.9118 42.7489C68.8097 42.3974 68.6224 42.1366 68.3443 41.9779C68.0662 41.8191 67.6803 41.7397 67.1866 41.7397C66.6418 41.7397 66.2332 41.8304 65.9438 42.0062C65.6544 42.182 65.5182 42.4484 65.5182 42.7999C65.5182 43.004 65.5749 43.1741 65.6827 43.3102C65.7962 43.4463 65.9551 43.5597 66.1594 43.6504C66.3637 43.7411 66.7837 43.8601 67.4079 43.9962C67.6179 44.0416 67.8222 44.0926 68.0322 44.138C68.2365 44.189 68.4351 44.2457 68.6281 44.3137C68.821 44.3818 68.9969 44.4611 69.1615 44.5518C69.3261 44.6426 69.468 44.7559 69.5928 44.8863C69.7177 45.0167 69.8085 45.1755 69.8766 45.3569C69.9447 45.5383 69.9787 45.7481 69.9787 45.9919L69.973 45.9806Z"></path>
<path fill="#C7C7C7" d="M72.1694 47.8233V41.1445H73.0888V47.8233H72.1694Z"></path>
<path fill="#C7C7C7" d="M75.3304 44.4499C75.3304 43.367 75.6255 42.5279 76.2157 41.9326C76.8059 41.3373 77.6344 41.0425 78.7013 41.0425C79.4504 41.0425 80.0633 41.1672 80.5287 41.4167C80.994 41.6661 81.3572 42.0687 81.6126 42.6186L80.7387 42.8738C80.5457 42.4939 80.279 42.2161 79.9442 42.046C79.6093 41.8759 79.1837 41.7852 78.6786 41.7852C77.8955 41.7852 77.2996 42.0176 76.8853 42.4826C76.4711 42.9475 76.2668 43.6051 76.2668 44.4556C76.2668 45.306 76.4881 45.9637 76.9251 46.4569C77.362 46.9445 77.9749 47.1883 78.7467 47.1883C79.1894 47.1883 79.6037 47.1203 79.9839 46.9899C80.3698 46.8595 80.6762 46.678 80.9146 46.4513V45.2493H78.8886V44.4896H81.7602V46.7914C81.4026 47.1543 80.96 47.4321 80.4379 47.6305C79.9158 47.829 79.354 47.9253 78.7411 47.9253C78.0317 47.9253 77.4188 47.7836 76.908 47.5058C76.3973 47.228 76 46.8254 75.7333 46.3038C75.4666 45.7822 75.3247 45.1643 75.3247 44.4556L75.3304 44.4499Z"></path>
<path fill="#C7C7C7" d="M88.7343 47.8233V44.7277H85.0683V47.8233H84.1489V41.1445H85.0683V43.968H88.7343V41.1445H89.6537V47.8233H88.7343Z"></path>
<path fill="#C7C7C7" d="M94.7614 41.8816V47.8233H93.8477V41.8816H91.521V41.1445H97.0938V41.8816H94.7671H94.7614Z"></path>
<path fill="#C7C7C7" d="M98.0474 44.9033V44.1436H100.454V44.9033H98.0474Z"></path>
<path fill="#C7C7C7" d="M108.376 44.4159C108.376 45.1076 108.24 45.7085 107.967 46.2245C107.695 46.7404 107.309 47.1373 106.81 47.4094C106.31 47.6816 105.731 47.8233 105.079 47.8233H102.542V41.1445H104.784C105.93 41.1445 106.821 41.428 107.445 41.995C108.069 42.5619 108.382 43.367 108.382 44.4159H108.376ZM107.451 44.4159C107.451 43.5881 107.218 42.9588 106.759 42.5222C106.299 42.0857 105.629 41.8702 104.761 41.8702H103.456V47.0976H104.965C105.465 47.0976 105.902 46.9899 106.276 46.7744C106.651 46.559 106.94 46.2472 107.144 45.8446C107.349 45.4421 107.445 44.9602 107.445 44.4102L107.451 44.4159Z"></path>
<path fill="#C7C7C7" d="M115.288 47.8233L113.528 45.0509H111.417V47.8233H110.498V41.1445H113.687C114.454 41.1445 115.038 41.3146 115.458 41.6491C115.872 41.9836 116.082 42.4542 116.082 43.0552C116.082 43.5541 115.935 43.968 115.64 44.3082C115.344 44.6483 114.942 44.8581 114.425 44.9488L116.349 47.829H115.288V47.8233ZM115.152 43.0608C115.152 42.6696 115.015 42.3748 114.749 42.1707C114.482 41.9666 114.096 41.8646 113.591 41.8646H111.412V44.3308H113.631C114.113 44.3308 114.488 44.2174 114.754 43.9963C115.021 43.7752 115.152 43.4634 115.152 43.0608Z"></path>
<path fill="#C7C7C7" d="M118.551 47.8233V41.1445H119.47V47.8233H118.551Z"></path>
<path fill="#C7C7C7" d="M124.981 47.8233H124.027L121.258 41.1445H122.223L124.101 45.8503L124.504 47.0296L124.907 45.8503L126.774 41.1445H127.739L124.969 47.8233H124.981Z"></path>
<path fill="#C7C7C7" d="M129.436 47.8233V41.1445H134.583V41.8816H130.355V44.0247H134.293V44.7561H130.355V47.0862H134.776V47.8233H129.436Z"></path>
<path fill="#C7C7C7" d="M141.245 47.8231L137.619 42.1308L137.642 42.5901L137.664 43.3838V47.8231H136.847V41.1443H137.914L141.58 46.8706C141.54 46.2526 141.523 45.8047 141.523 45.5213V41.1387H142.352V47.8174H141.245V47.8231Z"></path>
<path fill="#C7C7C7" d="M148.379 47.8233V41.1445H149.298V47.0862H152.726V47.8233H148.379Z"></path>
<path fill="#C7C7C7" d="M161.085 44.4497C161.085 45.1471 160.949 45.7594 160.676 46.2867C160.404 46.8139 160.018 47.2165 159.507 47.4943C158.997 47.7721 158.401 47.9138 157.714 47.9138C157.027 47.9138 156.415 47.7721 155.909 47.4943C155.404 47.2165 155.018 46.8139 154.752 46.2867C154.485 45.7594 154.354 45.1471 154.354 44.444C154.354 43.3782 154.65 42.5391 155.245 41.9381C155.841 41.3371 156.664 41.0366 157.725 41.0366C158.418 41.0366 159.014 41.1727 159.519 41.4392C160.024 41.7113 160.415 42.1025 160.682 42.6184C160.949 43.1344 161.085 43.741 161.085 44.444V44.4497ZM160.149 44.4497C160.149 43.6163 159.939 42.9643 159.519 42.4937C159.099 42.0175 158.503 41.785 157.731 41.785C156.959 41.785 156.352 42.0175 155.932 42.488C155.512 42.9586 155.297 43.6106 155.297 44.4554C155.297 45.3001 155.512 45.9578 155.938 46.4511C156.363 46.9443 156.959 47.1881 157.72 47.1881C158.48 47.1881 159.104 46.95 159.524 46.4737C159.944 45.9975 160.154 45.3228 160.154 44.4554L160.149 44.4497Z"></path>
<path fill="#C7C7C7" d="M166.204 41.785C165.455 41.785 164.87 42.0231 164.45 42.4994C164.031 42.9756 163.826 43.6276 163.826 44.4554C163.826 45.2831 164.042 45.9351 164.479 46.4284C164.916 46.9273 165.5 47.1768 166.244 47.1768C167.191 47.1768 167.907 46.7119 168.383 45.7877L169.132 46.1563C168.854 46.7289 168.463 47.1711 167.958 47.4716C167.453 47.7721 166.868 47.9195 166.198 47.9195C165.529 47.9195 164.921 47.7777 164.428 47.4999C163.928 47.2221 163.548 46.8196 163.287 46.298C163.026 45.7764 162.896 45.1641 162.896 44.4497C162.896 43.3838 163.185 42.5504 163.769 41.9438C164.354 41.3371 165.16 41.0366 166.193 41.0366C166.913 41.0366 167.515 41.1784 168.003 41.4562C168.491 41.734 168.843 42.1479 169.07 42.6921L168.202 42.9756C168.043 42.5844 167.793 42.2896 167.441 42.0855C167.089 41.8814 166.681 41.7793 166.204 41.7793V41.785Z"></path>
<path fill="#C7C7C7" d="M175.965 47.8233L175.188 45.8673H172.101L171.323 47.8233H170.37L173.139 41.1445H174.183L176.907 47.8233H175.971H175.965ZM173.644 41.8249L173.599 41.9553C173.519 42.2161 173.4 42.5563 173.241 42.9645L172.373 45.1586H174.91L174.041 42.9531C173.951 42.7377 173.86 42.4882 173.775 42.2161L173.644 41.8249Z"></path>
<path fill="#C7C7C7" d="M178.57 47.8233V41.1445H179.489V47.0862H182.917V47.8233H178.57Z"></path>
<path fill="#C7C7C7" d="M184.988 47.8233V41.1445H185.908V47.8233H184.988Z"></path>
<path fill="#C7C7C7" d="M193.779 45.9806C193.779 46.5986 193.535 47.0748 193.047 47.415C192.559 47.7551 191.866 47.9196 190.981 47.9196C189.329 47.9196 188.37 47.3526 188.109 46.2244L189 46.0486C189.103 46.4511 189.324 46.746 189.653 46.9331C189.988 47.1202 190.442 47.2165 191.015 47.2165C191.588 47.2165 192.065 47.1145 192.388 46.9161C192.712 46.7176 192.871 46.4228 192.871 46.0316C192.871 45.8162 192.82 45.6347 192.717 45.4987C192.615 45.3626 192.473 45.2492 192.292 45.1642C192.11 45.0791 191.889 44.9997 191.639 44.943C191.39 44.8863 191.106 44.8183 190.799 44.7503C190.266 44.6312 189.857 44.5178 189.579 44.3988C189.301 44.2797 189.08 44.1493 188.921 44.0076C188.762 43.8658 188.637 43.6957 188.552 43.503C188.467 43.3102 188.427 43.0891 188.427 42.8396C188.427 42.267 188.649 41.8248 189.091 41.5186C189.534 41.2125 190.169 41.0537 190.998 41.0537C191.77 41.0537 192.354 41.1728 192.763 41.3996C193.171 41.632 193.455 42.0289 193.62 42.5902L192.717 42.7489C192.615 42.3974 192.428 42.1366 192.15 41.9779C191.872 41.8191 191.486 41.7397 190.992 41.7397C190.447 41.7397 190.039 41.8304 189.749 42.0062C189.46 42.182 189.324 42.4484 189.324 42.7999C189.324 43.004 189.381 43.1741 189.488 43.3102C189.602 43.4463 189.761 43.5597 189.965 43.6504C190.169 43.7411 190.589 43.8601 191.214 43.9962C191.424 44.0416 191.628 44.0926 191.838 44.138C192.042 44.189 192.241 44.2457 192.434 44.3137C192.627 44.3818 192.803 44.4611 192.967 44.5518C193.132 44.6426 193.274 44.7559 193.398 44.8863C193.523 45.0167 193.614 45.1755 193.682 45.3569C193.75 45.5383 193.784 45.7481 193.784 45.9919L193.779 45.9806Z"></path>
<path fill="#C7C7C7" d="M200.685 47.8233L199.908 45.8673H196.821L196.043 47.8233H195.09L197.859 41.1445H198.903L201.627 47.8233H200.691H200.685ZM198.364 41.8249L198.319 41.9553C198.239 42.2161 198.12 42.5563 197.961 42.9645L197.093 45.1586H199.63L198.762 42.9531C198.671 42.7377 198.58 42.4882 198.495 42.2161L198.364 41.8249Z"></path>
<path fill="#C7C7C7" d="M205.214 41.8816V47.8233H204.3V41.8816H201.974V41.1445H207.546V41.8816H205.22H205.214Z"></path>
<path fill="#C7C7C7" d="M209.516 47.8233V41.1445H210.435V47.8233H209.516Z"></path>
<path fill="#C7C7C7" d="M219.379 44.4497C219.379 45.1471 219.242 45.7594 218.97 46.2867C218.698 46.8139 218.312 47.2165 217.801 47.4943C217.29 47.7721 216.694 47.9138 216.008 47.9138C215.321 47.9138 214.708 47.7721 214.203 47.4943C213.698 47.2165 213.312 46.8139 213.045 46.2867C212.778 45.7594 212.648 45.1471 212.648 44.444C212.648 43.3782 212.943 42.5391 213.539 41.9381C214.135 41.3371 214.958 41.0366 216.019 41.0366C216.711 41.0366 217.307 41.1727 217.812 41.4392C218.317 41.7113 218.709 42.1025 218.976 42.6184C219.242 43.1344 219.379 43.741 219.379 44.444V44.4497ZM218.442 44.4497C218.442 43.6163 218.232 42.9643 217.812 42.4937C217.392 42.0175 216.796 41.785 216.025 41.785C215.253 41.785 214.646 42.0175 214.226 42.488C213.806 42.9586 213.59 43.6106 213.59 44.4554C213.59 45.3001 213.806 45.9578 214.231 46.4511C214.657 46.9443 215.253 47.1881 216.013 47.1881C216.774 47.1881 217.398 46.95 217.818 46.4737C218.238 45.9975 218.448 45.3228 218.448 44.4554L218.442 44.4497Z"></path>
<path fill="#C7C7C7" d="M225.894 47.8231L222.267 42.1308L222.29 42.5901L222.313 43.3838V47.8231H221.496V41.1443H222.563L226.229 46.8706C226.189 46.2526 226.172 45.8047 226.172 45.5213V41.1387H227V47.8174H225.894V47.8231Z"></path>
<path fill="#C7C7C7" d="M23.4438 25.9216C24 25.3659 24.0567 24.6799 23.5743 24.198C21.8208 22.4291 20.0558 20.6715 18.2966 18.9083C16.2309 16.8446 14.1538 14.7922 12.0881 12.7284C10.0338 10.6761 7.9851 8.618 5.9421 6.55995C5.69807 6.31616 5.42567 6.16308 5.2384 6.17442C4.65387 6.19143 4.32472 6.37852 4.0353 6.66767C2.91732 7.79025 1.79367 8.90715 0.6757 10.0241C-0.215275 10.9142 -0.22095 11.4755 0.66435 12.3599C4.74467 16.4364 8.81932 20.5128 12.911 24.5779C13.2572 24.9237 13.2118 25.0881 12.894 25.4056C8.7796 29.4934 4.68225 33.5982 0.579225 37.6973C-0.169875 38.4456 -0.192575 39.0693 0.545175 39.8063C1.6972 40.9686 2.84922 42.1252 4.01827 43.2705C4.73332 43.9735 5.38595 43.9621 6.101 43.2478C10.3743 38.9786 14.6475 34.7151 18.9265 30.4459C20.436 28.9378 21.9456 27.4297 23.4552 25.9216H23.4438Z"></path>
<path fill="#C7C7C7" d="M35.5995 17.139C31.2694 16.9633 27.9155 20.6825 27.7169 24.5265C27.4672 29.3966 31.3943 32.8437 35.3327 32.9515C40.0146 33.0819 43.6296 29.3853 43.6239 24.9687C43.6239 20.6768 40.0884 16.9746 35.5995 17.1333V17.139Z"></path>
<path fill="#C7C7C7" d="M23.041 17.3207C25.8728 17.3207 27.9952 15.0699 27.9271 12.3088C27.8647 9.71782 25.8331 7.54071 23.0012 7.55772C20.1694 7.57472 18.1264 9.95028 18.2002 12.4336C18.1718 15.2627 20.4361 17.3264 23.0353 17.3207H23.041Z"></path>
<path fill="#C7C7C7" d="M23.0863 32.7362C20.4588 32.5037 18.1434 35.0097 18.1831 37.5667C18.2228 40.1804 20.3226 42.4368 23.0579 42.4312C25.9181 42.4198 27.859 40.118 27.9384 37.6687C28.0292 34.885 25.5322 32.5264 23.0863 32.7419V32.7362Z"></path>
<path fill="#C7C7C7" d="M13.7053 6.08915C15.3567 6.08915 16.8265 4.53568 16.6563 3.03324C16.6449 1.16228 15.4191 -0.00564903 13.4669 2.05486e-05C11.9233 2.05486e-05 10.5557 1.42875 10.5557 3.01624C10.5557 4.72845 11.9631 6.09482 13.7053 6.08915Z"></path>
<path fill="#C7C7C7" d="M13.677 43.8823C11.9802 43.8823 10.5671 45.2487 10.5557 46.9269C10.5444 48.52 11.9121 49.9034 13.433 49.9941C15.3511 50.1075 16.8153 48.469 16.6507 46.9666C16.8323 45.4358 15.3454 43.888 13.6713 43.888L13.677 43.8823Z"></path>
<path fill="#C7C7C7" d="M62.5104 4.47897C59.0202 4.47897 58.8954 5.43712 58.9351 7.95442V9.41717C58.9351 9.70632 59.1678 9.93877 59.4572 9.93877H63.0041C63.2935 9.93877 63.5262 10.1712 63.5262 10.4604V13.4766C63.5262 13.7657 63.2935 13.9982 63.0041 13.9982H59.4572C59.1678 13.9982 58.9351 14.2306 58.9351 14.5198V31.0012C58.9351 31.2904 58.7024 31.5228 58.413 31.5228H54.3384C54.0489 31.5228 53.8163 31.2904 53.8163 31.0012V14.5198C53.8163 14.2306 53.5836 13.9982 53.2942 13.9982H50.4113C50.1218 13.9982 49.8892 13.7657 49.8892 13.4766V10.4604C49.8892 10.1712 50.1218 9.93877 50.4113 9.93877H53.2942C53.5836 9.93877 53.8163 9.70632 53.8163 9.41717V8.22089C53.8163 2.7214 54.1795 0.00566958 59.9396 0C61.8237 0 62.953 0.164418 63.5035 0.277809C63.7475 0.328835 63.9234 0.53861 63.9234 0.788071V3.95736C63.9234 4.24651 63.6908 4.47897 63.4013 4.47897H62.5104Z"></path>
<path fill="#C7C7C7" d="M77.1178 14.14C77.1178 14.4405 76.8681 14.6786 76.5674 14.6616C76.0396 14.6276 75.1997 14.6106 74.3598 14.7466C71.3634 15.2399 70.0184 17.5928 70.0184 23.5118V30.355C70.0184 30.6441 69.7857 30.8766 69.4963 30.8766H65.2457C64.9563 30.8766 64.7236 30.6441 64.7236 30.355V10.296C64.7236 10.0069 64.9563 9.77441 65.2457 9.77441H69.4509C69.7403 9.77441 69.973 10.0069 69.973 10.296V12.1613C69.973 12.6602 70.6029 12.87 70.9094 12.4731C72.3111 10.6532 74.5811 10.0749 76.5617 9.98986C76.8568 9.97852 77.1065 10.2166 77.1065 10.5115V14.1343L77.1178 14.14Z"></path>
<path fill="#C7C7C7" d="M98.2062 22.7974H82.9916C82.6454 22.7974 82.3843 23.1319 82.4865 23.4608C83.264 25.9724 85.4148 27.3161 88.3317 27.3161C90.4201 27.3161 92.6845 26.6244 93.95 25.1446C94.1259 24.9349 94.438 24.9008 94.6594 25.0709L97.5763 26.7038C97.8033 26.8739 97.8487 27.197 97.6785 27.4351C95.6638 30.2359 92.7809 32.0672 88.0139 32.0672C81.726 32.0672 76.9307 27.5485 76.9307 20.9491C76.9307 14.3498 81.953 9.87646 88.0139 9.87646C94.0748 9.87646 98.7794 14.1683 98.7794 20.7677C98.7794 21.227 98.751 21.7429 98.717 22.3098C98.7 22.5877 98.473 22.8031 98.1949 22.8031L98.2062 22.7974ZM92.9682 19.1349C93.2974 19.1349 93.5527 18.8287 93.479 18.5112C92.9228 15.9996 90.7833 14.5255 88.0593 14.5255C85.3353 14.5255 83.281 15.7331 82.4751 18.4715C82.3787 18.8004 82.634 19.1349 82.9802 19.1349H92.9625H92.9682Z"></path>
<path fill="#C7C7C7" d="M121.854 22.7974H106.639C106.293 22.7974 106.032 23.1319 106.134 23.4608C106.911 25.9724 109.062 27.3161 111.979 27.3161C114.068 27.3161 116.332 26.6244 117.597 25.1446C117.773 24.9349 118.086 24.9008 118.307 25.0709L121.224 26.7038C121.451 26.8739 121.496 27.197 121.326 27.4351C119.311 30.2359 116.428 32.0672 111.661 32.0672C105.373 32.0672 100.578 27.5485 100.578 20.9491C100.578 14.3498 105.6 9.87646 111.661 9.87646C117.722 9.87646 122.427 14.1683 122.427 20.7677C122.427 21.227 122.399 21.7429 122.364 22.3098C122.347 22.5877 122.12 22.8031 121.842 22.8031L121.854 22.7974ZM116.616 19.1349C116.945 19.1349 117.2 18.8287 117.126 18.5112C116.57 15.9996 114.431 14.5255 111.707 14.5255C108.983 14.5255 106.928 15.7331 106.123 18.4715C106.026 18.8004 106.282 19.1349 106.628 19.1349H116.61H116.616Z"></path>
<path fill="#C7C7C7" d="M142.426 0.362793H146.631C146.92 0.362793 147.153 0.595246 147.153 0.884394V30.9955C147.153 31.2847 146.92 31.5171 146.631 31.5171H142.426C142.136 31.5171 141.904 31.2847 141.904 30.9955V30.1451C141.904 29.6858 141.353 29.4534 141.024 29.7709C139.435 31.2903 137.023 32.0614 134.889 32.0614C129.322 32.0614 124.481 27.6788 124.481 20.9434C124.481 14.2079 129.277 9.87067 134.844 9.87067C137.052 9.87067 139.441 10.6134 141.024 12.1158C141.359 12.4333 141.904 12.2009 141.904 11.7416V0.884394C141.904 0.595246 142.136 0.362793 142.426 0.362793ZM141.813 20.898C141.813 17.1901 138.737 14.7522 135.707 14.7522C132.449 14.7522 129.782 17.3715 129.782 20.898C129.782 24.4245 132.449 27.1799 135.707 27.1799C138.964 27.1799 141.813 24.6059 141.813 20.898Z"></path>
<path fill="#C7C7C7" d="M179.949 19.679V31.0011C179.949 31.2903 179.716 31.5227 179.427 31.5227H175.709C175.42 31.5227 175.187 31.2903 175.187 31.0011V19.9511C175.187 16.5607 173.57 14.7975 171.334 14.7975C168.559 14.7975 166.987 16.8782 166.987 21.0794V31.0011C166.987 31.2903 166.754 31.5227 166.465 31.5227H162.702C162.413 31.5227 162.18 31.2903 162.18 31.0011V19.9511C162.18 16.6061 160.563 14.7975 158.492 14.7975C156.256 14.7975 154.02 16.2432 154.02 20.2686V31.0011C154.02 31.2903 153.787 31.5227 153.498 31.5227H149.735C149.446 31.5227 149.213 31.2903 149.213 31.0011V10.9365C149.213 10.6473 149.446 10.4149 149.735 10.4149H153.498C153.787 10.4149 154.02 10.6473 154.02 10.9365V11.6962C154.02 12.1781 154.627 12.4162 154.939 12.0477C156.119 10.636 158.009 9.87628 159.78 9.87628C162.282 9.87628 164.354 11.1236 165.602 13.2667C165.801 13.6069 166.289 13.6069 166.493 13.2667C168.116 10.653 170.772 9.87061 172.537 9.87061C177.384 9.87061 179.949 13.5332 179.949 19.679Z"></path>
<path fill="#C7C7C7" d="M199.925 10.4151H204.13C204.42 10.4151 204.652 10.6475 204.652 10.9367V31.0013C204.652 31.2905 204.42 31.5229 204.13 31.5229H199.925C199.636 31.5229 199.403 31.2905 199.403 31.0013V29.7597C199.403 29.2834 198.824 29.0623 198.501 29.4082C196.968 31.041 194.642 32.0672 192.167 32.0672C186.515 32.0672 181.986 27.5032 181.986 20.9491C181.986 14.3951 186.328 9.87646 192.303 9.87646C194.676 9.87646 196.985 10.7269 198.518 12.252C198.847 12.5809 199.409 12.3541 199.409 11.8892V10.9423C199.409 10.6532 199.641 10.4207 199.931 10.4207L199.925 10.4151ZM199.312 20.9435C199.312 17.3263 196.327 14.7523 193.206 14.7523C189.812 14.7523 187.236 17.5531 187.236 20.9435C187.236 24.3339 189.812 27.18 193.251 27.18C196.509 27.18 199.312 24.47 199.312 20.9435Z"></path>
<path fill="#C7C7C7" d="M227 19.679V31.0011C227 31.2903 226.767 31.5227 226.478 31.5227H222.273C221.983 31.5227 221.751 31.2903 221.751 31.0011V20.0418C221.751 16.6514 219.713 14.8428 217.364 14.8428C215.014 14.8428 211.978 16.2432 211.978 20.314V31.0011C211.978 31.2903 211.746 31.5227 211.456 31.5227H207.251C206.962 31.5227 206.729 31.2903 206.729 31.0011V10.9365C206.729 10.6473 206.962 10.4149 207.251 10.4149H211.456C211.746 10.4149 211.978 10.6473 211.978 10.9365V11.9627C211.978 12.4503 212.574 12.66 212.898 12.2972C214.373 10.6417 216.813 9.87061 218.539 9.87061C223.97 9.87061 227 13.5332 227 19.679Z"></path>
</g>
<defs>
<clipPath id="clip0_2898_1156">
<rect fill="white" height="50" width="227"></rect>
</clipPath>
</defs>
</svg>
