<svg xmlns="http://www.w3.org/2000/svg" fill="none" viewBox="0 0 212 28" height="28" width="212">
<g clip-path="url(#clip0_2898_1142)">
<path fill="#C7C7C7" d="M23.9454 27.6718L23.9083 3.42137L12.9532 18.3826H12.2589L1.2667 3.49551V27.6718H0V0.768066H1.0759L12.6087 16.7249L24.0991 0.768066H25.175L25.2121 27.6718H23.9454Z"></path>
<path fill="#C7C7C7" d="M45.0396 14.6432V27.5549H43.81V23.5564C42.5804 26.0561 39.4375 27.6502 35.7858 27.6502C31.2861 27.6502 28.5195 25.3571 28.5195 22.0153C28.5195 19.2984 30.6395 15.9566 35.9236 15.7289C36.5596 15.7024 37.2009 15.7077 37.8369 15.7925L43.7729 16.4968V14.6432C43.7729 10.6871 41.6582 8.49986 37.6196 8.61107C35.2664 8.67463 32.5528 8.72229 30.8568 10.3376L30.1625 9.41607C32.0864 7.61013 34.9749 7.45654 37.6567 7.45654C42.4267 7.45654 45.0396 9.95626 45.0396 14.6432ZM43.7729 21.7928V17.6408L38.0012 16.8517C36.9942 16.714 35.9766 16.7563 34.9802 16.9311C31.5087 17.5507 29.9081 19.881 29.9081 21.9623C29.9081 24.8063 32.1394 26.5751 35.8706 26.5751C39.6018 26.5751 42.5486 24.8645 43.7782 21.7928H43.7729Z"></path>
<path fill="#C7C7C7" d="M154.463 14.6432V27.5549H153.233V23.5564C152.004 26.0561 148.861 27.6502 145.209 27.6502C140.709 27.6502 137.943 25.3571 137.943 22.0153C137.943 19.2984 140.063 15.9566 145.347 15.7289C145.983 15.7024 146.624 15.7077 147.26 15.7925L153.196 16.4968V14.6432C153.196 10.6871 151.082 8.49986 147.043 8.61107C144.69 8.67463 141.976 8.72229 140.28 10.3376L139.586 9.41607C141.51 7.61013 144.398 7.45654 147.08 7.45654C151.85 7.45654 154.463 9.95626 154.463 14.6432ZM153.196 21.7928V17.6408L147.425 16.8517C146.418 16.714 145.4 16.7563 144.404 16.9311C140.932 17.5507 139.331 19.881 139.331 21.9623C139.331 24.8063 141.563 26.5751 145.294 26.5751C149.025 26.5751 151.972 24.8645 153.202 21.7928H153.196Z"></path>
<path fill="#C7C7C7" d="M49.6396 0.768066H59.4711C67.5589 0.768066 72.9862 6.41891 72.9862 14.2199C72.9862 22.021 67.5589 27.6718 59.4711 27.6718H49.6396V0.768066ZM59.4022 26.4802C66.9441 26.4802 71.7513 21.3325 71.7513 14.2199C71.7513 7.10739 66.9388 1.95967 59.4022 1.95967H50.8798V26.4802H59.4022Z"></path>
<path fill="#C7C7C7" d="M83.9043 13.9126C83.9043 5.93683 89.8668 0 97.7903 0C101.442 0 105.194 1.74768 107.542 4.18385L106.737 5.0471C104.352 2.69037 101.023 1.21808 97.8327 1.21808C90.6406 1.21808 85.2187 6.72064 85.2187 13.9126C85.2187 21.1046 90.6406 26.6072 97.8327 26.6072C101.023 26.6072 104.569 24.6 106.949 22.2432L107.754 23.1065C105.406 25.585 101.442 27.8252 97.7903 27.8252C89.8668 27.8252 83.9043 21.8884 83.9043 13.9126Z"></path>
<path fill="#C7C7C7" d="M119.059 7.57324V8.83899H118.715C114.061 8.83899 111.332 11.953 111.332 17.0637V27.6716H110.065V7.72683H111.295V12.5303C112.45 9.37918 115.142 7.57324 119.064 7.57324H119.059Z"></path>
<path fill="#C7C7C7" d="M136.645 17.8686H119.144C119.224 23.0587 122.949 26.6335 128.027 26.6335C130.64 26.6335 133.507 24.7905 135.044 22.7939L135.85 23.6413C134.042 25.7914 130.947 27.788 128.022 27.788C122.139 27.788 117.904 23.5989 117.904 17.678C117.904 11.757 121.905 7.56787 127.29 7.56787C132.675 7.56787 136.634 11.6829 136.634 17.5244V17.8686H136.645ZM119.181 16.8306H135.452C135.145 12.1436 131.8 8.7224 127.301 8.7224C122.801 8.7224 119.457 12.1436 119.186 16.8306H119.181Z"></path>
<path fill="#C7C7C7" d="M212 17.8686H194.499C194.579 23.0587 198.305 26.6335 203.382 26.6335C205.995 26.6335 208.862 24.7905 210.399 22.7939L211.205 23.6413C209.398 25.7914 206.303 27.788 203.377 27.788C197.494 27.788 193.259 23.5989 193.259 17.678C193.259 11.757 197.261 7.56787 202.646 7.56787C208.03 7.56787 211.989 11.6829 211.989 17.5244V17.8686H212ZM194.537 16.8306H210.808C210.5 12.1436 207.156 8.7224 202.656 8.7224C198.156 8.7224 194.812 12.1436 194.542 16.8306H194.537Z"></path>
<path fill="#C7C7C7" d="M168.678 26.618C167.718 27.5395 166.139 28.0002 164.676 28.0002C161.369 28.0002 159.599 26.0036 159.599 22.8896V9.0511H156.62V7.93893H159.599L159.668 1.46191H160.934L160.865 7.93893H167.443V9.0511H160.865V22.6936C160.865 25.384 162.212 26.8828 164.787 26.8828C166.017 26.8828 167.172 26.4591 168.02 25.6912L168.672 26.6127L168.678 26.618Z"></path>
<path fill="#C7C7C7" d="M169.075 2.67441C169.075 1.51458 170.045 0.54541 171.206 0.54541C172.366 0.54541 173.336 1.51458 173.336 2.61085C173.336 3.77068 172.366 4.73985 171.206 4.73985C170.045 4.73985 169.075 3.77068 169.075 2.67441ZM170.708 7.33489H171.974V27.2797H170.708V7.33489Z"></path>
<path fill="#C7C7C7" d="M193.27 7.72705L184.52 27.6718H183.301L174.55 7.72705H175.881L183.931 26.2525L191.977 7.72705H193.27Z"></path>
</g>
<defs>
<clipPath id="clip0_2898_1142">
<rect fill="white" height="28" width="212"></rect>
</clipPath>
</defs>
</svg>
