<svg xmlns="http://www.w3.org/2000/svg" fill="none" viewBox="0 0 26 26" height="26" width="26">
<path fill="white" d="M13.8125 0.8125C13.8125 0.363769 13.4487 0 13 0C12.5513 0 12.1875 0.363769 12.1875 0.8125V1.65357C6.55283 2.05124 2.05124 6.55283 1.65357 12.1875H0.8125C0.363769 12.1875 0 12.5513 0 13C0 13.4487 0.363769 13.8125 0.8125 13.8125H1.65357C2.05124 19.4472 6.55283 23.9488 12.1875 24.3464V25.1875C12.1875 25.6362 12.5513 26 13 26C13.4487 26 13.8125 25.6362 13.8125 25.1875V24.3464C19.4472 23.9488 23.9488 19.4472 24.3464 13.8125H25.1875C25.6362 13.8125 26 13.4487 26 13C26 12.5513 25.6362 12.1875 25.1875 12.1875H24.3464C23.9488 6.55283 19.4472 2.05124 13.8125 1.65357V0.8125ZM3.28337 12.1875C3.67414 7.45079 7.45079 3.67414 12.1875 3.28337V4.0625C12.1875 4.51123 12.5513 4.875 13 4.875C13.4487 4.875 13.8125 4.51123 13.8125 4.0625V3.28337C18.5492 3.67414 22.3259 7.45079 22.7166 12.1875H21.9375C21.4888 12.1875 21.125 12.5513 21.125 13C21.125 13.4487 21.4888 13.8125 21.9375 13.8125H22.7166C22.3259 18.5492 18.5492 22.3259 13.8125 22.7166V21.9375C13.8125 21.4888 13.4487 21.125 13 21.125C12.5513 21.125 12.1875 21.4888 12.1875 21.9375V22.7166C7.45079 22.3259 3.67414 18.5492 3.28337 13.8125H4.0625C4.51123 13.8125 4.875 13.4487 4.875 13C4.875 12.5513 4.51123 12.1875 4.0625 12.1875H3.28337ZM13 16.25C14.7949 16.25 16.25 14.7949 16.25 13C16.25 11.2051 14.7949 9.75 13 9.75C11.2051 9.75 9.75 11.2051 9.75 13C9.75 14.7949 11.2051 16.25 13 16.25Z"></path>
</svg>
