<svg xmlns="http://www.w3.org/2000/svg" fill="none" viewBox="0 0 133 34" height="34" width="133">
<path fill="#C7C7C7" d="M86.7825 9.3489C86.5608 9.3489 86.4722 9.45914 86.4722 9.63554V12.8988C86.4722 13.1193 86.583 13.2075 86.7825 13.2075H88.2677V23.8794H86.8047C86.6495 23.8794 86.5165 24.0117 86.5165 24.166V27.4514C86.5165 27.6057 86.6495 27.738 86.8047 27.738H93.6985C93.8537 27.738 93.9867 27.6057 93.9867 27.4514V24.166C93.9867 24.0117 93.8537 23.8794 93.6985 23.8794H92.2577V9.63554C92.2577 9.48119 92.1247 9.3489 91.9695 9.3489H86.7825ZM1.55167 5.15953C1.3965 5.15953 1.2635 5.29183 1.2635 5.44617C1.2635 5.44617 1.2635 5.44617 1.2635 5.46822V8.73152C1.2635 8.88586 1.3965 9.01816 1.55167 9.01816H5.94067V23.3502C5.94067 25.4228 5.49733 26.5032 4.36683 27.1206C3.16983 27.6498 1.88417 27.8923 0.576333 27.8041H0.288166C0.110833 27.8041 0 27.9144 0 28.0908V31.2438C0 31.4202 0.110833 31.5305 0.288166 31.5305H1.04183C4.41117 31.5305 6.76083 30.7367 8.13517 29.4138C9.35433 28.2672 9.93067 26.8119 9.93067 24.7393V5.42412C9.93067 5.24773 9.81983 5.15953 9.62033 5.15953H1.55167ZM65.2587 5.15953C65.1035 5.15953 64.9483 5.29183 64.9483 5.44617V20.2192C64.9483 21.6524 64.5937 22.7108 63.973 23.3722C63.3745 23.9896 62.5322 24.3204 61.4903 24.3204H61.2243C60.1825 24.3204 59.3623 24.0117 58.786 23.4384C58.1653 22.821 57.8107 21.6965 57.8107 20.153V5.44617C57.8107 5.29183 57.6777 5.15953 57.5225 5.15953H54.0867C53.9315 5.15953 53.7985 5.29183 53.7985 5.44617V20.3294C53.7985 23.3281 54.5522 24.7834 55.6827 25.8859C56.7023 26.834 57.988 27.4514 59.3623 27.6498V33.7134C59.3623 33.8677 59.4953 34 59.6505 34H63.0198C63.1972 34 63.308 33.8677 63.308 33.7134V27.6278C64.771 27.3632 66.101 26.6796 67.0763 25.6874C68.2512 24.4968 68.9605 22.7328 68.9605 20.3074V5.44617C68.9605 5.29183 68.8497 5.15953 68.6945 5.15953C68.6723 5.15953 65.2587 5.15953 65.2587 5.15953ZM97.1122 10.9805V11.4656C97.1122 15.3243 98.819 16.2944 103.053 17.9261C106.954 19.4254 107.686 19.9105 107.686 21.917C107.686 23.4604 106.422 24.6732 104.294 24.6732C101.745 24.6732 100.681 23.3502 100.681 20.9248C100.681 20.7043 100.526 20.594 100.238 20.594H97.1787C96.9127 20.594 96.8018 20.7263 96.8018 20.9468V21.9611C96.8018 25.511 99.085 28.1349 104.117 28.1349C108.883 28.1349 111.764 25.4449 111.764 21.8729V21.1673C111.764 17.882 110.168 16.6693 105.602 14.8612C101.9 13.3839 101.146 13.0091 101.146 10.8703C101.146 9.393 102.166 8.20233 104.095 8.20233C106.134 8.20233 107.065 9.3489 107.065 11.3554C107.065 11.6641 107.287 11.7743 107.641 11.7743H110.612C110.789 11.7743 110.9 11.6861 110.9 11.4656V10.8703C110.9 6.98962 108.085 4.78469 104.028 4.78469C99.8165 4.78469 97.1122 7.43061 97.1122 10.9805ZM17.8663 13.5383C17.8663 11.7302 18.1767 10.5396 18.8638 9.76783C19.4845 9.06226 20.3268 8.62127 21.5017 8.62127H21.5903C22.61 8.62127 23.5632 9.01816 24.2282 9.76783C24.8932 10.5175 25.2478 11.62 25.2478 13.5603V14.4864H17.8885C17.8663 14.4643 17.8663 13.5383 17.8663 13.5383ZM15.96 7.05578C14.5857 8.55513 13.8542 10.5396 13.8542 14.0895V19.249C13.8542 22.6887 14.5635 24.6952 15.9822 26.1505C17.3122 27.5175 19.152 28.1349 21.28 28.1349C24.6937 28.1349 27.1542 26.4371 28.6393 23.4604C28.728 23.262 28.6837 23.1517 28.5063 23.0636L25.8463 21.7626C25.669 21.6744 25.5582 21.7406 25.4473 21.917C24.4277 23.725 23.0977 24.4968 21.5017 24.4968C20.5042 24.4968 19.6175 24.144 18.9968 23.5266C18.2875 22.821 17.8663 21.6304 17.8663 19.69V18.3671H28.9053C29.1048 18.3671 29.1935 18.2568 29.1935 18.0804V13.9351C29.1935 10.3632 28.4398 8.42283 27.2428 7.16602C25.7355 5.64462 23.6518 4.80675 21.5017 4.85085C19.4623 4.80675 17.3122 5.62257 15.96 7.05578ZM88.0682 1.67575C87.8908 1.67575 87.78 1.80804 87.78 1.96239V5.88716C87.78 6.06355 87.913 6.1738 88.0682 6.1738H91.8365C92.0138 6.1738 92.1247 6.06355 92.1247 5.88716V1.96239C92.1247 1.78599 92.036 1.67575 91.8365 1.67575H88.0682ZM116.22 0.154344C116.042 0.154344 115.91 0.264591 115.91 0.440986V23.9014H114.424C114.269 23.9014 114.136 24.0337 114.136 24.1881V27.4734C114.136 27.6278 114.269 27.7601 114.424 27.7601H121.34C121.496 27.7601 121.629 27.6278 121.629 27.4734V24.1881C121.629 24.0337 121.496 23.9014 121.34 23.9014H119.922V13.6265C119.922 11.7523 120.232 10.6278 121.03 9.76783C121.651 9.10636 122.626 8.66537 123.845 8.66537C124.887 8.66537 125.796 9.01816 126.372 9.65759C127.037 10.4293 127.347 11.62 127.347 13.5603V23.9014H125.907C125.751 23.9014 125.618 24.0337 125.618 24.1881V27.4734C125.618 27.6278 125.751 27.7601 125.907 27.7601H132.712C132.867 27.7601 133 27.6278 133 27.4734V24.1881C133 24.0337 132.867 23.9014 132.712 23.9014H131.382V12.4799C131.382 9.67964 130.761 8.00389 129.564 6.70299C128.323 5.46823 126.638 4.7847 124.865 4.80675C122.914 4.80675 121.008 5.55642 119.922 6.72504V0.463036C119.922 0.308691 119.789 0.176395 119.633 0.176395C119.633 0.154346 116.22 0.154344 116.22 0.154344ZM33.516 0.154344C33.3608 0.132295 33.25 0.242543 33.2278 0.396888V0.418938V22.2477C33.2278 24.5409 33.7377 25.6874 34.6465 26.5694C35.7105 27.6057 37.4617 28.1128 39.4345 28.1128H40.565C40.7423 28.1128 40.8532 28.0026 40.8532 27.8262V24.607C40.8532 24.4086 40.7202 24.3204 40.565 24.3204H39.9665C39.0133 24.3204 38.3705 24.0999 37.9272 23.6809C37.3952 23.1518 37.24 22.4021 37.24 20.9468V0.440986C37.24 0.264591 37.1292 0.154344 36.9518 0.154344H33.516ZM43.9565 0.154344C43.8013 0.154344 43.6905 0.264592 43.6683 0.396888C43.6683 0.396888 43.6683 0.396889 43.6683 0.418938V22.2477C43.6683 24.5409 44.1782 25.6874 45.087 26.5694C46.151 27.6057 47.9022 28.1128 49.875 28.1128H50.9833C51.1607 28.1128 51.2715 28.0026 51.2715 27.8262V24.607C51.2715 24.4086 51.1607 24.3204 50.9833 24.3204H50.407C49.4538 24.3204 48.7888 24.0999 48.3677 23.6809C47.8357 23.1518 47.6583 22.4021 47.6583 20.9468V0.440986C47.6583 0.264591 47.5475 0.154344 47.3702 0.154344H43.9565ZM82.3492 0C79.6227 0 77.4725 0.727626 76.1203 2.02853C74.5243 3.59403 74.0367 5.46823 74.0367 8.46693V23.9014H72.8175C72.6623 23.9014 72.5293 24.0337 72.5293 24.1881V27.4734C72.5293 27.6278 72.6623 27.7601 72.8175 27.7601H79.5783C79.7335 27.7601 79.8665 27.6278 79.8665 27.4734V24.1881C79.8665 24.0337 79.7335 23.9014 79.5783 23.9014H78.0267V13.2296H83.258C83.4353 13.2296 83.5683 13.1414 83.5683 12.9209V9.65759C83.5683 9.48119 83.4797 9.37095 83.258 9.37095H78.0267V8.64332C78.0267 7.01167 78.2483 5.84306 79.0685 5.02724C79.8887 4.18937 81.13 3.88067 82.9477 3.88067H83.8343C84.056 3.88067 84.2112 3.77043 84.2112 3.59403V0.286641C84.2112 0.0881978 84.1003 0 83.9008 0H82.3492Z"></path>
</svg>
