<svg xmlns="http://www.w3.org/2000/svg" fill="none" viewBox="0 0 87 66" height="66" width="87">
<g clip-path="url(#clip0_2898_1221)">
<path fill="#C7C7C7" d="M67.9355 47.4973C67.2395 47.3682 66.5029 47.4063 65.7895 47.4504C64.5599 47.5237 63.5304 48.0521 62.8344 49.0972C62.4864 49.6197 62.1877 50.198 61.9847 50.791C61.6251 51.8449 61.3873 52.9369 61.0393 53.9966C60.8073 54.6982 60.5434 55.4057 60.1664 56.031C59.7459 56.7326 58.96 56.7561 58.409 56.1484C58.177 55.893 57.9943 55.5701 57.8551 55.2472C57.3331 54.0642 57.1968 52.7901 57.1417 51.5249C57.0054 48.4631 57.1794 45.416 57.7826 42.4041C57.9015 41.8112 58.0958 41.2358 58.2727 40.5841C58.6178 40.7896 58.8614 40.9158 59.0876 41.0714C60.3549 41.9462 61.5961 42.8621 62.8953 43.6899C63.4637 44.051 64.1249 44.3768 64.7803 44.4708C66.5812 44.7262 67.892 43.8191 68.8229 42.3454C70.6963 39.3776 70.3918 34.6631 66.8857 32.1649C63.4811 29.7372 59.7111 29.4319 55.8338 30.7383C52.6931 31.7951 50.6544 34.1435 49.2537 37.0908C47.7196 40.3199 47.1686 43.778 47.0294 47.3271C47.0091 47.8202 47.07 48.3692 46.8757 48.786C46.5741 49.4348 46.1449 50.0513 45.6664 50.5855C44.692 51.6746 43.5349 51.6188 42.5953 50.5004C42.4358 50.3125 42.2647 50.1158 42.1719 49.8927C41.6934 48.7215 41.2265 47.5443 40.7886 46.3583C40.7335 46.2086 40.8234 45.9738 40.9017 45.8035C41.9573 43.4962 43.1231 41.2329 44.0685 38.8815C47.0961 31.3606 49.5495 23.6812 49.9642 15.4822C50.0976 12.8666 50.028 10.2687 49.3436 7.72942C48.7636 5.5806 47.8298 3.60791 46.0956 2.16068C43.1608 -0.290506 39.8316 -0.466638 36.3777 0.704646C33.8663 1.55889 32.2423 3.47287 31.0533 5.78902C29.5627 8.69522 28.8754 11.8392 28.5332 15.0595C28.2867 17.3844 28.2026 19.727 28.0663 22.0637C28.0489 22.3631 27.9097 22.4189 27.669 22.4483C25.3229 22.7154 23.2784 23.6753 21.5355 25.2723C21.2281 25.5541 20.9671 25.5922 20.5959 25.4778C18.6906 24.9024 16.9796 23.9483 15.373 22.7829C13.1835 21.1919 11.2376 19.3131 9.34101 17.3874C8.07371 16.1016 6.61211 15.4352 4.77931 15.7229C2.73191 16.0458 1.20361 17.088 0.501813 19.0783C-0.469687 21.8347 -0.0114871 24.4767 1.55161 26.8927C3.11181 29.3028 5.37091 30.9526 7.78661 32.3822C10.3125 33.8764 13.0762 34.7453 15.924 35.3471C16.2372 35.4146 16.3358 35.4997 16.2836 35.8667C16.1183 37.0145 15.9588 38.1711 15.9066 39.3277C15.8167 41.3444 15.9153 43.3611 16.2546 45.3573C16.6751 47.829 17.4117 50.1834 18.8501 52.2559C21.3673 55.8783 24.8966 57.2815 29.1654 56.8647C31.2534 56.6621 33.0485 55.6758 34.6493 54.3254C34.89 54.1229 35.1336 53.9174 35.3801 53.7119C35.9253 54.4546 36.4125 55.1679 36.9519 55.8431C39.7881 59.3804 44.0221 59.8648 47.5311 57.0702C47.6355 56.988 47.7515 56.9175 47.8675 56.8383C47.9139 56.9087 47.9458 56.9439 47.9603 56.985C48.0241 57.1758 48.0821 57.3667 48.143 57.5604C48.9057 59.9852 50.0454 62.1751 52.0377 63.8102C54.1576 65.548 56.6139 66.1528 59.3051 65.9854C61.9267 65.821 64.3076 64.9844 66.3231 63.2906C70.0757 60.1319 71.6011 56.0046 71.1951 51.1374C71.0298 49.1442 69.8466 47.8701 67.9268 47.512L67.9355 47.4973ZM31.5608 46.8926C29.7222 48.1167 27.5327 47.5061 26.7468 45.4307C26.3901 44.4913 26.19 43.458 26.1146 42.4511C25.9609 40.4696 26.0334 38.4823 26.3843 36.5154C26.4394 36.2043 26.5699 36.0722 26.8773 36.034C27.5878 35.9459 28.2954 35.8285 29.0639 35.714C29.2524 36.6241 29.4322 37.5018 29.6178 38.3766C30.1717 41.001 30.8851 43.5784 31.816 46.0941C31.9552 46.4728 31.8914 46.6754 31.5637 46.8926H31.5608Z"></path>
<path fill="#C7C7C7" d="M84.0043 21.9288C82.679 21.1538 81.2261 20.9014 79.7094 20.8896C79.1294 20.9425 78.5436 20.9572 77.9723 21.054C75.574 21.468 73.7876 22.7332 72.7262 24.9847C71.9722 26.5876 71.8475 28.2902 71.9055 30.028C71.9548 31.5193 72.239 32.9518 72.9205 34.2846C74.4401 37.2495 77.6359 38.1096 80.4692 37.6311C82.9487 37.2142 84.6858 35.7259 85.811 33.492C86.9246 31.2756 87.1943 28.9066 86.8608 26.4731C86.594 24.5415 85.7269 22.9387 84.0014 21.9288H84.0043ZM82.0816 33.2043C81.4668 33.8442 80.6316 33.8119 80.0893 33.1045C79.8776 32.8285 79.7094 32.5174 79.4977 32.1886C79.402 32.3618 79.3353 32.4998 79.257 32.6289C78.7321 33.5008 77.5924 33.5771 77.0443 32.714C76.7485 32.2473 76.5571 31.6749 76.4556 31.123C76.2004 29.7433 76.1482 28.343 76.4904 26.9662C76.937 25.1814 78.4218 24.3154 80.1067 24.8145C81.1362 25.1198 81.8931 26.1384 81.9888 27.2246C82.0758 28.208 81.751 28.9859 80.9883 29.6288C81.4088 30.0192 81.8119 30.3363 82.1454 30.712C82.7979 31.4488 82.7544 32.4998 82.0816 33.1984V33.2043Z"></path>
</g>
<defs>
<clipPath id="clip0_2898_1221">
<rect fill="white" height="66" width="87"></rect>
</clipPath>
</defs>
</svg>
