<svg xmlns="http://www.w3.org/2000/svg" fill="none" viewBox="0 0 285 52" height="52" width="285">
<path fill="#C7C7C7" d="M116.544 25.8471C117.317 25.8471 118.09 25.6941 118.554 25.2353C119.018 24.7765 119.327 24.3176 119.327 23.5529C119.327 22.7882 119.018 22.1765 118.554 21.8706C118.09 21.4118 117.472 21.2588 116.544 21.2588H113.916V25.8471H116.544ZM110.515 18.2H116.699C117.627 18.2 118.4 18.2 119.173 18.5059C119.946 18.8118 120.564 19.1176 121.028 19.5765C121.492 20.0353 121.955 20.6471 122.11 21.2588C122.419 21.8706 122.574 22.6353 122.574 23.4C122.574 24.3176 122.419 25.0824 122.11 25.6941C121.801 26.3059 121.337 26.9176 120.719 27.3765C120.1 27.8353 119.482 28.1412 118.709 28.4471C117.936 28.6 117.163 28.7529 116.235 28.7529H113.607V33.3412H110.206V18.2H110.515Z"></path>
<path fill="#C7C7C7" d="M141.436 27.0706L139.426 22.1765L137.416 27.0706H141.436ZM137.88 18.2H140.972L147.465 33.4941H143.909L142.518 30.1294H136.024L134.633 33.4941H131.232L137.725 18.2H137.88Z"></path>
<path fill="#C7C7C7" d="M164.008 25.6941C164.781 25.6941 165.399 25.5412 165.863 25.0823C166.327 24.6235 166.481 24.1647 166.481 23.5529C166.481 22.7882 166.172 22.1765 165.708 21.8706C165.244 21.5647 164.626 21.2588 163.698 21.2588H160.297V25.5412H163.698L164.008 25.6941ZM157.205 18.2H164.162C166.172 18.2 167.564 18.6588 168.646 19.7294C169.573 20.6471 169.883 21.7176 169.883 23.247C169.883 24.4706 169.573 25.5412 168.955 26.3059C168.337 27.0706 167.564 27.6824 166.636 27.9882L170.346 33.3412H166.481L163.235 28.4471H160.606V33.3412H157.205V18.2Z"></path>
<path fill="#C7C7C7" d="M184.106 21.4118H179.468V18.2H192.146V21.4118H187.507V33.3412H184.106V21.4118Z"></path>
<path fill="#C7C7C7" d="M202.04 18.2H205.287L212.399 27.5294V18.2H215.645V33.3412H212.863L205.442 23.8588V33.3412H202.04V18.2Z"></path>
<path fill="#C7C7C7" d="M226.777 18.2H238.372V21.2588H230.178V24.3176H237.29V27.2235H230.178V30.4353H238.372V33.3412H226.777V18.2Z"></path>
<path fill="#C7C7C7" d="M255.688 25.6941C256.461 25.6941 257.234 25.5412 257.543 25.0823C258.007 24.6235 258.161 24.1647 258.161 23.5529C258.161 22.7882 257.852 22.1765 257.388 21.8706C256.924 21.5647 256.306 21.2588 255.378 21.2588H251.977V25.5412H255.378L255.688 25.6941ZM248.885 18.2H255.842C257.852 18.2 259.243 18.6588 260.326 19.7294C261.253 20.6471 261.563 21.7176 261.563 23.247C261.563 24.4706 261.253 25.5412 260.635 26.3059C260.016 27.0706 259.243 27.6824 258.316 27.9882L262.026 33.3412H258.161L254.915 28.4471H252.286V33.3412H248.885V18.2Z"></path>
<path fill="#C7C7C7" d="M277.641 33.6471C276.404 33.6471 275.322 33.4941 274.24 33.0353C273.158 32.5765 272.076 31.9647 271.148 31.2L273.158 28.9059C273.931 29.5176 274.549 29.9765 275.322 30.2824C276.095 30.5882 276.868 30.7412 277.796 30.7412C278.724 30.7412 279.033 30.7412 279.497 30.4353C279.806 30.1294 280.115 29.8235 280.115 29.3647C280.115 29.0588 280.115 28.9059 280.115 28.7529C280.115 28.6 279.806 28.4471 279.651 28.2941C279.497 28.2941 279.187 27.9882 278.724 27.8353C278.26 27.8353 277.796 27.5294 277.177 27.3765C276.404 27.2235 275.631 26.9176 275.013 26.7647C274.395 26.4588 273.776 26.3059 273.467 25.8471C273.003 25.5412 272.694 25.0823 272.385 24.6235C272.076 24.1647 272.076 23.5529 272.076 22.7882C272.076 22.0235 272.076 21.4118 272.539 20.8C272.849 20.1882 273.158 19.7294 273.622 19.4235C274.085 18.9647 274.704 18.6588 275.322 18.5059C275.941 18.3529 276.714 18.2 277.487 18.2C278.569 18.2 279.651 18.3529 280.579 18.6588C281.506 18.9647 282.434 19.4235 283.207 20.0353L281.506 22.4823C280.888 22.0235 280.115 21.7176 279.497 21.4118C278.878 21.1059 278.26 20.9529 277.487 20.9529C276.714 20.9529 276.404 20.9529 275.941 21.2588C275.631 21.5647 275.477 21.8706 275.477 22.1765C275.477 22.4823 275.477 22.6353 275.477 22.7882C275.477 22.9412 275.786 23.0941 275.941 23.247C276.25 23.247 276.559 23.5529 277.023 23.7059C277.487 23.7059 277.95 24.0118 278.724 24.1647C279.497 24.3176 280.115 24.6235 280.733 24.7765C281.352 25.0823 281.816 25.3882 282.279 25.6941C282.743 26 283.052 26.4588 283.207 26.9176C283.362 27.3765 283.516 27.9882 283.516 28.6C283.516 29.3647 283.516 30.1294 283.052 30.5882C282.743 31.2 282.434 31.6588 281.97 32.1176C281.506 32.5765 280.888 32.8823 280.27 33.0353C279.651 33.1882 278.878 33.3412 277.95 33.3412"></path>
<path fill="#C7C7C7" d="M40.7886 26C40.7886 30.7412 38.315 35.0235 34.2953 37.4706C32.2854 38.6941 29.9664 39.3059 27.4927 39.3059C22.3908 39.3059 18.0619 36.8588 15.7428 32.7294C14.506 30.7412 13.8876 28.6 13.8876 26.1529C13.8876 21.4118 16.5159 16.9765 20.6902 14.6824C22.7 13.4588 25.0191 12.8471 27.3381 12.8471C32.1308 12.8471 36.4597 15.2941 38.9334 19.4235C40.1702 21.4118 40.7886 23.7059 40.7886 26.1529M35.3775 12.0824C32.9038 10.7059 30.2756 9.94118 27.3381 9.94118C21.3086 9.94118 16.2067 12.8471 13.2692 17.7412C11.7232 20.1882 11.1047 22.9412 11.1047 25.8471C11.1047 31.5059 14.3514 36.8588 19.2987 39.7647C21.7724 41.1412 24.5552 41.9059 27.3381 41.9059C33.213 41.9059 38.4696 38.6941 41.2524 33.9529C42.6439 31.5059 43.2623 28.9059 43.2623 26C43.2623 20.0353 40.3248 14.9882 35.3775 12.2353"></path>
<path fill="#C7C7C7" d="M76.5021 0.305878V17.1294V17.2824V19.5765H58.8773V0.305878H56.249V22.1765H84.2323V5.04706H81.604V19.5765H79.285V17.2824V17.1294V3.05882H86.7059V48.9412H79.285V34.8706H76.5021V51.6941H89.3342V0.305878H76.5021Z"></path>
<path fill="#C7C7C7" d="M36.6144 41.6C33.8315 43.2823 30.7394 44.0471 27.3381 44.0471C20.5356 44.0471 14.6607 40.5294 11.414 34.8706C9.71334 32.1177 8.94032 29.0588 8.94032 25.8471C8.94032 19.1176 12.4962 13.3059 18.2165 10.0941C20.9994 8.41176 24.0915 7.64706 27.4928 7.64706C33.9861 7.64706 40.1702 11.0118 43.4169 16.6706C45.1176 19.4235 45.8906 22.4824 45.8906 25.8471C45.8906 32.2706 42.3347 38.3882 36.769 41.6M81.604 47.2588H84.3869V29.8235H56.4036V49.0941H48.5188V41.1412C49.1372 40.3765 49.6011 39.6118 50.2195 38.6941C50.5287 38.0824 50.8379 37.6235 51.1471 37.0118V47.2588H53.7754V27.3765H84.5415V24.7765H50.9925C50.9925 25.2353 50.9925 25.5412 50.9925 26C50.9925 29.8235 50.0649 33.3412 48.5188 36.5529C47.7458 37.9294 46.9728 39.3059 45.8906 40.5294C44.0353 42.6706 41.8709 44.6588 39.3972 46.0353C35.6867 48.0235 31.8216 49.0941 27.6474 49.0941C19.1442 49.0941 11.5686 44.6588 7.39429 37.6235C5.38444 34.1059 4.30222 30.1294 4.30222 26C4.30222 17.5882 8.78572 9.94118 15.8975 5.81177C19.4534 3.82353 23.4731 2.75295 27.6474 2.75295C34.7591 2.75295 41.5617 5.96471 46.0452 11.4706V15.4471C44.3445 12.3882 41.7163 9.78823 38.4696 7.95294C35.2229 6.11764 31.667 5.35294 27.6474 5.35294C19.7626 5.35294 12.96 9.17647 9.24953 15.6C7.39429 18.8118 6.46667 22.3294 6.46667 26C6.46667 33.4941 10.4864 40.2235 17.1343 44.0471C20.5356 45.8824 23.9369 46.8 27.6474 46.8C35.2229 46.8 42.3347 42.8235 45.8906 36.4C47.5912 33.3412 48.5188 29.8235 48.5188 26.1529V3.21176H50.9925V22.4823H53.6208V0.458828H45.8906V7.8C44.3445 6.27059 42.4893 4.89412 40.4794 3.67059C36.4598 1.37647 31.9763 0.152939 27.4928 0.152939C18.3711 0.152939 9.55874 5.2 4.92063 13.1529C2.60158 17.1294 1.36475 21.4118 1.36475 26C1.36475 35.1765 6.46666 43.5882 14.6607 48.3294C18.6803 50.6235 23.0092 51.8471 27.6474 51.8471C34.6045 51.8471 41.0979 49.0941 46.0452 44.2V51.8471H59.1865V32.5765H81.9132V47.4118L81.604 47.2588Z"></path>
</svg>
