<svg xmlns="http://www.w3.org/2000/svg" fill="none" viewBox="0 0 113 52" height="52" width="113">
<g clip-path="url(#clip0_3439_4816)">
<path fill="#C7C7C7" d="M23.5975 0V15.2863H7.76633V0H0.12793V39.0625H7.76633V22.86H23.5975V39.0625H31.2359V0H23.5975Z"></path>
<path fill="#C7C7C7" d="M62.5342 27.6463H64.9198C65.1606 26.5525 65.295 25.4142 65.295 24.2426C65.295 22.9933 65.1438 21.7773 64.8694 20.6112C63.2454 13.776 57.1526 8.69536 49.8726 8.69536C41.355 8.69536 34.4502 15.6528 34.4502 24.2371C34.4502 32.8214 41.355 39.7788 49.8726 39.7788C56.279 39.7788 61.7726 35.842 64.1022 30.2394C64.2814 29.8063 64.4438 29.3621 64.5838 28.9068H56.4862C56.1502 29.3954 55.7582 29.8341 55.3214 30.2394C53.8822 31.5665 51.9726 32.3827 49.867 32.3827C46.6078 32.3827 43.8078 30.4337 42.5254 27.6352H62.5286L62.5342 27.6463ZM42.643 20.6168C43.9702 17.9404 46.703 16.097 49.8726 16.097C53.0422 16.097 55.7806 17.9404 57.1022 20.6168H42.6374H42.643Z"></path>
<path fill="#C7C7C7" d="M64.4997 9.82808H73.3645L80.1013 28.557L86.0429 9.82808H95.0869L81.9829 45.5534C81.9829 45.5534 78.9813 52.1277 73.3533 52H67.7869V43.9043H71.6285C71.6285 43.9043 74.9661 43.66 74.9605 37.9964C74.9549 32.3327 64.4941 9.82808 64.4941 9.82808H64.4997Z"></path>
<path fill="#C7C7C7" d="M93.9614 20.6168H112.128V38.1185C112.128 41.4723 111.069 44.7539 109.048 47.4469C107.323 49.7512 104.478 51.9944 102.294 51.9944H93.9558V45.0037H94.2638C96.571 45.0037 98.8278 44.1764 100.469 42.5773C101.426 41.6444 102.193 40.4562 102.188 39.068H94.0286L93.9502 20.6168H93.9614Z"></path>
</g>
<defs>
<clipPath id="clip0_3439_4816">
<rect transform="translate(0.12793)" fill="white" height="52" width="112"></rect>
</clipPath>
</defs>
</svg>
