<svg xmlns="http://www.w3.org/2000/svg" fill="none" viewBox="0 0 198 74" height="74" width="198">
<g clip-path="url(#clip0_2898_1213)">
<path fill="#C7C7C7" d="M0 0.65377L0.181029 55.1647L197.661 54.5109L197.48 0L0 0.65377ZM32.1609 35.6305C31.2048 36.2391 30.2035 36.7295 29.1399 37.0733C28.0651 37.4171 26.8601 37.5974 25.525 37.5974H25.4967C24.2352 37.5974 23.0302 37.3776 21.8818 36.938C20.7221 36.4871 19.7095 35.8728 18.8383 35.0669C17.9671 34.2666 17.2713 33.3028 16.7508 32.17C16.2303 31.0372 15.9701 29.7747 15.9645 28.4052C15.9588 27.0356 16.2134 25.7394 16.7338 24.6065C17.2486 23.4737 17.9445 22.4931 18.8213 21.6759C19.6869 20.8586 20.7051 20.2274 21.8535 19.7822C22.9963 19.3482 24.2069 19.1171 25.4571 19.1115C26.7696 19.1115 27.9237 19.2693 28.9363 19.5962C29.9376 19.9231 30.888 20.374 31.7988 20.9319L31.9515 21.0334L30.4015 23.7781L30.2261 23.6653C29.5246 23.2145 28.7779 22.865 27.9802 22.6114C27.1939 22.3691 26.3962 22.2451 25.6155 22.2507C24.6369 22.2507 23.7657 22.4085 23.0246 22.7354C22.2609 23.0679 21.6329 23.5019 21.1294 24.0486C20.6259 24.6065 20.2356 25.2547 19.9584 25.9874C19.6925 26.7313 19.5624 27.5316 19.5624 28.3883C19.5624 29.2957 19.7208 30.1185 20.0376 30.8794C20.3487 31.6402 20.7843 32.2883 21.3331 32.8181C21.8818 33.3535 22.5211 33.7819 23.2565 34.0862C23.9919 34.3906 24.7783 34.5427 25.6099 34.5427C26.3623 34.5427 27.0015 34.4638 27.5277 34.3398C28.0142 34.2158 28.4894 34.0299 28.9589 33.7819L28.9476 30.6652L24.8462 30.6765L24.8349 27.65L32.0025 27.6274H32.2005L32.2287 35.5685H32.2401L32.1495 35.6305H32.1609ZM61.1481 31.9051C60.6955 33.0379 60.0506 34.0186 59.2246 34.8414C58.3987 35.6756 57.4313 36.318 56.3169 36.7858C55.2137 37.2423 54.0144 37.4847 52.7246 37.4847H52.6906C51.4121 37.4847 50.2128 37.2536 49.104 36.7971C47.9952 36.3406 47.0448 35.6925 46.2358 34.8696C45.4269 34.058 44.7933 33.0717 44.3463 31.9558C43.8994 30.823 43.6675 29.6 43.6618 28.2925C43.6562 26.9849 43.8881 25.7281 44.352 24.5953C44.8046 23.4625 45.4495 22.4818 46.2754 21.6589C47.1014 20.8417 48.0687 20.1936 49.1832 19.7258C50.309 19.258 51.5026 19.027 52.7981 19.027C54.0879 19.0101 55.2986 19.2468 56.3961 19.7033C57.4935 20.1711 58.4439 20.8079 59.2529 21.6308C60.0619 22.4536 60.6955 23.4286 61.1424 24.5558C61.6006 25.6887 61.8213 26.9173 61.8382 28.2361C61.8382 29.5436 61.6119 30.7666 61.1481 31.8995V31.9051ZM82.8828 37.3663L82.6113 36.9775L78.7701 30.6934C78.6456 30.7046 78.5325 30.7046 78.4193 30.7046H77.9441C77.6556 30.7046 77.3671 30.7046 77.0673 30.699C76.841 30.699 76.6203 30.6877 76.3941 30.6821L76.4167 37.3889L73.0167 37.4002L72.9545 19.3031L73.1299 19.2806C73.8314 19.196 74.5555 19.1228 75.2966 19.0664C76.049 19.0044 76.8749 18.9762 77.7744 18.9762C79.0359 18.9762 80.1278 19.1115 81.0612 19.4102C81.9833 19.6976 82.747 20.0922 83.3693 20.605C83.9803 21.1179 84.4385 21.7209 84.7383 22.4198C85.0269 23.1074 85.1796 23.857 85.1796 24.6629C85.1796 25.8465 84.8854 26.8947 84.2688 27.8134C83.6918 28.6588 82.8885 29.3407 81.8589 29.8198L86.7183 37.3551L82.8771 37.3663H82.8828ZM102.326 37.3043L99.1245 37.3156H98.9265L98.8642 18.9086L102.264 18.8973L102.326 37.3043ZM127.246 37.2198L116.333 37.2536H116.135L116.073 18.8466L119.462 18.8353L119.513 34.1257L127.235 34.0975L127.246 37.2142V37.2198ZM149.88 37.1465L138.973 37.1804H138.77L138.707 18.7959L142.107 18.7846L142.158 34.0524L149.875 34.0242L149.886 37.1409L149.88 37.1465ZM173.176 37.0676H173.041L171.208 32.8069L164.527 32.8294L162.722 37.1071L159.192 37.1184L167.525 18.7057H167.661H168.221L176.644 37.062L173.176 37.0733V37.0676Z"></path>
<path fill="#C7C7C7" d="M80.7443 22.7521C80.1559 22.2505 79.3074 21.98 78.1929 21.98C77.8308 21.98 77.4801 21.98 77.152 22.0025C76.8861 22.0138 76.6259 22.042 76.377 22.0871V27.7174C76.5806 27.7399 76.8126 27.7568 77.0388 27.7681C77.3387 27.7794 77.6159 27.7906 77.9044 27.7906C79.1829 27.7906 80.1163 27.5032 80.716 26.9791C81.327 26.4437 81.6268 25.7335 81.6324 24.7641C81.6324 23.9187 81.3439 23.2706 80.7443 22.7577V22.7521Z"></path>
<path fill="#C7C7C7" d="M56.6735 23.6881C56.1869 23.1301 55.6212 22.713 54.948 22.4031C54.2861 22.0931 53.5564 21.9409 52.7474 21.9409C51.9384 21.9409 51.2087 22.0931 50.5298 22.4031C49.8566 22.713 49.2796 23.1357 48.8044 23.6881C48.3292 24.246 47.9445 24.8942 47.6786 25.655C47.4014 26.4159 47.2656 27.2387 47.2656 28.1236C47.2656 29.0084 47.4127 29.8312 47.6786 30.5808C47.9558 31.3417 48.3292 31.9898 48.8044 32.5365C49.2796 33.0832 49.8566 33.5059 50.5411 33.8215C51.2256 34.1427 51.9554 34.2949 52.7644 34.2949C53.5733 34.2949 54.3031 34.1315 54.965 33.8215C55.6495 33.5115 56.2152 33.0832 56.6904 32.5365C57.1656 31.9898 57.5446 31.3417 57.8162 30.5808C58.0821 29.8312 58.2292 29.0084 58.2179 28.1236C58.2179 27.2387 58.0708 26.4159 57.8049 25.655C57.5277 24.8942 57.1543 24.246 56.6791 23.6881H56.6735Z"></path>
<path fill="#C7C7C7" d="M165.675 30.2821H170.054L167.865 25.1421L165.675 30.2821Z"></path>
<path fill="#C7C7C7" d="M3.02639 65.1854L0.090332 73.8535H1.26702L1.9685 71.5822H5.04599L5.7701 73.8535H6.94679L4.01073 65.1854H3.02073H3.02639ZM3.5129 66.7127L4.75182 70.6579H2.27399L3.5129 66.7127ZM18.1366 65.1854L16.513 73.8535H14.6744L13.6109 68.7473L12.5587 73.8535H10.7088L9.08519 65.1854H10.9124L11.7723 70.6241L12.8472 65.1854H14.3859L15.4495 70.6353L16.315 65.1854H18.1366ZM25.3099 65.1854V71.1877C25.2986 72.095 25.044 72.7826 24.5235 73.256C24.0087 73.7407 23.2733 73.9718 22.3116 73.9718C21.3499 73.9718 20.5975 73.7238 20.077 73.2448C19.5622 72.7601 19.302 72.0669 19.302 71.1369V65.1741H21.1519V71.1369C21.1519 71.6273 21.2367 71.9823 21.4008 72.1909C21.5648 72.3994 21.8647 72.5065 22.3116 72.5065C22.7585 72.5065 23.047 72.3994 23.2111 72.1909C23.3751 71.9823 23.46 71.6385 23.46 71.1708V65.1797H25.3099V65.191V65.1854ZM33.0715 73.8535H31.2329L28.5458 68.1668V73.8535H26.7072V65.1854H28.5458L31.2442 70.872V65.1854H33.0715V73.8535ZM36.3866 66.6394V72.3938H36.9353C37.5463 72.3938 37.9819 72.2359 38.2251 71.9316C38.474 71.6273 38.6098 71.0975 38.6155 70.3366V68.8318C38.6155 68.0259 38.5023 67.4567 38.2647 67.141C38.0271 66.8254 37.6255 66.6507 37.0541 66.6394H36.3809H36.3866ZM34.548 73.8535V65.1854H36.9579C38.0215 65.1854 38.87 65.5123 39.498 66.1491C40.1259 66.786 40.4484 67.6765 40.471 68.798V70.207C40.471 71.3455 40.1486 72.2416 39.5206 72.8897C38.8927 73.5379 38.0215 73.8647 36.907 73.8647H34.5536V73.8535H34.548ZM46.4846 70.1056H43.622V72.405H47.0107V73.8591H41.7835V65.191H47.005V66.6451H43.6277V68.6909H46.4902V70.0999L46.4846 70.1056ZM50.1617 69.232H51.2083C51.5703 69.232 51.8475 69.1136 52.0342 68.8882C52.2209 68.6515 52.3114 68.3471 52.3114 67.9526C52.3114 67.0847 51.9494 66.6451 51.2366 66.6451H50.1617V69.232ZM51.0838 70.6861H50.173V73.8535H48.3231V65.1854H51.2592C52.1813 65.1854 52.8941 65.4108 53.3976 65.8617C53.9067 66.3126 54.15 66.9663 54.15 67.8005C54.15 68.9502 53.7031 69.7561 52.8262 70.2183L54.4159 73.7689V73.8478H52.4415L51.0782 70.6804L51.0838 70.6861ZM57.8102 65.1854L59.5243 71.4525L61.2384 65.1854H63.637V73.8535H61.7984V71.5033L61.9625 67.8906L60.1409 73.8535H58.8907L57.0691 67.8906L57.2331 71.5033V73.8422H55.3946V65.1741H57.8045V65.1854H57.8102ZM67.4726 70.6184H69.1754L68.3268 67.5299L67.4669 70.6184H67.4726ZM69.5827 72.0838H67.0709L66.5844 73.8535H64.644L67.4839 65.1854H69.1697L72.0322 73.8535H70.0692L69.5827 72.0838ZM79.2451 73.8535H77.4065L74.7194 68.1668V73.8535H72.8808V65.1854H74.7194L77.4178 70.872V65.1854H79.2451V73.8535ZM88.4323 66.6394H86.1807V73.8535H84.3422V66.6394H82.1189V65.1854H88.4323V66.6394ZM96.1316 73.8535H94.3044V70.145H91.589V73.8535H89.7504V65.1854H91.589V68.6853H94.3044V65.1854H96.1316V73.8535ZM102.168 68.8431C102.168 68.0653 102.055 67.4736 101.817 67.1016C101.579 66.7184 101.217 66.5324 100.731 66.5324C100.244 66.5324 99.8823 66.7184 99.6447 67.0847C99.4071 67.451 99.294 68.009 99.2827 68.7586V70.3028C99.2827 71.058 99.4071 71.6216 99.6447 71.9767C99.8823 72.343 100.244 72.5177 100.742 72.5177C101.24 72.5177 101.579 72.343 101.806 71.988C102.043 71.6329 102.157 71.0918 102.157 70.3535V68.8487H102.168V68.8431ZM104.018 70.2972C104.018 71.4582 103.729 72.3656 103.152 73.0024C102.575 73.6393 101.777 73.9662 100.742 73.9662C99.707 73.9662 98.9206 73.6506 98.3323 73.0137C97.7439 72.3768 97.4554 71.4864 97.4441 70.3366V68.8487C97.4441 67.6596 97.7326 66.7353 98.3096 66.0533C98.8867 65.3826 99.6956 65.0501 100.731 65.0501C101.766 65.0501 102.541 65.377 103.13 66.0364C103.707 66.6958 104.006 67.6088 104.018 68.8037V70.2972ZM107.746 65.1797L109.46 71.4469L111.174 65.1797H113.573V73.8478H111.734V71.4976L111.898 67.885L110.077 73.8478H108.826L107.005 67.885L107.169 71.4976V73.8366H105.33V65.1685H107.74V65.1797H107.746ZM116.893 69.3391H118.155C118.506 69.3391 118.777 69.232 118.97 69.0122C119.168 68.798 119.258 68.4824 119.258 68.0597C119.258 67.637 119.168 67.2819 118.97 67.0283C118.772 66.7747 118.517 66.6451 118.183 66.6338H116.905V69.3391H116.893ZM116.893 70.7931V73.8422H115.055V65.1741H118.155C119.054 65.1741 119.779 65.439 120.305 65.9688C120.842 66.4986 121.108 67.1861 121.108 68.0428C121.108 68.8995 120.842 69.5701 120.31 70.0605C119.779 70.5508 119.049 70.7988 118.11 70.7988H116.888V70.7875L116.893 70.7931ZM125.933 71.5709C125.933 71.2158 125.843 70.951 125.645 70.7762C125.458 70.6015 125.108 70.4099 124.61 70.2126C123.699 69.8858 123.037 69.4969 122.635 69.0516C122.234 68.6064 122.036 68.0879 122.036 67.4848C122.036 66.7578 122.307 66.166 122.85 65.7264C123.399 65.2812 124.078 65.067 124.927 65.067C125.487 65.067 125.979 65.1741 126.426 65.3995C126.861 65.625 127.201 65.9406 127.438 66.352C127.676 66.7634 127.789 67.2256 127.789 67.7497H125.962C125.962 67.3439 125.871 67.034 125.696 66.8254C125.509 66.6113 125.249 66.5098 124.91 66.5098C124.587 66.5098 124.344 66.6 124.157 66.786C123.982 66.9607 123.891 67.2087 123.891 67.513C123.891 67.7497 123.993 67.9639 124.191 68.1612C124.389 68.3584 124.751 68.5557 125.255 68.7642C126.143 69.0685 126.782 69.4405 127.189 69.8858C127.591 70.331 127.789 70.9002 127.789 71.5765C127.789 72.3318 127.54 72.9235 127.037 73.3462C126.533 73.7689 125.849 73.9831 124.977 73.9831C124.389 73.9831 123.852 73.8647 123.365 73.6393C122.879 73.4139 122.505 73.0813 122.228 72.653C121.962 72.219 121.815 71.7174 121.815 71.1369H123.665C123.665 71.6385 123.767 72.0049 123.976 72.2303C124.185 72.4557 124.514 72.5741 124.977 72.5741C125.617 72.5234 125.939 72.2021 125.939 71.5596L125.933 71.5709ZM133.31 68.8375C133.31 68.0597 133.197 67.4679 132.96 67.096C132.722 66.7127 132.36 66.5267 131.873 66.5267C131.387 66.5267 131.025 66.7127 130.787 67.0791C130.55 67.4454 130.437 68.0033 130.425 68.7529V70.2972C130.425 71.0524 130.55 71.616 130.787 71.9711C131.025 72.3374 131.387 72.5121 131.885 72.5121C132.383 72.5121 132.722 72.3374 132.948 71.9823C133.186 71.6273 133.299 71.0862 133.31 70.3479V68.8431V68.8375ZM135.149 70.2915C135.149 71.4525 134.86 72.3599 134.283 72.9968C133.706 73.6337 132.909 73.9605 131.873 73.9605C130.838 73.9605 130.052 73.6449 129.464 73.0081C128.875 72.3712 128.587 71.4807 128.575 70.331V68.8431C128.575 67.6539 128.864 66.7296 129.441 66.0477C130.018 65.377 130.827 65.0445 131.857 65.0445C132.886 65.0445 133.667 65.3714 134.255 66.0308C134.832 66.6902 135.132 67.6032 135.143 68.798V70.2915H135.149ZM142.837 73.8422H140.998L138.311 68.1555V73.8422H136.473V65.1741H138.311L141.01 70.8608V65.1741H142.837V73.8422ZM152.2 71.0862C152.149 72.0105 151.877 72.7319 151.374 73.2222C150.876 73.7126 150.174 73.9605 149.264 73.9605C148.353 73.9605 147.623 73.628 147.08 72.9686C146.542 72.3092 146.277 71.4131 146.277 70.2803V68.7078C146.277 67.575 146.554 66.6902 147.103 66.0308C147.651 65.3714 148.404 65.0445 149.365 65.0445C150.242 65.0445 150.927 65.2925 151.413 65.7941C151.9 66.2957 152.16 67.0114 152.2 67.9414H151.04C150.989 67.2312 150.831 66.7296 150.576 66.4253C150.316 66.1209 149.914 65.9744 149.377 65.9744C148.754 65.9744 148.279 66.2111 147.951 66.6733C147.623 67.1354 147.453 67.8117 147.453 68.7078V70.3028C147.453 71.1764 147.606 71.8471 147.917 72.3205C148.228 72.7939 148.681 73.0193 149.281 73.0193C149.88 73.0193 150.304 72.8841 150.57 72.5966C150.831 72.3092 150.995 71.8076 151.057 71.0806H152.194V71.0918L152.2 71.0862ZM158.524 68.7529C158.524 67.8399 158.372 67.158 158.049 66.7071C157.738 66.2618 157.251 66.0364 156.601 66.0364C155.95 66.0364 155.498 66.2618 155.175 66.7127C154.853 67.1636 154.689 67.8343 154.689 68.7078V70.2634C154.689 71.1482 154.853 71.8302 155.175 72.2923C155.498 72.7545 155.979 72.9912 156.623 72.9912C157.268 72.9912 157.738 72.777 158.049 72.3543C158.36 71.9203 158.513 71.2722 158.536 70.3874V68.7529H158.524ZM159.673 70.269C159.673 71.4525 159.407 72.3656 158.875 73.0024C158.349 73.6393 157.591 73.9549 156.623 73.9549C155.656 73.9549 154.938 73.6393 154.4 73.0193C153.851 72.3994 153.574 71.5258 153.552 70.3817V68.7473C153.552 67.5863 153.818 66.6789 154.361 66.0195C154.898 65.3601 155.65 65.0332 156.612 65.0332C157.574 65.0332 158.315 65.3488 158.852 65.98C159.39 66.6113 159.661 67.5074 159.678 68.674V70.2577H159.667L159.673 70.269ZM162.92 65.1741L165.296 72.2472L167.672 65.1741H169.148V73.8422H168V70.4663L168.102 67.0847L165.715 73.8422H164.838L162.473 67.1129L162.575 70.4663V73.8422H161.426V65.1741H162.914H162.92ZM172.005 69.5138H173.765C174.274 69.5138 174.664 69.3672 174.93 69.0798C175.202 68.7924 175.332 68.3697 175.332 67.8286C175.332 67.2876 175.185 66.8931 174.907 66.5775C174.63 66.2618 174.245 66.104 173.759 66.104H171.994V69.5081H172.005V69.5138ZM172.005 70.4493V73.8422H170.857V65.1741H173.759C174.608 65.1741 175.269 65.4108 175.756 65.9011C176.242 66.3858 176.48 67.0227 176.48 67.8286C176.48 68.6346 176.254 69.3053 175.79 69.7561C175.326 70.207 174.687 70.4324 173.849 70.455H172.011V70.4437L172.005 70.4493ZM178.568 70.6353H181.045L179.806 66.6902L178.568 70.6353ZM181.34 71.5709H178.262L177.561 73.8422H176.384L179.32 65.1741H180.304L183.24 73.8422H182.064L181.351 71.5709H181.34ZM190.425 73.8422H189.276L185.628 67.1636V73.8422H184.479V65.1741H185.628L189.288 71.8865V65.1741H190.425V73.8422ZM198.011 65.1741L195.426 70.6072V73.8422H194.277V70.6072L191.686 65.1741H192.988L194.849 69.5251L196.71 65.1741H198.011Z"></path>
</g>
<defs>
<clipPath id="clip0_2898_1213">
<rect fill="white" height="74" width="198"></rect>
</clipPath>
</defs>
</svg>
