<svg xmlns="http://www.w3.org/2000/svg" fill="none" viewBox="0 0 207 26" height="26" width="207">
<g clip-path="url(#clip0_2670_1628)">
<path fill="#C7C7C7" d="M104.193 12.1711C104.193 11.3937 104.184 10.6207 104.134 9.84326C104.058 8.60559 103.824 7.40813 103.384 6.25535C102.925 5.04896 102.282 3.95874 101.356 3.03831C100.816 2.50213 100.182 2.10447 99.5389 1.72021C98.7295 1.23765 97.8796 0.831055 96.9623 0.598712C96.036 0.36637 95.1006 0.165304 94.1429 0.102751C92.3712 -0.0134204 90.604 -0.0581016 88.8413 0.227858C87.7171 0.411051 86.6424 0.74616 85.6172 1.21978C84.5784 1.70681 83.6431 2.36809 82.7753 3.11873C82.492 3.36001 82.4695 3.37788 82.2357 3.14107C81.5342 2.43064 80.6888 1.91234 79.8254 1.44766C78.1842 0.567435 76.3855 0.178709 74.5463 0.0536014C73.2018 -0.035761 71.8528 -1.60378e-05 70.5038 0.102751C68.4758 0.263603 66.6052 0.862331 64.9055 1.97489C64.1455 2.47532 63.4351 3.02937 62.8865 3.77555C61.4835 5.69237 60.854 7.86835 60.791 10.1962C60.7281 12.542 60.7775 14.8922 60.7775 17.2425H60.755C60.755 18.7974 60.755 20.3523 60.755 21.9072C60.755 22.7472 60.7505 23.5872 60.7595 24.4272C60.7685 25.1242 61.1462 25.5219 61.8477 25.5934C61.9871 25.6068 62.131 25.6068 62.2704 25.6068C63.48 25.6068 64.6896 25.6068 65.8992 25.6068C66.0251 25.6068 66.151 25.6113 66.2769 25.5979C66.821 25.5398 67.4056 25.227 67.3786 24.4451C67.3696 24.1815 67.3831 23.9178 67.3831 23.6542C67.3831 19.8742 67.3921 16.0942 67.3786 12.3186C67.3786 11.3669 67.4731 10.4286 67.6574 9.49474C67.9857 7.83707 69.0154 6.76919 70.6162 6.30897C72.2935 5.82641 73.9977 5.8711 75.6705 6.3894C76.7092 6.7111 77.5456 7.33217 78.1347 8.2392C78.5169 8.83346 78.7148 9.51261 78.8542 10.2007C79.0295 11.072 79.043 11.9611 79.0475 12.8458C79.0655 16.4829 79.0565 20.1244 79.0565 23.7615C79.0565 24.0117 79.0475 24.2619 79.0655 24.5076C79.115 25.16 79.4792 25.5219 80.1402 25.5889C80.2796 25.6023 80.4235 25.6023 80.5629 25.6023C81.8489 25.6023 83.1395 25.6023 84.4255 25.6023C84.5514 25.6023 84.6773 25.6023 84.8033 25.5934C85.3833 25.5442 85.7431 25.2181 85.8735 24.6595C85.9229 24.4406 85.9184 24.2261 85.9184 24.0117C85.9184 20.044 85.9184 16.0808 85.9184 12.1131C85.9184 11.5233 85.9229 10.9335 86.0309 10.3482C86.1837 9.51708 86.3861 8.71282 86.9212 8.02026C87.6092 7.13111 88.504 6.56812 89.5832 6.28216C90.8243 5.95599 92.0879 5.90684 93.3604 6.0811C95.3525 6.35812 96.7464 7.46175 97.2321 9.44112C97.4974 10.5358 97.5963 11.6484 97.5963 12.7699C97.5963 16.5008 97.5963 20.2361 97.5963 23.967C97.5963 24.1859 97.5963 24.4004 97.5963 24.6193C97.5963 24.9276 97.7402 25.151 97.974 25.3342C98.2348 25.5353 98.5316 25.6023 98.8554 25.6023C100.191 25.6023 101.526 25.6023 102.857 25.6023C103.802 25.5979 104.188 25.2002 104.188 24.2529C104.188 20.2272 104.188 16.1969 104.188 12.1711H104.193Z"></path>
<path fill="#C7C7C7" d="M134.824 13.3239C134.819 11.9433 134.86 10.5626 134.671 9.182C134.464 7.66284 134.005 6.24198 133.214 4.93728C131.672 2.38152 129.279 1.04108 126.424 0.420013C124.918 0.0938399 123.389 -0.0133951 121.842 0.0178818C120.79 0.0402224 119.746 0.062563 118.699 0.201075C116.896 0.437885 115.236 1.02768 113.698 1.99726C112.826 2.54684 112.026 3.17238 111.414 3.98557C109.894 6.0141 109.202 8.32412 109.184 10.8307C109.166 12.9754 109.184 15.1246 109.184 17.2693H109.193C109.193 19.5078 109.193 21.7464 109.193 23.9894C109.193 24.177 109.188 24.3647 109.206 24.5479C109.26 25.1243 109.602 25.4862 110.178 25.58C110.348 25.6068 110.524 25.6068 110.695 25.6068C111.918 25.6068 113.145 25.6068 114.368 25.6068C114.508 25.6068 114.652 25.6068 114.791 25.5934C115.344 25.5309 115.695 25.2002 115.807 24.6596C115.857 24.4272 115.866 24.1994 115.866 23.9625C115.866 22.7651 115.866 21.5676 115.87 20.3702C115.87 19.7849 115.843 19.8206 116.441 19.8206C120.147 19.8206 123.852 19.8206 127.557 19.8206C127.634 19.8206 127.715 19.8206 127.791 19.8206C128.119 19.834 128.137 19.8429 128.137 20.1691C128.142 21.1342 128.137 22.0993 128.137 23.06C128.137 23.5113 128.119 23.9625 128.146 24.4138C128.187 25.1511 128.636 25.5711 129.383 25.5979C129.446 25.5979 129.509 25.5979 129.572 25.5979C130.844 25.5979 132.117 25.5979 133.385 25.5979C133.493 25.5979 133.605 25.5979 133.713 25.5889C134.383 25.5264 134.765 25.1332 134.801 24.4674C134.819 24.11 134.815 23.7525 134.815 23.3951C134.815 20.0351 134.824 16.675 134.815 13.3195L134.824 13.3239ZM127.849 14.1014C127.742 14.0969 127.629 14.1014 127.521 14.1014C125.682 14.1014 123.847 14.1014 122.008 14.1014C120.142 14.1014 118.272 14.1014 116.405 14.1014C116.374 14.1014 116.342 14.1014 116.311 14.1014C115.884 14.0969 115.879 14.0969 115.875 13.6501C115.875 13.2614 115.875 12.8727 115.875 12.4839C115.875 11.769 115.857 11.0541 115.987 10.3437C116.149 9.4769 116.401 8.65923 116.95 7.94433C117.323 7.4573 117.804 7.11773 118.317 6.82283C119.058 6.39836 119.881 6.19283 120.727 6.08559C121.604 5.97389 122.476 5.97389 123.353 6.08559C124.9 6.27325 126.226 6.85411 127.157 8.14093C127.584 8.73519 127.778 9.42328 127.948 10.1203C128.142 10.929 128.155 11.7512 128.151 12.5778C128.151 12.9799 128.146 13.3865 128.151 13.7886C128.155 14.0031 128.074 14.1103 127.849 14.1014Z"></path>
<path fill="#C7C7C7" d="M165.177 11.9388C165.127 10.2052 164.691 8.56537 163.904 7.02833C163.347 5.92917 162.596 4.973 161.656 4.13746C160.806 3.38234 159.884 2.77915 158.886 2.24297C157.883 1.70233 156.795 1.41637 155.711 1.12148C154.637 0.826579 153.535 0.63445 152.424 0.607641C149.285 0.527215 146.147 0.554024 143.008 0.5853C141.789 0.598705 140.872 1.24658 140.207 2.2251C139.726 2.93553 139.645 3.7666 139.645 4.59321C139.64 7.82813 139.645 11.0586 139.645 14.2935C139.645 17.5418 139.645 20.7901 139.645 24.0385C139.645 24.2261 139.645 24.4138 139.676 24.597C139.775 25.1957 140.184 25.5532 140.796 25.5934C140.985 25.6068 141.173 25.6023 141.362 25.6023C144.924 25.6023 148.485 25.6023 152.051 25.6023C152.77 25.6023 153.49 25.6023 154.209 25.5174C155.986 25.3119 157.69 24.9098 159.286 24.0787C161.328 23.0153 162.852 21.4559 163.877 19.4229C164.768 17.658 165.136 15.759 165.244 13.802C165.28 13.1809 165.199 12.5599 165.181 11.9388H165.177ZM158.076 15.9065C157.487 17.3854 156.462 18.4757 154.933 19.0565C154.092 19.3782 153.22 19.5391 152.316 19.5391C150.401 19.5391 148.49 19.5391 146.574 19.5391C146.115 19.5391 146.115 19.5346 146.111 19.0655C146.111 17.1218 146.111 15.1827 146.111 13.239C146.111 11.3133 146.111 9.3875 146.111 7.45727C146.111 7.35004 146.111 7.23833 146.111 7.1311C146.111 6.99706 146.187 6.9345 146.318 6.9345C146.394 6.9345 146.475 6.9345 146.551 6.9345C148.373 6.9345 150.189 6.9211 152.01 6.94791C153.292 6.96578 154.515 7.26067 155.675 7.83706C157.249 8.61452 158.112 9.89687 158.432 11.5545C158.715 13.029 158.63 14.5035 158.067 15.9065H158.076Z"></path>
<path fill="#C7C7C7" d="M30.339 18.6499C31.1889 21.3218 32.9471 23.2297 35.4248 24.4897C37.2189 25.4012 39.175 25.8212 41.176 25.9329C42.8623 26.0312 44.5575 26.0446 46.2483 25.8033C48.02 25.5487 49.7107 25.0929 51.28 24.2216C52.4312 23.5827 53.4429 22.7918 54.2434 21.7463C55.6508 19.901 56.3883 17.8322 56.3523 15.5043C56.3388 14.7269 56.3523 13.9494 56.3523 13.172H56.3433C56.3433 12.1622 56.3523 11.1524 56.3433 10.1426C56.3433 9.6913 56.2803 9.24449 56.1859 8.80215C55.7812 6.94787 55.0258 5.2768 53.6678 3.88721C52.7819 2.98018 51.7837 2.25188 50.6595 1.68443C49.6163 1.15719 48.5056 0.84442 47.3679 0.598673C46.4191 0.39314 45.4568 0.205479 44.4901 0.160797C42.9387 0.0893074 41.3919 0.0982436 39.8495 0.379735C37.9654 0.719313 36.1577 1.21527 34.5524 2.30996C33.2709 3.18125 32.1467 4.17764 31.3643 5.54488C30.4335 7.17575 29.8983 8.90044 29.8849 10.7771C29.8759 12.4258 29.8849 14.0745 29.8849 15.7188C29.8849 16.7197 30.0422 17.6937 30.348 18.6499H30.339ZM36.2791 11.072C36.3331 10.2141 36.522 9.37853 37.0121 8.64576C37.772 7.49299 38.8737 6.8183 40.1957 6.48319C41.7291 6.09 43.2805 5.98276 44.8543 6.25532C45.6772 6.3983 46.4821 6.56808 47.2375 6.93447C48.7709 7.68511 49.6522 8.90938 49.9355 10.5715C50.1784 11.9924 50.1694 13.4267 50.0839 14.8475C50.0255 15.8037 49.8141 16.7554 49.2296 17.5731C48.3887 18.7527 47.2195 19.4095 45.8076 19.6999C44.7104 19.9233 43.6087 20.0484 42.489 19.9859C41.5312 19.9322 40.5869 19.8161 39.6741 19.4944C37.8665 18.8644 36.7423 17.649 36.3691 15.7679C36.3061 15.4462 36.2611 15.1245 36.2656 14.7984C36.2656 14.2086 36.2656 13.6188 36.2656 13.0245C36.2656 12.3722 36.2342 11.7154 36.2746 11.0675L36.2791 11.072Z"></path>
<path fill="#C7C7C7" d="M206.474 15.826C206.289 15.7277 206.091 15.6964 205.884 15.6964C204.504 15.6964 203.124 15.6964 201.743 15.6964C201.424 15.6964 201.176 15.826 200.934 16.0182C200.578 16.2996 200.479 16.7152 200.309 17.095C199.863 18.078 199.189 18.8331 198.182 19.2933C197.354 19.6731 196.486 19.8384 195.596 19.9278C194.004 20.0886 192.435 20.0082 190.902 19.5122C189.719 19.1324 188.802 18.4041 188.163 17.3541C187.668 16.5365 187.502 15.616 187.48 14.6732C187.457 13.7394 187.48 12.8056 187.471 11.8762C187.471 11.3758 187.489 10.8843 187.579 10.3928C187.763 9.36959 188.132 8.44469 188.95 7.7566C189.539 7.26064 190.187 6.85404 190.938 6.6351C191.509 6.46531 192.084 6.33573 192.673 6.23744C194.189 5.98722 195.677 6.09892 197.147 6.48318C198.362 6.80042 199.342 7.4617 199.98 8.56533C200.201 8.94512 200.354 9.35172 200.506 9.75832C200.776 10.4822 201.325 10.7726 201.977 10.7592C203.2 10.7324 204.428 10.7502 205.651 10.7502C205.777 10.7502 205.902 10.7547 206.028 10.7458C206.64 10.6877 207.013 10.2722 207 9.66002C206.991 9.20874 206.883 8.76639 206.793 8.32852C206.15 5.20977 204.365 2.95783 201.514 1.52804C200.758 1.14824 199.935 0.906966 199.112 0.714837C197.368 0.312706 195.605 0.0803638 193.802 0.133981C191.922 0.187599 190.079 0.44675 188.311 1.06782C185.928 1.91229 183.941 3.28401 182.614 5.48679C181.611 7.1534 181.09 8.94959 181.076 10.8888C181.076 11.6796 181.076 12.4749 181.076 13.2658C181.076 14.1192 181.085 14.9771 181.076 15.8305C181.067 16.2862 181.112 16.7331 181.193 17.1754C181.8 20.5667 183.684 23.0242 186.787 24.5523C188.568 25.4325 190.492 25.8212 192.457 25.9419C194.508 26.0625 196.563 26.0044 198.595 25.6023C200.079 25.3074 201.455 24.7623 202.723 23.9759C204.491 22.8767 205.768 21.3576 206.447 19.3782C206.743 18.5069 206.964 17.6222 207 16.6973C207.018 16.2862 206.82 16.0226 206.474 15.8394V15.826Z"></path>
<path fill="#C7C7C7" d="M25.5636 10.509C25.5231 9.01217 25.2578 7.57344 24.6643 6.20172C23.7919 4.17766 22.3934 2.60935 20.4194 1.56381C18.4679 0.531678 16.3544 0.12061 14.1735 0.0446522C12.5592 -0.0134334 10.9449 -0.0536465 9.3396 0.214441C8.19295 0.40657 7.05529 0.634444 6.00756 1.15721C5.0093 1.65318 4.03802 2.19829 3.19264 2.92212C2.0325 3.91405 1.31303 5.20086 0.755442 6.58598C0.206847 7.93089 0 9.34281 0 10.786C0 12.9307 0 15.0754 0 17.2246C0 18.994 0 20.7678 0 22.5372C0 23.1895 0 23.8419 0.00899335 24.4942C0.0224834 25.1466 0.382217 25.5264 1.03873 25.5889C1.17813 25.6023 1.32202 25.5978 1.46142 25.5978C2.40123 25.5978 3.34553 25.5978 4.28533 25.5978C4.63158 25.5978 4.97782 25.5844 5.31957 25.5978C5.94461 25.6202 6.68206 25.0706 6.60562 24.3066C6.55615 23.7972 6.59662 23.2834 6.59662 22.7695C6.59662 19.2889 6.59662 15.8037 6.59662 12.3231C6.59662 11.3847 6.67756 10.4554 6.92938 9.55728C7.43301 7.73876 8.73255 6.7513 10.5042 6.27768C11.4081 6.0364 12.3254 5.97832 13.2562 6.00066C14.3264 6.023 15.3517 6.22853 16.296 6.71556C17.2223 7.19365 17.9327 7.89514 18.3374 8.8826C18.7781 9.95495 18.931 11.072 18.9355 12.2113C18.949 16.0673 18.9445 19.9233 18.949 23.7793C18.949 24.0429 18.9355 24.311 18.9625 24.5702C19.0209 25.1242 19.4032 25.504 19.9607 25.5844C20.0687 25.5978 20.1811 25.6023 20.289 25.6023C21.6245 25.6023 22.9555 25.6023 24.291 25.6023C24.4799 25.6023 24.6643 25.5889 24.8441 25.5219C25.4602 25.294 25.6176 24.8025 25.6131 24.2172C25.5726 19.6463 25.685 15.0754 25.5546 10.509H25.5636Z"></path>
<path fill="#C7C7C7" d="M176.35 1.54588C176.314 1.11694 176.094 0.826516 175.685 0.670132C175.473 0.589706 175.258 0.58077 175.037 0.576302C173.891 0.571833 172.748 0.571833 171.602 0.567365C171.305 0.567365 171.004 0.562897 170.707 0.576302C170.037 0.612046 169.664 0.956092 169.596 1.61291C169.574 1.7961 169.583 1.98376 169.583 2.17142C169.583 9.44552 169.583 16.7196 169.583 23.9937C169.583 24.1814 169.578 24.369 169.596 24.5522C169.65 25.1063 169.983 25.4637 170.532 25.571C170.64 25.5933 170.752 25.5978 170.86 25.5978C172.29 25.5978 173.715 25.6067 175.145 25.5978C175.982 25.5888 176.359 25.1822 176.368 24.3422C176.368 24.235 176.368 24.1233 176.368 24.0161C176.368 20.379 176.368 16.742 176.368 13.1049C176.368 9.45446 176.368 5.79954 176.368 2.14908C176.368 1.94801 176.377 1.74248 176.359 1.54142L176.35 1.54588Z"></path>
</g>
<defs>
<clipPath id="clip0_2670_1628">
<rect fill="white" height="26" width="207"></rect>
</clipPath>
</defs>
</svg>
