<svg xmlns="http://www.w3.org/2000/svg" fill="none" viewBox="0 0 389 52" height="52" width="389">
<g clip-path="url(#clip0_10022_31000)">
<path fill="#C7C7C7" d="M293.472 10.6438C295.585 10.6438 297.298 8.92192 297.298 6.79792C297.298 4.67393 295.585 2.95209 293.472 2.95209C291.359 2.95209 289.646 4.67393 289.646 6.79792C289.646 8.92192 291.359 10.6438 293.472 10.6438Z"></path>
<path fill="#C7C7C7" d="M117.094 16.6833C116.339 15.7354 115.396 14.9771 114.238 14.4083C113.079 13.8396 111.678 13.5417 110.034 13.5417C108.148 13.5417 106.532 13.9479 105.13 14.7604C103.729 15.5729 102.625 16.7646 101.789 18.3083C101.089 16.8729 100.092 15.7354 98.8254 14.8417C97.5321 13.975 95.9154 13.5417 93.9754 13.5417C92.9785 13.5417 92.0354 13.6771 91.2001 13.9479C90.3649 14.2188 89.6374 14.5708 88.9907 15.0313C88.344 15.4917 87.8051 15.9792 87.3201 16.5479C86.8621 17.1167 86.4849 17.7125 86.1885 18.3354H86.0807V14.3H80.126V39.4604H86.3771V25.6208C86.3771 24.7813 86.4849 23.9417 86.7274 23.1292C86.9429 22.3167 87.2932 21.5854 87.7243 20.9625C88.1554 20.3396 88.7213 19.825 89.4218 19.4188C90.1224 19.0125 90.9307 18.8229 91.8738 18.8229C93.4635 18.8229 94.649 19.3375 95.4035 20.3667C96.1579 21.3958 96.5351 22.6958 96.5351 24.2667V39.4604H102.786V25.7292C102.786 24.9167 102.894 24.1042 103.11 23.2917C103.325 22.4792 103.648 21.7208 104.107 21.0708C104.565 20.4208 105.13 19.8792 105.831 19.4458C106.532 19.0396 107.367 18.8229 108.337 18.8229C109.307 18.8229 110.142 19.0396 110.762 19.4458C111.382 19.8521 111.84 20.3938 112.19 21.0438C112.54 21.6938 112.756 22.425 112.863 23.2104C112.971 24.0229 113.025 24.7813 113.025 25.5125V39.4604H119.276V23.7521C119.276 22.4521 119.115 21.2063 118.764 19.9875C118.414 18.7688 117.875 17.6854 117.121 16.7375L117.094 16.6833Z"></path>
<path fill="#C7C7C7" d="M143.93 16.9542C143.095 15.9521 141.964 15.1125 140.509 14.4896C139.054 13.8667 137.221 13.5417 135.012 13.5417C133.099 13.5417 131.213 13.8667 129.354 14.5438C127.494 15.2208 125.851 16.1958 124.423 17.5229L127.656 21.3417C128.464 20.5292 129.461 19.8521 130.674 19.3104C131.886 18.7417 133.153 18.4708 134.473 18.4708C136.036 18.4708 137.383 18.85 138.515 19.6083C139.646 20.3667 140.212 21.5313 140.212 23.1021V23.725C138.272 23.725 136.278 23.8333 134.23 24.0229C132.21 24.2125 130.35 24.6188 128.68 25.2146C127.009 25.8104 125.635 26.6771 124.584 27.7875C123.534 28.8979 122.995 30.4146 122.995 32.2833C122.995 33.7458 123.291 34.9917 123.911 35.9667C124.53 36.9688 125.285 37.7542 126.201 38.3771C127.117 39 128.141 39.4333 129.219 39.6771C130.324 39.9479 131.374 40.0833 132.371 40.0833C134.15 40.0833 135.712 39.7313 137.114 39C138.515 38.2958 139.512 37.375 140.131 36.2375H140.293V39.4333H146.14V24.1313C146.14 22.8854 145.978 21.6125 145.655 20.3667C145.332 19.1208 144.739 17.9833 143.904 16.9542H143.93ZM140.212 28.8438C140.212 30.8479 139.646 32.4188 138.542 33.5563C137.437 34.7208 135.793 35.2896 133.638 35.2896C133.126 35.2896 132.587 35.2354 132.075 35.1271C131.563 35.0188 131.078 34.8563 130.674 34.6125C130.27 34.3688 129.919 34.0438 129.65 33.6375C129.38 33.2313 129.246 32.7438 129.246 32.1479C129.246 31.2 129.569 30.4688 130.189 29.9271C130.809 29.3854 131.59 28.9792 132.533 28.6813C133.476 28.3833 134.5 28.1938 135.605 28.1125C136.709 28.0313 137.787 27.9771 138.784 27.9771H140.185V28.8708L140.212 28.8438Z"></path>
<path fill="#C7C7C7" d="M164.489 13.5417C162.819 13.5417 161.364 14.0021 160.097 14.8958C158.858 15.8167 157.861 16.9813 157.187 18.4708H157.079V14.2729H151.071V39.4333H157.322V25.9729C157.322 25.5125 157.403 24.9167 157.591 24.1313C157.753 23.3729 158.103 22.6146 158.588 21.8833C159.073 21.1521 159.747 20.5292 160.609 19.9875C161.471 19.4729 162.63 19.2021 164.058 19.2021C164.327 19.2021 164.624 19.2021 164.92 19.2563C165.217 19.2833 165.567 19.3646 165.998 19.4729V13.7042C165.782 13.6229 165.54 13.5958 165.271 13.5688C165.001 13.5688 164.732 13.5688 164.489 13.5688V13.5417Z"></path>
<path fill="#C7C7C7" d="M193.832 14.2729H185.802L176.291 24.8625H176.156V0.920837H169.878V39.4333H176.156V26.5417H176.291L186.206 39.4333H194.505L182.973 25.6479L193.832 14.2729Z"></path>
<path fill="#C7C7C7" d="M215.199 16.9813C214.121 15.8438 212.854 14.9771 211.372 14.4083C209.89 13.8396 208.301 13.5417 206.549 13.5417C204.663 13.5417 202.939 13.8667 201.322 14.5167C199.705 15.1667 198.304 16.0604 197.119 17.2521C195.933 18.4167 195.017 19.825 194.317 21.5042C193.643 23.1563 193.293 24.9979 193.293 27.0292C193.293 29.0604 193.643 30.9292 194.317 32.5542C194.99 34.1792 195.933 35.5604 197.119 36.6708C198.331 37.7813 199.732 38.6479 201.376 39.2708C203.02 39.8938 204.798 40.1917 206.738 40.1917C211.426 40.1917 215.01 38.5125 217.489 35.1542L213.312 31.7958C212.612 32.7979 211.723 33.6104 210.645 34.1792C209.567 34.7479 208.247 35.0458 206.684 35.0458C205.768 35.0458 204.906 34.8833 204.071 34.5854C203.235 34.2604 202.481 33.8542 201.834 33.3125C201.16 32.7708 200.649 32.1208 200.244 31.3625C199.84 30.6042 199.598 29.7917 199.544 28.8708H218.567C218.594 28.6 218.62 28.3021 218.62 28.0313V27.1917C218.62 24.9167 218.324 22.9396 217.704 21.2333C217.085 19.5271 216.249 18.1188 215.172 16.9813H215.199ZM199.544 24.3479C199.679 22.5604 200.406 21.0979 201.699 19.9604C202.993 18.8229 204.582 18.2542 206.469 18.2542C207.466 18.2542 208.355 18.4167 209.109 18.7417C209.864 19.0667 210.483 19.5271 210.968 20.0688C211.453 20.6375 211.804 21.2604 212.046 22.0188C212.262 22.75 212.396 23.5083 212.396 24.3208H199.571L199.544 24.3479Z"></path>
<path fill="#C7C7C7" d="M235.272 14.2458H229.021V6.9875H222.878V31.0375C222.878 32.2563 222.985 33.3938 223.228 34.4771C223.444 35.5333 223.875 36.4813 224.467 37.2938C225.087 38.1063 225.895 38.7563 226.946 39.2438C227.997 39.7042 229.344 39.9479 231.015 39.9479C231.715 39.9479 232.443 39.8938 233.197 39.7583C233.952 39.6229 234.706 39.4333 235.272 39.2167V34.2875C234.868 34.45 234.167 34.6396 233.682 34.7208C233.197 34.8021 232.739 34.8563 232.335 34.8563C230.934 34.8563 230.045 34.4771 229.641 33.7458C229.237 33.0146 229.048 32.0938 229.048 30.9563V19.2833H235.272V14.2188V14.2458Z"></path>
<path fill="#C7C7C7" d="M263.725 17.3604C262.648 16.1688 261.354 15.2479 259.872 14.5438C258.39 13.8667 256.747 13.5146 254.969 13.5146C253.81 13.5146 252.786 13.65 251.897 13.9208C250.981 14.1917 250.199 14.5167 249.526 14.8958C248.852 15.275 248.259 15.7083 247.774 16.1417C247.289 16.6021 246.885 17.0354 246.589 17.4417H246.427V0.920837H240.176V39.4062H246.131V35.6417H246.239C247.101 37.1042 248.313 38.2146 249.849 39C251.385 39.7583 253.055 40.1646 254.834 40.1646C256.747 40.1646 258.471 39.8125 259.98 39.0812C261.489 38.3771 262.782 37.4021 263.833 36.2104C264.884 35.0187 265.719 33.5833 266.285 31.9583C266.851 30.3333 267.147 28.6 267.147 26.7313C267.147 24.8625 266.851 23.1562 266.258 21.5312C265.665 19.9333 264.83 18.525 263.752 17.3333L263.725 17.3604ZM260.33 29.6833C260.034 30.6583 259.603 31.525 259.01 32.3104C258.417 33.0688 257.663 33.7188 256.774 34.2062C255.858 34.6937 254.807 34.9375 253.594 34.9375C252.436 34.9375 251.412 34.6938 250.523 34.2333C249.607 33.7729 248.852 33.15 248.205 32.3646C247.559 31.6062 247.074 30.7396 246.75 29.7646C246.427 28.8167 246.265 27.8417 246.265 26.8667C246.265 25.8917 246.427 24.9167 246.75 23.9417C247.074 22.9667 247.559 22.1 248.205 21.3146C248.852 20.5563 249.634 19.9063 250.523 19.4188C251.439 18.9313 252.463 18.6875 253.594 18.6875C254.807 18.6875 255.858 18.9313 256.774 19.3917C257.69 19.8521 258.417 20.475 259.01 21.2604C259.603 22.0188 260.034 22.8854 260.33 23.8604C260.627 24.8083 260.762 25.7833 260.762 26.7583C260.762 27.7333 260.627 28.7083 260.33 29.6833Z"></path>
<path fill="#C7C7C7" d="M284.769 13.5417C283.098 13.5417 281.643 14.0021 280.377 14.8958C279.138 15.8167 278.141 16.9813 277.467 18.4708H277.359V14.2729H271.351V39.4333H277.602V25.9729C277.602 25.5125 277.683 24.9167 277.871 24.1313C278.033 23.3729 278.383 22.6146 278.868 21.8833C279.353 21.1521 280.027 20.5292 280.889 19.9875C281.751 19.4729 282.91 19.2021 284.338 19.2021C284.607 19.2021 284.904 19.2021 285.2 19.2563C285.496 19.2833 285.847 19.3646 286.278 19.4729V13.7042C286.062 13.6229 285.82 13.5958 285.55 13.5688C285.281 13.5688 285.011 13.5688 284.769 13.5688V13.5417Z"></path>
<path fill="#C7C7C7" d="M296.598 14.2729H290.346V39.4333H296.598V14.2729Z"></path>
<path fill="#C7C7C7" d="M321.413 17.4688H321.252C320.928 17.0625 320.551 16.6021 320.039 16.1688C319.554 15.7083 318.961 15.3021 318.288 14.9229C317.614 14.5438 316.806 14.2188 315.917 13.9479C315.001 13.6771 313.977 13.5417 312.845 13.5417C311.067 13.5417 309.45 13.8938 307.941 14.5708C306.459 15.2479 305.166 16.1958 304.088 17.3875C303.01 18.5792 302.175 19.9604 301.582 21.5854C300.989 23.1833 300.693 24.9167 300.693 26.7854C300.693 28.6542 300.99 30.3875 301.555 32.0125C302.121 33.6375 302.956 35.0458 304.007 36.2646C305.058 37.4833 306.351 38.4313 307.86 39.1354C309.369 39.8396 311.094 40.2188 313.007 40.2188C314.785 40.2188 316.429 39.8396 317.991 39.0542C319.527 38.2958 320.74 37.1583 321.602 35.6958H321.71V39.4604H327.664V0.920837H321.413V17.4688ZM321.117 29.7646C320.794 30.7125 320.309 31.5792 319.662 32.3646C319.015 33.1229 318.234 33.7458 317.345 34.2333C316.429 34.6938 315.405 34.9375 314.273 34.9375C313.061 34.9375 311.983 34.6938 311.094 34.2063C310.178 33.7188 309.45 33.0958 308.857 32.3104C308.265 31.5521 307.833 30.6583 307.537 29.6833C307.241 28.7083 307.106 27.7333 307.106 26.7583C307.106 25.7833 307.241 24.8083 307.537 23.8604C307.833 22.9125 308.265 22.0458 308.857 21.2604C309.45 20.5021 310.205 19.8792 311.094 19.3917C312.01 18.9313 313.061 18.6875 314.273 18.6875C315.432 18.6875 316.456 18.9313 317.345 19.4188C318.261 19.9063 319.015 20.5292 319.662 21.3146C320.309 22.0729 320.794 22.9667 321.117 23.9417C321.44 24.9167 321.602 25.8917 321.602 26.8667C321.602 27.8417 321.44 28.8167 321.117 29.7646Z"></path>
<path fill="#C7C7C7" d="M352.777 18.0375H352.669C351.753 16.4938 350.54 15.3563 349.031 14.625C347.496 13.8938 345.852 13.5146 344.074 13.5146C342.188 13.5146 340.49 13.8667 338.981 14.5708C337.472 15.275 336.179 16.2229 335.128 17.3875C334.077 18.5792 333.242 19.9604 332.676 21.5854C332.11 23.1833 331.814 24.9167 331.814 26.7313C331.814 28.5458 332.11 30.1979 332.703 31.7958C333.296 33.3938 334.131 34.775 335.182 35.9667C336.233 37.1583 337.526 38.1063 339.062 38.7833C340.598 39.4875 342.295 39.8396 344.181 39.8396C345.906 39.8396 347.496 39.5146 348.897 38.8646C350.298 38.2146 351.456 37.2667 352.373 36.0208H352.48V37.8625C352.48 39.1354 352.346 40.2729 352.076 41.3292C351.807 42.3854 351.376 43.2792 350.783 44.0646C350.163 44.8229 349.355 45.4458 348.331 45.8792C347.307 46.3125 346.041 46.5292 344.559 46.5292C343.077 46.5292 341.46 46.2313 339.924 45.6083C338.388 44.9854 337.014 44.1188 335.802 42.9542L332.218 47.8292C333.026 48.4792 333.916 49.075 334.94 49.6167C335.936 50.1313 336.987 50.5646 338.092 50.9167C339.197 51.2688 340.301 51.5396 341.433 51.7021C342.565 51.8646 343.643 51.9729 344.64 51.9729C347.065 51.9729 349.166 51.6208 350.945 50.9167C352.723 50.2125 354.178 49.2375 355.336 47.9646C356.495 46.6917 357.357 45.1479 357.923 43.3063C358.489 41.4646 358.758 39.4063 358.758 37.1583V14.2729H352.804V18.0375H352.777ZM352.238 29.6833C351.888 30.6313 351.403 31.4979 350.756 32.2292C350.109 32.9604 349.328 33.5563 348.412 33.9896C347.496 34.4229 346.445 34.6396 345.313 34.6396C344.181 34.6396 343.211 34.4229 342.322 33.9625C341.433 33.5021 340.679 32.9063 340.086 32.1479C339.466 31.3896 339.008 30.55 338.685 29.6021C338.361 28.6542 338.2 27.6792 338.2 26.6771C338.2 25.5667 338.361 24.5104 338.685 23.5354C339.008 22.5604 339.493 21.7208 340.086 20.9896C340.706 20.2854 341.433 19.7167 342.322 19.2833C343.211 18.8771 344.235 18.6604 345.367 18.6604C346.499 18.6604 347.55 18.8771 348.439 19.2833C349.355 19.6896 350.109 20.2854 350.756 21.0167C351.403 21.7479 351.888 22.5875 352.238 23.5625C352.588 24.5375 352.75 25.5667 352.75 26.65C352.75 27.7333 352.588 28.7083 352.238 29.6563V29.6833Z"></path>
<path fill="#C7C7C7" d="M387.212 21.2333C386.592 19.5271 385.757 18.1188 384.679 16.9813C383.601 15.8438 382.335 14.9771 380.853 14.4083C379.371 13.8396 377.781 13.5417 376.03 13.5417C374.144 13.5417 372.419 13.8667 370.803 14.5167C369.186 15.1667 367.785 16.0604 366.599 17.2521C365.414 18.4167 364.498 19.825 363.797 21.5042C363.123 23.1563 362.773 24.9979 362.773 27.0292C362.773 29.0604 363.123 30.9292 363.797 32.5542C364.471 34.1792 365.414 35.5604 366.599 36.6708C367.812 37.7813 369.213 38.6479 370.857 39.2708C372.5 39.8938 374.278 40.1917 376.218 40.1917C380.907 40.1917 384.49 38.5125 386.969 35.1542L382.793 31.7958C382.092 32.7979 381.203 33.6104 380.125 34.1792C379.048 34.7479 377.727 35.0458 376.165 35.0458C375.248 35.0458 374.386 34.8833 373.551 34.5854C372.716 34.2604 371.961 33.8542 371.315 33.3125C370.641 32.7708 370.129 32.1208 369.725 31.3625C369.321 30.6042 369.078 29.7917 369.024 28.8708H388.047C388.074 28.6 388.101 28.3021 388.101 28.0313V27.1917C388.101 24.9167 387.805 22.9396 387.185 21.2333H387.212ZM369.051 24.3479C369.186 22.5604 369.913 21.0979 371.207 19.9604C372.5 18.8229 374.09 18.2542 375.976 18.2542C376.973 18.2542 377.862 18.4167 378.617 18.7417C379.371 19.0667 379.991 19.5271 380.476 20.0688C380.961 20.6375 381.311 21.2604 381.553 22.0188C381.769 22.75 381.904 23.5083 381.904 24.3208H369.078L369.051 24.3479Z"></path>
<path fill="#C7C7C7" d="M60.9956 0C59.2442 0 57.6276 0.704167 56.4959 1.86875C55.3373 3.03333 54.6367 4.63125 54.6367 6.39167V33.7729C54.6367 37.3208 57.4928 40.1917 61.0226 40.1917C64.5523 40.1917 67.4084 37.3208 67.4084 33.7729V6.41875C67.3814 2.87083 64.5253 0 60.9956 0Z"></path>
<path fill="#C7C7C7" d="M60.9952 0C59.2438 0 57.6541 0.704167 56.4955 1.86875L29.2547 29.25C28.0961 30.4146 27.3955 32.0125 27.3955 33.8C27.3955 37.3479 30.2516 40.2188 33.7813 40.2188C35.5327 40.2188 37.1494 39.5146 38.2811 38.35L65.5219 10.9688C66.6805 9.80417 67.3811 8.20625 67.3811 6.41875C67.3811 2.87083 64.525 0 60.9952 0Z"></path>
<path fill="#C7C7C7" d="M33.7544 0C32.003 0 30.3863 0.704167 29.2547 1.86875C28.0961 3.03333 27.3955 4.63125 27.3955 6.39167V33.8C27.3955 37.3479 30.2516 40.2188 33.7813 40.2188C35.5327 40.2188 37.1494 39.5146 38.2811 38.35C39.4397 37.1854 40.1402 35.5875 40.1402 33.8271V6.41875C40.1402 2.87083 37.2841 0 33.7544 0Z"></path>
<path fill="#C7C7C7" d="M33.7546 0C32.0032 0 30.3865 0.704167 29.2549 1.86875L1.9871 29.2771C0.828485 30.4417 0.12793 32.0396 0.12793 33.8C0.12793 37.3479 2.98404 40.2188 6.51376 40.2188C8.2921 40.2188 9.88182 39.5146 11.0404 38.3229L38.2813 10.9688C39.4399 9.80417 40.1404 8.20625 40.1404 6.41875C40.1404 2.87083 37.2843 0 33.7546 0Z"></path>
<path fill="#C7C7C7" d="M40.1402 6.41875C40.1402 8.20625 39.4397 9.80417 38.2811 10.9688L27.3955 21.9104V6.41875C27.3955 4.65833 28.0961 3.06042 29.2547 1.89583C30.3863 0.704167 32.003 0 33.7544 0C37.2841 0 40.1402 2.87083 40.1402 6.41875Z"></path>
<path fill="#C7C7C7" d="M27.3687 33.8271C27.3687 32.0396 28.0692 30.4417 29.2278 29.2771L40.1134 18.3354V33.8271C40.1134 35.5875 39.4128 37.1854 38.2542 38.35C37.0956 39.5146 35.5059 40.2188 33.7545 40.2188C30.2248 40.2188 27.3687 37.3479 27.3687 33.8V33.8271Z"></path>
<path fill="#C7C7C7" d="M67.3814 6.41875C67.3814 8.20625 66.6809 9.80417 65.5223 10.9688L54.6367 21.9104V6.41875C54.6367 4.65833 55.3373 3.06042 56.4959 1.89583C57.6545 0.704167 59.2442 0 60.9956 0C64.5253 0 67.3814 2.87083 67.3814 6.41875Z"></path>
</g>
<defs>
<clipPath id="clip0_10022_31000">
<rect transform="translate(0.12793)" fill="white" height="52" width="388"></rect>
</clipPath>
</defs>
</svg>
