<svg xmlns="http://www.w3.org/2000/svg" fill="none" viewBox="0 0 220 50" height="50" width="220">
<path fill="#C7C7C7" d="M78.8977 27.376C78.8977 32.9824 75.7627 38.0028 69.2782 38.0028C63.2722 38.0028 59.8677 33.3586 59.8677 27.5212C59.8677 21.6837 63.2447 17.0396 69.4872 17.0396C75.2842 17.0396 78.8977 21.3881 78.8977 27.376ZM62.1062 27.4352C62.1062 31.9879 64.6142 36.1645 69.3662 36.1645C74.5032 36.1645 76.6262 32.0471 76.6262 27.4352C76.6262 22.8233 74.2337 18.8779 69.3992 18.8779C64.5647 18.8779 62.1117 22.9361 62.1117 27.4352H62.1062Z"></path>
<path fill="#C7C7C7" d="M88.5498 17.3296H96.2278C100.144 17.3296 102.828 19.4635 102.828 23.1079C102.828 26.7523 100.078 29.0636 96.0188 29.0636H90.7003V37.7069H88.5498V17.3296ZM90.7003 27.2253H96.0463C99.1813 27.2253 100.589 25.6504 100.589 23.167C100.589 20.6837 98.7963 19.1357 96.1673 19.1357H90.7003V27.2253Z"></path>
<path fill="#C7C7C7" d="M117.018 19.1733H110.148V17.335H126.071V19.1733H119.168V37.7123H117.018V19.1733Z"></path>
<path fill="#C7C7C7" d="M136.438 17.3296V37.7069H134.315V17.3296H136.438Z"></path>
<path fill="#C7C7C7" d="M165.539 28.6605C165.539 24.7473 165.567 20.9256 165.66 18.8239H165.572C164.703 21.8286 160.853 31.289 158.312 37.7123H156.338C154.424 32.6327 150.453 22.0651 149.496 18.7916H149.435C149.584 21.1298 149.644 25.8009 149.644 29.2733V37.7123H147.582V17.335H150.777C153.406 24.0217 156.69 32.7241 157.438 35.143H157.498C157.977 33.4498 161.799 23.8443 164.516 17.335H167.624V37.7123H165.534V28.6605H165.539Z"></path>
<path fill="#C7C7C7" d="M180.4 32.6435L178.503 37.7123H176.352L183.909 17.335H186.511L194.37 37.7123H192.071L190.152 32.6435H180.406H180.4ZM189.497 30.7729C187.314 25.0215 185.614 20.63 185.196 19.1679H185.169C184.663 20.802 182.809 25.8654 181.071 30.7729H189.497Z"></path>
<path fill="#C7C7C7" d="M203.093 17.3296H210.265C216.029 17.3296 220.005 21.2427 220.005 27.3167C220.005 33.3907 216.122 37.7123 210.204 37.7123H203.093V17.335V17.3296ZM205.216 35.8686H209.968C215.198 35.8686 217.734 32.2457 217.734 27.4027C217.734 23.1402 215.435 19.1679 209.968 19.1679H205.216V35.8686Z"></path>
<path fill="#C7C7C7" d="M52.14 0L36.4485 8.43367C32.7085 5.92883 28.182 4.46141 23.3035 4.46141C10.4335 4.46141 0 14.6528 0 27.2307C0 39.8086 10.4335 50 23.298 50C36.1625 50 46.596 39.8033 46.596 27.2307C46.596 22.2909 44.979 17.7166 42.24 13.9862L52.14 0ZM23.3035 42.4479C14.7015 42.4479 7.7275 35.6321 7.7275 27.2253C7.7275 18.8185 14.7015 12.0028 23.3035 12.0028C25.8115 12.0028 28.1765 12.5833 30.272 13.61L19.767 27.5156L36.4485 19.0658C37.983 21.4255 38.8795 24.2206 38.8795 27.2253C38.8795 35.6321 31.9055 42.4479 23.3035 42.4479Z"></path>
</svg>
