<svg xmlns="http://www.w3.org/2000/svg" fill="none" viewBox="0 0 241 36" height="36" width="241">
<g clip-path="url(#clip0_2898_1226)">
<path fill="#C7C7C7" d="M140.276 9.36444C139.698 8.32545 139.071 7.28646 138.307 6.38509C137.487 5.42178 136.509 4.5961 135.552 3.76353C133.934 2.35298 131.992 1.486 129.975 0.839214C128.15 0.261233 126.25 -0.0346387 124.329 -0.000235057C123.392 0.0135264 122.456 0.164903 121.519 0.23371C119.578 0.378205 117.794 1.05252 116.059 1.8438C115.37 2.16032 114.764 2.63509 114.103 3.01353C111.976 4.23142 110.378 5.99976 109.035 7.9883C108.099 9.3782 107.39 10.892 106.887 12.5021C106.384 14.1122 106.143 15.7704 106.088 17.4424C106.061 18.3782 106.185 19.314 106.247 20.2498C106.378 22.1213 106.915 23.8828 107.686 25.5892C108.76 27.9631 110.344 29.9447 112.32 31.6374C113.587 32.7245 114.978 33.6122 116.5 34.2727C117.863 34.8713 119.268 35.408 120.783 35.5319C121.388 35.58 121.988 35.6901 122.593 35.7727C123.02 35.8346 123.44 35.9241 123.874 35.9722C124.7 36.0686 125.485 35.7727 126.284 35.6901C127.427 35.5663 128.543 35.4218 129.651 35.0915C131.104 34.6649 132.461 34.0456 133.762 33.2956C135.511 32.2911 137.04 30.9906 138.293 29.4218C139.023 28.5135 139.725 27.564 140.269 26.5388C140.937 25.2658 141.495 23.931 141.839 22.5135C142.238 20.8759 142.486 19.2245 142.534 17.525C142.342 16.2727 142.197 15.0066 141.949 13.7681C141.639 12.2131 141.054 10.7406 140.29 9.36444H140.276ZM135.807 18.8048C135.78 19.7131 135.628 20.6351 135.38 21.5089C134.878 23.3048 134.051 24.9355 132.771 26.353C130.657 28.6993 128.068 29.9103 124.928 29.9654C123.73 29.986 122.531 29.9791 121.347 29.7245C119.722 29.3736 118.297 28.5892 117.023 27.564C114.999 25.9401 113.745 23.7865 113.029 21.3163C112.871 20.7796 112.761 20.2222 112.712 19.6718C112.657 19.0388 112.699 18.3988 112.699 17.7589C112.582 15.8392 112.967 14.0021 113.828 12.2956C114.723 10.5135 115.907 8.92408 117.615 7.82316C118.614 7.17637 119.688 6.68784 120.844 6.33692C121.657 6.09609 122.47 5.85527 123.296 5.84839C124.749 5.83463 126.202 5.84839 127.62 6.35068C128.866 6.79793 130.044 7.31399 131.125 8.09839C132.151 8.84839 132.963 9.78417 133.686 10.7888C134.685 12.1855 135.243 13.7681 135.601 15.4677C135.835 16.5892 135.842 17.6833 135.807 18.791V18.8048Z"></path>
<path fill="#C7C7C7" d="M62.7773 29.6766C62.4536 29.6628 62.1231 29.6421 61.7995 29.6421C55.9191 29.6421 50.0318 29.6421 44.1514 29.6421C43.8278 29.6421 43.5042 29.6215 43.1392 29.6077V20.6628H62.7773C62.8117 20.4632 62.853 20.3394 62.853 20.2224C62.853 18.6674 62.8668 17.1055 62.853 15.5504C62.853 15.0275 62.7428 14.9311 62.2264 14.8967C62.0749 14.883 61.9165 14.8967 61.7651 14.8967C55.7401 14.8967 49.7219 14.9036 43.6969 14.9036C43.5041 14.9036 43.3114 14.8761 43.1254 14.8623C42.9877 12.2958 43.0428 7.02518 43.2287 6.34398H44.1996C50.1351 6.34398 56.0637 6.34398 61.9992 6.34398C62.8461 6.34398 62.853 6.33022 62.853 5.48389C62.853 4.15591 62.853 2.82793 62.853 1.49995C62.853 1.25224 62.8255 1.00453 62.8048 0.694902C62.4743 0.68114 62.2058 0.653617 61.9303 0.653617C53.874 0.653617 45.8177 0.653617 37.7683 0.653617C37.5893 0.653617 37.3896 0.612333 37.2382 0.67426C37.0798 0.743067 36.9145 0.887562 36.8388 1.04582C36.7699 1.1972 36.8112 1.39674 36.8112 1.57564C36.8112 5.29123 36.8112 9.00683 36.8112 12.7224C36.8112 15.9288 36.7837 19.1353 36.7837 22.3417C36.7837 26.2843 36.7975 30.2339 36.8044 34.1765C36.8044 35.3256 36.8044 35.3256 37.9474 35.3256C45.9004 35.3256 53.8534 35.3256 61.8064 35.3256C61.9579 35.3256 62.1162 35.3256 62.2677 35.3256C62.7704 35.2981 62.8461 35.2431 62.8461 34.7339C62.8599 33.1788 62.8461 31.6169 62.8461 30.0619C62.8461 29.9655 62.8048 29.8692 62.7635 29.7041L62.7773 29.6766Z"></path>
<path fill="#C7C7C7" d="M231.043 20.6491H240.897C241.076 19.3968 241.014 15.461 240.807 14.8899C237.557 14.8899 234.294 14.8899 231.03 14.8899C227.752 14.8899 224.475 14.8899 221.211 14.883V6.33715H222.23C228.138 6.33715 234.046 6.33715 239.954 6.33715C240.277 6.33715 240.594 6.30274 240.938 6.2821V0.729348C239.857 0.543568 215.551 0.605494 214.965 0.805036V35.1949C215.902 35.3945 240.38 35.3463 240.993 35.1399C240.98 33.344 241.021 31.5206 240.966 29.6422H229.053C227.752 29.6422 226.444 29.6422 225.142 29.6422C223.848 29.6422 222.553 29.656 221.224 29.6284V20.6491H231.064H231.043Z"></path>
<path fill="#C7C7C7" d="M21.3457 21.8254C22.4268 21.4263 23.439 20.9103 24.3479 20.1947C26.0487 18.8598 27.3156 17.2291 27.9491 15.1304C28.3347 13.8437 28.3967 12.5226 28.376 11.1947C28.3554 9.67402 28.0524 8.22218 27.3845 6.84604C26.8956 5.82769 26.3379 4.84374 25.5185 4.08686C24.5682 3.21301 23.5216 2.42173 22.3028 1.93319C21.7175 1.69925 21.0978 1.54099 20.4988 1.32769C19.1423 0.846037 17.7376 0.632735 16.3123 0.632735C11.1755 0.625854 6.03189 0.639615 0.895143 0.646496C0.640371 0.646496 0.392486 0.646496 0.0688571 0.646496C0.0344286 0.87356 0 0.997414 0 1.12127C0 2.01576 0 2.90338 0 3.79787C0 13.9951 0 24.1855 0 34.3759C0 35.3047 0 35.3048 0.929571 35.3048C2.33426 35.3048 3.74583 35.3048 5.15051 35.3048C5.90794 35.3048 6.28666 34.924 6.28666 34.1625C6.28666 25.2726 6.28666 16.3827 6.28666 7.49283C6.28666 7.14191 6.3142 6.79099 6.32797 6.37815H7.23C9.88789 6.37815 12.5458 6.3575 15.2105 6.38503C16.5119 6.39879 17.7651 6.61209 18.9908 7.13503C20.3335 7.70613 21.146 8.68319 21.7382 9.92861C21.8346 10.1281 21.8828 10.3621 21.9103 10.5892C21.9654 11.1396 22.0343 11.697 22.0274 12.2474C22.0274 13.4515 21.6693 14.5456 20.8637 15.4607C19.6243 16.8575 17.9855 17.463 16.1952 17.5937C14.4187 17.7245 12.6284 17.6763 10.845 17.7107C10.5765 17.7107 10.3079 17.7382 9.88789 17.7589C10.1289 18.1648 10.2804 18.447 10.4594 18.7084C11.086 19.596 11.7195 20.4837 12.353 21.3644C13.5649 23.057 14.7767 24.7428 15.9749 26.4424C16.5326 27.2268 17.0559 28.0387 17.6137 28.8231C18.3367 29.8277 19.0872 30.8116 19.8102 31.8162C20.5332 32.8208 21.2562 33.8254 21.9379 34.8644C22.172 35.2222 22.4405 35.3048 22.8261 35.3048C24.7955 35.291 26.7648 35.3047 28.7341 35.2979C28.9475 35.2979 29.161 35.2566 29.5466 35.2153C26.4067 30.8323 23.3632 26.5731 20.2853 22.2726C20.6916 22.1006 21.0083 21.9424 21.3388 21.8185L21.3457 21.8254Z"></path>
<path fill="#C7C7C7" d="M197.758 9.44703C196.622 12.3369 195.499 15.2268 194.356 18.1168C193.213 20.9998 192.16 23.9172 190.872 26.9103C189.901 24.4333 189.013 22.1351 188.111 19.8369C187.312 17.8002 186.5 15.7704 185.694 13.7337C184.998 11.9929 184.303 10.2452 183.614 8.50437C183.277 7.65116 182.981 6.78419 182.644 5.93098C182.017 4.35529 181.349 2.78648 180.757 1.19703C180.605 0.784189 180.413 0.632812 179.999 0.632812C178.058 0.646574 176.109 0.632812 174.167 0.646574C174.029 0.646574 173.892 0.715381 173.733 0.749785C173.775 0.921803 173.788 1.04566 173.837 1.16263C174.711 3.24749 175.599 5.31859 176.467 7.40345C177.238 9.25437 177.975 11.1191 178.739 12.9768C179.476 14.759 180.227 16.5342 180.963 18.3163C181.507 19.6305 182.051 20.9379 182.588 22.259C183.008 23.2911 183.394 24.3438 183.821 25.3759C184.599 27.22 185.405 29.0502 186.183 30.8943C186.768 32.2773 187.34 33.6672 187.89 35.064C188.028 35.408 188.228 35.5388 188.579 35.5319C189.068 35.5181 189.55 35.5319 190.039 35.5319C191.189 35.5319 192.332 35.5319 193.495 35.5319C194.494 33.1718 195.485 30.8599 196.449 28.5411C197.413 26.2291 198.343 23.9103 199.3 21.5984C200.257 19.2796 201.242 16.9677 202.199 14.642C203.163 12.3232 204.113 9.99749 205.07 7.6718C206.014 5.37364 207.026 3.09612 207.914 0.687858H201.214C200.057 3.63281 198.908 6.54336 197.765 9.45391L197.758 9.44703Z"></path>
<path fill="#C7C7C7" d="M86.3124 26.7867C86.1954 26.6491 86.1128 26.5871 86.0783 26.4977C85.6514 25.4381 85.2314 24.3784 84.8114 23.3188C84.4189 22.328 84.0402 21.3371 83.6408 20.3463C83.2208 19.2867 82.7732 18.2339 82.36 17.1743C81.8849 15.9427 81.4442 14.6972 80.9622 13.4656C80.0533 11.1468 79.1238 8.84173 78.208 6.52293C77.5056 4.75458 76.817 2.97935 76.1285 1.20412C75.9839 0.83256 75.7842 0.619257 75.3435 0.626138C73.4017 0.6399 71.46 0.626138 69.5113 0.6399C69.3598 0.6399 69.2083 0.73623 69.0293 0.798156C73.8493 12.4128 78.6418 23.9587 83.4342 35.5115C85.1006 35.5115 86.7118 35.5115 88.3231 35.5115C88.6742 35.5115 88.8946 35.3876 89.0254 35.0504C89.1631 34.672 89.349 34.3073 89.5005 33.9358C90.0032 32.7523 90.5127 31.5688 91.0016 30.3784C91.4974 29.1812 91.9656 27.9771 92.4683 26.7798C93.3565 24.6468 94.2723 22.5275 95.1537 20.3876C95.6426 19.1972 96.0695 17.9725 96.5584 16.7821C97.2332 15.1376 97.9493 13.5138 98.6379 11.8761C99.4091 10.0527 100.173 8.22935 100.938 6.40595C101.454 5.18807 101.977 3.97706 102.473 2.75228C102.742 2.09862 102.962 1.43118 103.238 0.694945H96.5377C93.1224 9.39219 89.7278 18.055 86.2987 26.7867H86.3124Z"></path>
<path fill="#C7C7C7" d="M174.842 29.5803H173.899C168.631 29.5803 163.364 29.5803 158.096 29.5803C156.581 29.5803 156.719 29.7455 156.719 28.2455C156.719 19.4106 156.719 10.5689 156.719 1.73401C156.719 1.41061 156.719 1.08034 156.719 0.784466C155.955 0.578044 151.059 0.591806 150.425 0.784466C150.425 1.22483 150.425 1.67896 150.425 2.13309C150.425 9.65373 150.425 17.1744 150.418 24.695C150.418 27.9221 150.425 31.1491 150.418 34.3762C150.418 35.3051 150.398 35.3051 151.334 35.3051C151.465 35.3051 151.589 35.3051 151.72 35.3051C156.526 35.3051 161.332 35.3051 166.145 35.3051C168.803 35.3051 171.461 35.3051 174.126 35.3051C174.883 35.3051 174.904 35.2776 174.904 34.5276C174.904 33.0964 174.904 31.6652 174.904 30.234C174.904 30.0345 174.87 29.8418 174.849 29.5735L174.842 29.5803Z"></path>
</g>
<defs>
<clipPath id="clip0_2898_1226">
<rect fill="white" height="36" width="241"></rect>
</clipPath>
</defs>
</svg>
