<svg xmlns="http://www.w3.org/2000/svg" fill="none" viewBox="0 0 159 46" height="46" width="159">
<path fill="#C7C7C7" d="M124.067 7.46748L129.804 38.5316H120.7L118.422 20.66L113.443 38.5316H105.273L100.294 20.66L98.0158 38.5316H88.9134L94.6501 7.46748H104.281L109.359 25.7201L114.438 7.46748H124.069H124.067ZM80.7217 7.46748L73.3107 28.4304L65.8997 7.46748H56.4711L68.3401 38.5316H78.2823L90.1512 7.46748H80.7227H80.7217ZM143.011 30.5795V7.46748H134.302V38.5316H155.903L158.941 30.5786H143.012L143.011 30.5795ZM47.4757 41.6579V46H43.0833L24.2087 27.3426L5.33401 46H0.941406V41.6579L19.8159 23.0005L0.941406 4.3421V0H5.33401L24.2087 18.6574L43.0833 0H47.4757V4.3421L28.6011 22.9995L47.4757 41.6569V41.6579ZM28.823 0L24.2087 4.56107L19.5943 0H11.657L24.2077 12.4063L36.7593 0H28.822H28.823ZM36.7603 45.999L24.2096 33.5927L11.659 45.999H19.5959L24.2103 41.438L28.825 45.999H36.7619H36.7603ZM47.4767 27.5609L42.8624 22.9995L47.4767 18.4381V10.5922L34.9261 22.9986L47.4767 35.4049V27.559V27.5609ZM0.941406 35.4059L13.4919 22.9995L0.941406 10.5932V18.4391L5.55575 23.0005L0.941406 27.5619V35.4078V35.4059Z"></path>
</svg>
