<svg xmlns="http://www.w3.org/2000/svg" fill="none" viewBox="0 0 26 26" height="26" width="26">
<path fill="white" d="M10.5625 19.5C15.4985 19.5 19.5 15.4985 19.5 10.5625C19.5 5.62645 15.4985 1.625 10.5625 1.625C5.62645 1.625 1.625 5.62645 1.625 10.5625C1.625 15.4985 5.62645 19.5 10.5625 19.5ZM21.125 10.5625C21.125 16.396 16.396 21.125 10.5625 21.125C4.72899 21.125 0 16.396 0 10.5625C0 4.72899 4.72899 0 10.5625 0C16.396 0 21.125 4.72899 21.125 10.5625Z" clip-rule="evenodd" fill-rule="evenodd"></path>
<path fill="white" d="M16.8088 19.081C16.8567 19.146 16.9101 19.2082 16.969 19.267L23.226 25.5241C23.8606 26.1587 24.8895 26.1587 25.5241 25.5241C26.1587 24.8895 26.1587 23.8606 25.5241 23.226L19.267 16.969C19.2082 16.9101 19.146 16.8567 19.081 16.8088C18.4436 17.6767 17.6767 18.4436 16.8088 19.081Z"></path>
<path fill="white" d="M10.5625 4.875C11.0112 4.875 11.375 5.23877 11.375 5.6875V9.75H15.4375C15.8862 9.75 16.25 10.1138 16.25 10.5625C16.25 11.0112 15.8862 11.375 15.4375 11.375H11.375V15.4375C11.375 15.8862 11.0112 16.25 10.5625 16.25C10.1138 16.25 9.75 15.8862 9.75 15.4375V11.375H5.6875C5.23877 11.375 4.875 11.0112 4.875 10.5625C4.875 10.1138 5.23877 9.75 5.6875 9.75H9.75V5.6875C9.75 5.23877 10.1138 4.875 10.5625 4.875Z" clip-rule="evenodd" fill-rule="evenodd"></path>
</svg>
