<svg xmlns="http://www.w3.org/2000/svg" fill="none" viewBox="0 0 26 26" height="26" width="26">
<path fill="white" d="M12.5969 0.107052C12.8467 -0.0356841 13.1533 -0.0356841 13.4031 0.107052L19.4969 3.5892C19.75 3.73386 19.9062 4.00307 19.9062 4.29464V10.7874L25.5906 14.0356C25.8438 14.1803 26 14.4495 26 14.7411V21.7054C26 21.9969 25.8438 22.2661 25.5906 22.4108L19.4969 25.8929C19.2471 26.0357 18.9404 26.0357 18.6906 25.8929L13 22.6412L7.30936 25.8929C7.05957 26.0357 6.75293 26.0357 6.50314 25.8929L0.409387 22.4108C0.156232 22.2661 0 21.9969 0 21.7054V14.7411C0 14.4495 0.156232 14.1803 0.409387 14.0356L6.09375 10.7874V4.29464C6.09375 4.00307 6.24998 3.73386 6.50314 3.5892L12.5969 0.107052ZM6.90625 12.1947L2.45015 14.7411L6.90625 17.2874L11.3624 14.7411L6.90625 12.1947ZM12.1875 16.1412L7.71875 18.6947V23.7874L12.1875 21.2338V16.1412ZM13.8125 21.2338L18.2812 23.7874V18.6947L13.8125 16.1412V21.2338ZM14.6376 14.7411L19.0938 17.2874L23.5499 14.7411L19.0938 12.1947L14.6376 14.7411ZM18.2812 10.7874V5.69473L13.8125 8.2483V13.341L18.2812 10.7874ZM12.1875 13.341V8.2483L7.71875 5.69473V10.7874L12.1875 13.341ZM8.5439 4.29464L13 6.84099L17.4561 4.29464L13 1.7483L8.5439 4.29464ZM24.375 16.1412L19.9062 18.6947V23.7874L24.375 21.2338V16.1412ZM6.09375 23.7874V18.6947L1.625 16.1412V21.2338L6.09375 23.7874Z"></path>
</svg>
