<svg xmlns="http://www.w3.org/2000/svg" fill="none" viewBox="0 0 158 66" height="66" width="158">
<g clip-path="url(#clip0_2898_1257)">
<path fill="#C7C7C7" d="M54.1705 26.208V33.3884H54.2218C54.3996 32.9688 54.6445 32.6119 54.9644 32.3217C55.2804 32.0316 55.6399 31.7963 56.0388 31.6119C56.4378 31.4276 56.8525 31.2904 57.2831 31.2041C57.7176 31.1178 58.1363 31.0708 58.5431 31.0708C59.4437 31.0708 60.1942 31.1923 60.7946 31.4394C61.395 31.6865 61.8809 32.0276 62.2522 32.4668C62.6235 32.9061 62.8842 33.4276 63.0343 34.0316C63.1844 34.6355 63.2594 35.3061 63.2594 36.0433V44.9884H61.0079V35.7806C61.0079 34.9374 60.7591 34.2708 60.2653 33.7806C59.7716 33.2904 59.0922 33.0433 58.2232 33.0433C57.5359 33.0433 56.9394 33.1492 56.4338 33.357C55.9322 33.5688 55.5095 33.8668 55.1738 34.2512C54.838 34.6355 54.5852 35.0904 54.4193 35.608C54.2495 36.1257 54.1665 36.6904 54.1665 37.3061V44.9884H51.915V26.2041H54.1665L54.1705 26.208Z"></path>
<path fill="#C7C7C7" d="M77.7953 44.9374C77.4082 45.1649 76.867 45.2786 76.1797 45.2786C75.5951 45.2786 75.133 45.1178 74.7893 44.7923C74.4457 44.4668 74.2719 43.9374 74.2719 43.2002C73.6517 43.9374 72.9328 44.4668 72.1112 44.7923C71.2896 45.1178 70.4009 45.2786 69.4489 45.2786C68.8288 45.2786 68.2442 45.208 67.6872 45.0668C67.1303 44.9257 66.6484 44.7061 66.2415 44.408C65.8347 44.11 65.5147 43.7217 65.2738 43.2355C65.0368 42.7531 64.9143 42.1688 64.9143 41.4865C64.9143 40.7139 65.0486 40.0825 65.3133 39.5923C65.5779 39.1021 65.9255 38.7021 66.36 38.3963C66.7945 38.0904 67.2883 37.859 67.8452 37.6982C68.4022 37.5414 68.971 37.408 69.5556 37.3021C70.1718 37.1806 70.7603 37.0865 71.3173 37.0276C71.8742 36.9649 72.364 36.8786 72.7867 36.7649C73.2093 36.6512 73.5451 36.4865 73.7939 36.2668C74.0428 36.0472 74.1652 35.7257 74.1652 35.3061C74.1652 34.8159 74.0744 34.4198 73.8887 34.1218C73.7031 33.8237 73.4661 33.5963 73.1738 33.4394C72.8815 33.2825 72.5536 33.1767 72.1942 33.1257C71.8308 33.0747 71.4753 33.0472 71.1198 33.0472C70.1678 33.0472 69.3699 33.2276 68.734 33.5884C68.098 33.9492 67.7544 34.6276 67.6991 35.6276H65.4476C65.4831 34.7845 65.6609 34.0747 65.9769 33.4982C66.2929 32.9217 66.7195 32.4512 67.2488 32.0904C67.7781 31.7296 68.3824 31.4708 69.0658 31.3139C69.7452 31.157 70.4759 31.0786 71.2501 31.0786C71.8663 31.0786 72.4825 31.1217 73.0908 31.2119C73.6991 31.3021 74.2521 31.4786 74.7459 31.7492C75.2396 32.0198 75.6386 32.4002 75.9388 32.8904C76.239 33.3806 76.3891 34.0198 76.3891 34.808V41.7923C76.3891 42.3178 76.4207 42.7021 76.4799 42.9492C76.5431 43.1923 76.7485 43.3178 77.104 43.3178C77.2976 43.3178 77.5267 43.2825 77.7913 43.2119V44.9492L77.7953 44.9374ZM74.1376 37.9649C73.8532 38.1727 73.4819 38.3257 73.0237 38.4237C72.5655 38.5178 72.0836 38.6002 71.578 38.659C71.0763 38.7218 70.5668 38.7884 70.0533 38.8668C69.5398 38.9453 69.0816 39.0708 68.6747 39.2472C68.2679 39.4198 67.9361 39.6708 67.6793 39.9923C67.4226 40.3139 67.2962 40.757 67.2962 41.3139C67.2962 41.6825 67.3712 41.9884 67.5213 42.2433C67.6714 42.4982 67.865 42.7021 68.1059 42.859C68.3469 43.0159 68.6234 43.1296 68.9394 43.2002C69.2554 43.2708 69.5911 43.3061 69.9466 43.3061C70.6892 43.3061 71.3252 43.2041 71.8545 43.0041C72.3838 42.8041 72.8183 42.5492 73.154 42.2433C73.4898 41.9374 73.7386 41.608 73.8966 41.2472C74.0546 40.8904 74.1336 40.5531 74.1336 40.2394V37.961L74.1376 37.9649Z"></path>
<path fill="#C7C7C7" d="M82.3261 44.9926L77.2385 31.3926H79.7547L83.598 42.7298H83.6494L87.3861 31.3926H89.7442L84.7356 44.9926H82.3261Z"></path>
<path fill="#C7C7C7" d="M102.621 44.9374C102.234 45.1649 101.693 45.2786 101.006 45.2786C100.421 45.2786 99.9589 45.1178 99.6152 44.7923C99.2716 44.4668 99.0978 43.9374 99.0978 43.2002C98.4776 43.9374 97.7587 44.4668 96.9371 44.7923C96.1155 45.1178 95.2268 45.2786 94.2748 45.2786C93.6547 45.2786 93.0701 45.208 92.5131 45.0668C91.9562 44.9257 91.4743 44.7061 91.0674 44.408C90.6606 44.11 90.3406 43.7217 90.0997 43.2355C89.8627 42.7531 89.7402 42.1688 89.7402 41.4865C89.7402 40.7139 89.8745 40.0825 90.1392 39.5923C90.4038 39.1021 90.7514 38.7021 91.1859 38.3963C91.6204 38.0904 92.1142 37.859 92.6711 37.6982C93.2281 37.5414 93.7969 37.408 94.3815 37.3021C94.9977 37.1806 95.5862 37.0865 96.1432 37.0276C96.7001 36.9649 97.1899 36.8786 97.6126 36.7649C98.0352 36.6512 98.371 36.4865 98.6198 36.2668C98.8687 36.0472 98.9911 35.7257 98.9911 35.3061C98.9911 34.8159 98.9003 34.4198 98.7146 34.1218C98.529 33.8237 98.292 33.5963 97.9997 33.4394C97.7074 33.2825 97.3795 33.1767 97.0201 33.1257C96.6567 33.0747 96.3012 33.0472 95.9457 33.0472C94.9937 33.0472 94.1958 33.2276 93.5599 33.5884C92.9239 33.9492 92.5803 34.6276 92.525 35.6276H90.2735C90.309 34.7845 90.4868 34.0747 90.8028 33.4982C91.1188 32.9217 91.5454 32.4512 92.0747 32.0904C92.604 31.7296 93.2083 31.4708 93.8917 31.3139C94.5711 31.157 95.3018 31.0786 96.076 31.0786C96.6922 31.0786 97.3084 31.1217 97.9167 31.2119C98.525 31.3021 99.078 31.4786 99.5718 31.7492C100.066 32.0198 100.464 32.4002 100.765 32.8904C101.065 33.3806 101.215 34.0198 101.215 34.808V41.7923C101.215 42.3178 101.247 42.7021 101.306 42.9492C101.369 43.1923 101.574 43.3178 101.93 43.3178C102.123 43.3178 102.353 43.2825 102.617 43.2119V44.9492L102.621 44.9374ZM98.9635 37.9649C98.6791 38.1727 98.3078 38.3257 97.8496 38.4237C97.3914 38.5178 96.9095 38.6002 96.4039 38.659C95.9022 38.7218 95.3927 38.7884 94.8792 38.8668C94.3657 38.9453 93.9075 39.0708 93.5006 39.2472C93.0938 39.4198 92.762 39.6708 92.5052 39.9923C92.2485 40.3139 92.1221 40.757 92.1221 41.3139C92.1221 41.6825 92.1971 41.9884 92.3472 42.2433C92.4973 42.4982 92.6909 42.7021 92.9318 42.859C93.1728 43.0159 93.4493 43.1296 93.7653 43.2002C94.0813 43.2708 94.417 43.3061 94.7725 43.3061C95.5151 43.3061 96.1511 43.2041 96.6804 43.0041C97.2097 42.8041 97.6442 42.5492 97.9799 42.2433C98.3157 41.9374 98.5645 41.608 98.7225 41.2472C98.8805 40.8904 98.9595 40.5531 98.9595 40.2394V37.961L98.9635 37.9649Z"></path>
<path fill="#C7C7C7" d="M105.773 41.9531C105.986 42.2943 106.263 42.5688 106.607 42.7688C106.95 42.9688 107.341 43.1139 107.772 43.2041C108.206 43.2904 108.649 43.3374 109.111 43.3374C109.462 43.3374 109.834 43.31 110.225 43.259C110.612 43.208 110.971 43.11 111.299 42.9688C111.627 42.8276 111.896 42.6237 112.109 42.3492C112.322 42.0786 112.425 41.7296 112.425 41.31C112.425 40.7296 112.204 40.2943 111.761 39.9963C111.319 39.6982 110.766 39.459 110.106 39.2708C109.443 39.0865 108.724 38.9218 107.946 38.7727C107.168 38.6237 106.449 38.4119 105.785 38.1414C105.121 37.8708 104.568 37.4865 104.13 36.9963C103.688 36.5061 103.466 35.8198 103.466 34.9453C103.466 34.2629 103.62 33.6747 103.929 33.1806C104.237 32.6904 104.636 32.2904 105.121 31.9845C105.607 31.6786 106.156 31.4512 106.765 31.3021C107.373 31.1531 107.977 31.0786 108.582 31.0786C109.36 31.0786 110.075 31.1453 110.726 31.2747C111.378 31.4041 111.959 31.6355 112.461 31.957C112.962 32.2825 113.365 32.7178 113.665 33.2708C113.965 33.8237 114.143 34.51 114.195 35.3374H111.943C111.908 34.8982 111.793 34.5335 111.599 34.2472C111.406 33.957 111.157 33.7257 110.857 33.5492C110.557 33.3727 110.225 33.2472 109.861 33.1688C109.498 33.0904 109.131 33.0512 108.763 33.0512C108.428 33.0512 108.088 33.0786 107.744 33.1296C107.401 33.1806 107.085 33.2747 106.804 33.4041C106.52 33.5374 106.291 33.71 106.117 33.9296C105.939 34.1492 105.852 34.4355 105.852 34.7845C105.852 35.1688 105.99 35.4904 106.263 35.7453C106.536 36.0002 106.887 36.2119 107.31 36.3767C107.732 36.5453 108.21 36.6825 108.74 36.7963C109.269 36.91 109.798 37.0276 110.331 37.1531C110.896 37.2747 111.449 37.4237 111.987 37.6002C112.524 37.7767 113.002 38.008 113.416 38.2982C113.831 38.5884 114.167 38.9531 114.424 39.3884C114.68 39.8276 114.807 40.3727 114.807 41.0198C114.807 41.8433 114.633 42.5296 114.289 43.0708C113.946 43.6159 113.495 44.0551 112.938 44.3845C112.382 44.7178 111.753 44.9492 111.058 45.0825C110.359 45.2119 109.668 45.2786 108.977 45.2786C108.218 45.2786 107.491 45.2002 106.804 45.0433C106.117 44.8865 105.505 44.6276 104.975 44.2668C104.446 43.9061 104.023 43.4355 103.703 42.8472C103.383 42.259 103.21 41.5453 103.174 40.7021H105.426C105.441 41.1923 105.56 41.608 105.769 41.9531H105.773Z"></path>
<path fill="#C7C7C7" d="M60.1073 54.4748C59.5424 54.0003 58.784 53.765 57.8281 53.765C57.0144 53.765 56.335 53.914 55.786 54.2121C55.2369 54.5101 54.8024 54.9062 54.4746 55.3964C54.1467 55.8866 53.9137 56.4552 53.7715 57.0944C53.6293 57.7336 53.5582 58.3964 53.5582 59.0787C53.5582 59.7101 53.6332 60.3258 53.7833 60.9219C53.9334 61.518 54.1665 62.0474 54.4864 62.514C54.8064 62.9807 55.2211 63.3532 55.7307 63.6317C56.2442 63.914 56.8525 64.0513 57.5595 64.0513C58.6734 64.0513 59.5424 63.7611 60.1705 63.1846C60.7985 62.6042 61.1817 61.7885 61.3239 60.7376H63.6307C63.3818 62.4199 62.7498 63.718 61.7347 64.6317C60.7195 65.5454 59.337 66.0003 57.5872 66.0003C56.5444 66.0003 55.6201 65.8317 54.8182 65.5023C54.0124 65.1689 53.3449 64.6944 52.8037 64.0827C52.2665 63.4709 51.8597 62.7376 51.5832 61.8866C51.3106 61.0356 51.1724 60.1023 51.1724 59.0827C51.1724 58.0631 51.3067 57.114 51.5713 56.2278C51.836 55.3415 52.2389 54.5689 52.7761 53.914C53.3133 53.2552 53.9887 52.7376 54.8024 52.3611C55.6161 51.9846 56.5602 51.7964 57.6385 51.7964C58.4167 51.7964 59.1435 51.8905 59.8229 52.0709C60.5023 52.2552 61.1027 52.5415 61.6241 52.9258C62.1455 53.3101 62.5721 53.7964 62.9078 54.3846C63.2436 54.9729 63.4569 55.6709 63.5438 56.4748H61.2133C61.0355 55.616 60.6642 54.9493 60.0994 54.4748H60.1073Z"></path>
<path fill="#C7C7C7" d="M65.8309 56.1219C66.1113 55.2552 66.5379 54.4984 67.1028 53.8591C67.6676 53.2199 68.3668 52.714 69.1963 52.3454C70.0258 51.9768 70.9817 51.7925 72.06 51.7925C73.1384 51.7925 74.114 51.9768 74.9356 52.3454C75.7572 52.714 76.4485 53.216 77.0173 53.8591C77.5821 54.4984 78.0048 55.2552 78.2892 56.1219C78.5696 56.9886 78.7118 57.9258 78.7118 58.9258C78.7118 59.9258 78.5696 60.8552 78.2892 61.714C78.0048 62.5729 77.5821 63.3219 77.0173 63.965C76.4524 64.6042 75.7572 65.1062 74.9356 65.4631C74.114 65.8238 73.1542 66.0003 72.06 66.0003C70.9659 66.0003 70.0297 65.8199 69.1963 65.4631C68.3668 65.1023 67.6676 64.6042 67.1028 63.965C66.5379 63.3258 66.1113 62.5768 65.8309 61.714C65.5465 60.8552 65.4082 59.9258 65.4082 58.9258C65.4082 57.9258 65.5504 56.9925 65.8309 56.1219ZM68.1219 61.1219C68.3431 61.7611 68.6472 62.2984 69.0343 62.7258C69.4214 63.1572 69.8796 63.4866 70.401 63.714C70.9224 63.9415 71.4754 64.0552 72.0561 64.0552C72.6367 64.0552 73.1897 63.9415 73.7111 63.714C74.2325 63.4866 74.6868 63.1572 75.0778 62.7258C75.4649 62.2944 75.7691 61.7611 75.9903 61.1219C76.2115 60.4827 76.3221 59.7493 76.3221 58.9258C76.3221 58.1023 76.2115 57.3689 75.9903 56.7297C75.7691 56.0905 75.4649 55.5493 75.0778 55.1101C74.6907 54.6709 74.2325 54.3376 73.7111 54.1101C73.1897 53.8827 72.6367 53.7689 72.0561 53.7689C71.4754 53.7689 70.9224 53.8827 70.401 54.1101C69.8796 54.3376 69.4254 54.6709 69.0343 55.1101C68.6472 55.5493 68.3391 56.0866 68.1219 56.7297C67.9007 57.3689 67.7901 58.1023 67.7901 58.9258C67.7901 59.7493 67.9007 60.4827 68.1219 61.1219Z"></path>
<path fill="#C7C7C7" d="M82.7488 62.6709C82.9621 63.0121 83.2386 63.2866 83.5822 63.4866C83.9259 63.6866 84.3169 63.8317 84.7475 63.9219C85.182 64.0081 85.6244 64.0552 86.0865 64.0552C86.4381 64.0552 86.8094 64.0278 87.2004 63.9768C87.5875 63.9258 87.947 63.8278 88.2748 63.6866C88.6027 63.5454 88.8713 63.3415 89.0846 63.067C89.2979 62.7964 89.4006 62.4474 89.4006 62.0278C89.4006 61.4474 89.1794 61.0121 88.737 60.714C88.2946 60.416 87.7416 60.1768 87.0819 59.9885C86.4183 59.8042 85.6994 59.6395 84.9213 59.4905C84.1431 59.3415 83.4242 59.1297 82.7606 58.8591C82.097 58.5885 81.544 58.2042 81.1056 57.714C80.6632 57.2238 80.442 56.5376 80.442 55.6631C80.442 54.9807 80.596 54.3925 80.9041 53.8983C81.2122 53.4082 81.6112 53.0082 82.097 52.7023C82.5829 52.3964 83.1319 52.1689 83.7402 52.0199C84.3485 51.8709 84.9529 51.7964 85.5572 51.7964C86.3354 51.7964 87.0503 51.8631 87.7021 51.9925C88.3538 52.1219 88.9345 52.3533 89.4361 52.6748C89.9378 53.0003 90.3407 53.4356 90.6409 53.9885C90.9411 54.5415 91.1188 55.2278 91.1702 56.0552H88.9187C88.8831 55.616 88.7686 55.2513 88.575 54.965C88.3815 54.6748 88.1326 54.4434 87.8324 54.267C87.5322 54.0905 87.2004 53.965 86.837 53.8866C86.4736 53.8082 86.1063 53.7689 85.7389 53.7689C85.4032 53.7689 85.0635 53.7964 84.7198 53.8474C84.3762 53.8983 84.0602 53.9925 83.7797 54.1219C83.4953 54.2552 83.2662 54.4278 83.0924 54.6474C82.9147 54.867 82.8278 55.1532 82.8278 55.5023C82.8278 55.8866 82.966 56.2081 83.2386 56.4631C83.5111 56.718 83.8627 56.9297 84.2853 57.0944C84.708 57.2631 85.1859 57.4003 85.7152 57.514C86.2445 57.6278 86.7738 57.7454 87.3071 57.8709C87.8719 57.9925 88.4249 58.1415 88.9621 58.318C89.4993 58.4944 89.9773 58.7258 90.392 59.016C90.8068 59.3062 91.1425 59.6709 91.3993 60.1062C91.656 60.5454 91.7824 61.0905 91.7824 61.7376C91.7824 62.5611 91.6086 63.2474 91.265 63.7885C90.9213 64.3336 90.471 64.7729 89.9141 65.1023C89.3571 65.4356 88.7291 65.667 88.0339 65.8003C87.3347 65.9297 86.6435 65.9964 85.9522 65.9964C85.1938 65.9964 84.467 65.918 83.7797 65.7611C83.0924 65.6042 82.4802 65.3454 81.9509 64.9846C81.4216 64.6238 80.9989 64.1532 80.679 63.565C80.359 62.9768 80.1852 62.2631 80.1497 61.4199H82.4012C82.417 61.9101 82.5355 62.3258 82.7448 62.6709H82.7488Z"></path>
<path fill="#C7C7C7" d="M99.1371 52.1062V54.0788H96.4076V62.5259C96.4076 62.7886 96.4313 63.0004 96.4748 63.1572C96.5182 63.3141 96.6012 63.4396 96.7276 63.5259C96.85 63.6121 97.0238 63.6709 97.245 63.6984C97.4662 63.7259 97.7506 63.7376 98.1061 63.7376H99.141V65.7102H97.4188C96.8342 65.7102 96.3365 65.6709 95.9218 65.5925C95.507 65.5141 95.1713 65.369 94.9145 65.1572C94.6578 64.9455 94.4682 64.6474 94.3457 64.2631C94.2233 63.8788 94.1601 63.369 94.1601 62.7376V54.0827H91.8296V52.1102H94.1601V48.0317H96.4116V52.1102H99.141L99.1371 52.1062Z"></path>
<path fill="#C7C7C7" d="M113.104 65.6552C112.717 65.8827 112.176 65.9964 111.489 65.9964C110.904 65.9964 110.442 65.8356 110.098 65.5101C109.755 65.1846 109.581 64.6552 109.581 63.918C108.961 64.6552 108.242 65.1846 107.42 65.5101C106.599 65.8356 105.71 65.9964 104.758 65.9964C104.138 65.9964 103.553 65.9258 102.996 65.7846C102.439 65.6434 101.957 65.4238 101.551 65.1258C101.144 64.8278 100.824 64.4395 100.583 63.9532C100.346 63.4709 100.223 62.8866 100.223 62.2042C100.223 61.4317 100.358 60.8003 100.622 60.3101C100.887 59.8199 101.235 59.4199 101.669 59.114C102.104 58.8082 102.597 58.5768 103.154 58.416C103.711 58.2591 104.28 58.1258 104.865 58.0199C105.481 57.8983 106.069 57.8042 106.626 57.7454C107.183 57.6827 107.673 57.5964 108.096 57.4827C108.518 57.3689 108.854 57.2042 109.103 56.9846C109.352 56.765 109.474 56.4434 109.474 56.0238C109.474 55.5336 109.383 55.1376 109.198 54.8395C109.012 54.5415 108.775 54.314 108.483 54.1572C108.191 54.0003 107.863 53.8944 107.503 53.8434C107.14 53.7925 106.784 53.765 106.429 53.765C105.477 53.765 104.679 53.9454 104.043 54.3062C103.407 54.667 103.063 55.3454 103.008 56.3454H100.757C100.792 55.5023 100.97 54.7925 101.286 54.216C101.602 53.6395 102.029 53.1689 102.558 52.8082C103.087 52.4474 103.691 52.1885 104.375 52.0317C105.054 51.8748 105.785 51.7964 106.559 51.7964C107.175 51.7964 107.792 51.8395 108.4 51.9297C109.008 52.0199 109.561 52.1964 110.055 52.467C110.549 52.7376 110.948 53.118 111.248 53.6081C111.548 54.0983 111.698 54.7376 111.698 55.5258V62.5101C111.698 63.0356 111.73 63.4199 111.789 63.667C111.852 63.9101 112.058 64.0356 112.413 64.0356C112.607 64.0356 112.836 64.0003 113.1 63.9297V65.667L113.104 65.6552ZM109.447 58.6827C109.162 58.8905 108.791 59.0434 108.333 59.1415C107.875 59.2356 107.393 59.318 106.887 59.3768C106.385 59.4395 105.876 59.5062 105.362 59.5846C104.849 59.6631 104.391 59.7885 103.984 59.965C103.577 60.1376 103.245 60.3885 102.988 60.7101C102.732 61.0317 102.605 61.4748 102.605 62.0317C102.605 62.4003 102.68 62.7062 102.83 62.9611C102.98 63.216 103.174 63.4199 103.415 63.5768C103.656 63.7336 103.932 63.8474 104.248 63.918C104.564 63.9885 104.9 64.0238 105.256 64.0238C105.998 64.0238 106.634 63.9219 107.164 63.7219C107.693 63.5219 108.127 63.267 108.463 62.9611C108.799 62.6552 109.048 62.3258 109.206 61.965C109.364 61.6081 109.443 61.2709 109.443 60.9572V58.6787L109.447 58.6827Z"></path>
<path fill="#C7C7C7" d="M120.957 52.1061V54.9728H121.008C121.557 53.8669 122.229 53.0512 123.023 52.5257C123.817 52.0002 124.824 51.7532 126.045 51.7885V54.1571C125.144 54.1571 124.374 54.2787 123.738 54.5257C123.102 54.7728 122.588 55.1296 122.201 55.6042C121.814 56.0787 121.53 56.6512 121.352 57.3257C121.174 58.0002 121.087 58.7767 121.087 59.6551V65.7061H118.836V52.1061H120.957Z"></path>
<path fill="#C7C7C7" d="M127.542 49.663V46.9258H129.793V49.663H127.542ZM129.793 52.1101V65.7101H127.542V52.1101H129.793Z"></path>
<path fill="#C7C7C7" d="M140.154 54.4748C139.589 54.0003 138.831 53.765 137.875 53.765C137.061 53.765 136.382 53.914 135.833 54.2121C135.284 54.5101 134.849 54.9062 134.521 55.3964C134.194 55.8866 133.961 56.4552 133.818 57.0944C133.676 57.7336 133.605 58.3964 133.605 59.0787C133.605 59.7101 133.68 60.3258 133.83 60.9219C133.98 61.518 134.213 62.0474 134.533 62.514C134.853 62.9807 135.268 63.3532 135.778 63.6317C136.291 63.914 136.899 64.0513 137.606 64.0513C138.72 64.0513 139.589 63.7611 140.217 63.1846C140.845 62.6042 141.229 61.7885 141.371 60.7376H143.678C143.429 62.4199 142.797 63.718 141.782 64.6317C140.766 65.5454 139.384 66.0003 137.634 66.0003C136.591 66.0003 135.667 65.8317 134.865 65.5023C134.059 65.1689 133.392 64.6944 132.851 64.0827C132.313 63.4709 131.907 62.7376 131.63 61.8866C131.357 61.0356 131.219 60.1023 131.219 59.0827C131.219 58.0631 131.354 57.114 131.618 56.2278C131.883 55.3415 132.286 54.5689 132.823 53.914C133.36 53.2552 134.036 52.7376 134.849 52.3611C135.663 51.9846 136.607 51.7964 137.685 51.7964C138.464 51.7964 139.19 51.8905 139.87 52.0709C140.549 52.2552 141.15 52.5415 141.671 52.9258C142.192 53.3101 142.619 53.7964 142.955 54.3846C143.29 54.9729 143.504 55.6709 143.591 56.4748H141.26C141.082 55.616 140.711 54.9493 140.146 54.4748H140.154Z"></path>
<path fill="#C7C7C7" d="M158 65.6552C157.613 65.8827 157.072 65.9964 156.385 65.9964C155.8 65.9964 155.338 65.8356 154.994 65.5101C154.65 65.1846 154.477 64.6552 154.477 63.918C153.857 64.6552 153.138 65.1846 152.316 65.5101C151.494 65.8356 150.606 65.9964 149.654 65.9964C149.034 65.9964 148.449 65.9258 147.892 65.7846C147.335 65.6434 146.853 65.4238 146.446 65.1258C146.039 64.8278 145.72 64.4395 145.479 63.9532C145.242 63.4709 145.119 62.8866 145.119 62.2042C145.119 61.4317 145.253 60.8003 145.518 60.3101C145.783 59.8199 146.13 59.4199 146.565 59.114C146.999 58.8082 147.493 58.5768 148.05 58.416C148.607 58.2591 149.176 58.1258 149.76 58.0199C150.377 57.8983 150.965 57.8042 151.522 57.7454C152.079 57.6827 152.569 57.5964 152.991 57.4827C153.414 57.3689 153.75 57.2042 153.999 56.9846C154.248 56.765 154.37 56.4434 154.37 56.0238C154.37 55.5336 154.279 55.1376 154.094 54.8395C153.908 54.5415 153.671 54.314 153.379 54.1572C153.086 54.0003 152.758 53.8944 152.399 53.8434C152.036 53.7925 151.68 53.765 151.325 53.765C150.373 53.765 149.575 53.9454 148.939 54.3062C148.303 54.667 147.959 55.3454 147.904 56.3454H145.652C145.688 55.5023 145.866 54.7925 146.182 54.216C146.498 53.6395 146.924 53.1689 147.454 52.8082C147.983 52.4474 148.587 52.1885 149.271 52.0317C149.95 51.8748 150.681 51.7964 151.455 51.7964C152.071 51.7964 152.687 51.8395 153.296 51.9297C153.904 52.0199 154.457 52.1964 154.951 52.467C155.444 52.7376 155.843 53.118 156.144 53.6081C156.444 54.0983 156.594 54.7376 156.594 55.5258V62.5101C156.594 63.0356 156.625 63.4199 156.685 63.667C156.748 63.9101 156.953 64.0356 157.309 64.0356C157.502 64.0356 157.731 64.0003 157.996 63.9297V65.667L158 65.6552ZM154.342 58.6827C154.058 58.8905 153.687 59.0434 153.228 59.1415C152.77 59.2356 152.288 59.318 151.783 59.3768C151.281 59.4395 150.772 59.5062 150.258 59.5846C149.745 59.6631 149.286 59.7885 148.88 59.965C148.473 60.1376 148.141 60.3885 147.884 60.7101C147.627 61.0317 147.501 61.4748 147.501 62.0317C147.501 62.4003 147.576 62.7062 147.726 62.9611C147.876 63.216 148.07 63.4199 148.311 63.5768C148.552 63.7336 148.828 63.8474 149.144 63.918C149.46 63.9885 149.796 64.0238 150.151 64.0238C150.894 64.0238 151.53 63.9219 152.059 63.7219C152.589 63.5219 153.023 63.267 153.359 62.9611C153.695 62.6552 153.943 62.3258 154.101 61.965C154.259 61.6081 154.338 61.2709 154.338 60.9572V58.6787L154.342 58.6827Z"></path>
<path fill="#838486" d="M13.2483 39.7881H0V65.7724H13.2483V39.7881Z"></path>
<path fill="#707072" d="M13.2483 0H0V26.3098H13.2483V0Z"></path>
<path fill="#C7C7C7" d="M26.5242 26.3096H13.2483H0V39.788H13.2483H26.5242V65.7723H39.7725V39.788V26.3096H26.5242Z"></path>
</g>
<defs>
<clipPath id="clip0_2898_1257">
<rect fill="white" height="66" width="158"></rect>
</clipPath>
</defs>
</svg>
