<svg xmlns="http://www.w3.org/2000/svg" fill="none" viewBox="0 0 71 52" height="52" width="71">
<g clip-path="url(#clip0_10022_21070)">
<path fill="#C7C7C7" d="M36.6388 51.5068V46.6743C36.6388 45.8532 36.6388 44.3706 33.7646 44.3706C33.0134 44.3636 32.266 44.4772 31.5514 44.7071C31.0714 44.861 30.9133 45.0406 30.9133 45.2773V51.5182C30.9133 51.7577 30.9823 51.7833 31.1835 51.7833H31.8791C32.0745 51.7833 32.1665 51.7577 32.1665 51.4982V45.7677C32.1665 45.4426 32.7011 45.1233 33.6985 45.1233C35.354 45.1233 35.354 46.1725 35.354 46.8339V51.5068C35.354 51.7605 35.4403 51.7919 35.6673 51.7919H36.4491C36.6044 51.7662 36.6158 51.6379 36.6158 51.5068"></path>
<path fill="#C7C7C7" d="M44.1405 48.191C44.1405 46.5118 43.6001 45.4341 42.7781 44.8895C42.2238 44.5504 41.5855 44.3709 40.9343 44.3709C40.2831 44.3709 39.6447 44.5504 39.0904 44.8895C38.2684 45.4341 37.728 46.5118 37.728 48.191C37.728 49.8703 38.2655 50.9309 39.0904 51.4783C39.6443 51.8183 40.2829 51.9984 40.9343 51.9984C41.5857 51.9984 42.2242 51.8183 42.7781 51.4783C43.6001 50.9309 44.1405 49.856 44.1405 48.191ZM42.8327 48.191C42.8327 49.5054 42.5625 50.3578 42.1687 50.7227C42.0078 50.8835 41.8139 51.0079 41.6001 51.0876C41.3863 51.1673 41.1578 51.2004 40.9299 51.1846C40.7034 51.2003 40.4762 51.1671 40.2638 51.0874C40.0515 51.0077 39.859 50.8833 39.6998 50.7227C39.3003 50.3549 39.0301 49.5054 39.0301 48.191C39.0301 46.8767 39.2974 46.01 39.6998 45.6422C39.8596 45.4826 40.0522 45.3591 40.2645 45.2799C40.4767 45.2007 40.7037 45.1677 40.9299 45.1832C41.1575 45.1676 41.3858 45.2005 41.5995 45.2796C41.8131 45.3588 42.0072 45.4824 42.1687 45.6422C42.5625 46.0128 42.8327 46.8596 42.8327 48.191Z"></path>
<path fill="#C7C7C7" d="M49.1936 45.1005C49.1936 44.5959 48.3313 44.3735 47.3512 44.3735C46.8038 44.3696 46.2588 44.4445 45.733 44.5959C45.2502 44.7242 45.0806 44.9294 45.0806 45.1661V51.5495C45.0806 51.7748 45.1668 51.7862 45.368 51.7862H46.0894C46.2619 51.7862 46.3481 51.7862 46.3481 51.5495V45.6992C46.3492 45.6092 46.3692 45.5204 46.407 45.4386C46.4447 45.3567 46.4993 45.2836 46.5673 45.224C46.6353 45.1644 46.7151 45.1195 46.8016 45.0924C46.8881 45.0652 46.9794 45.0563 47.0695 45.0663C47.9778 45.0663 48.1186 45.7277 48.6015 45.7277C48.6843 45.7311 48.7669 45.7167 48.8435 45.6855C48.9202 45.6543 48.9891 45.607 49.0456 45.5469C49.1021 45.4868 49.1449 45.4152 49.1709 45.3372C49.197 45.2592 49.2057 45.1765 49.1965 45.0948"></path>
<path fill="#C7C7C7" d="M55.4334 51.0164V42.2295C55.4334 41.9758 55.3616 41.9444 55.146 41.9444H54.459C54.2205 41.9444 54.1917 42.0299 54.1917 42.2552V44.7897C53.7176 44.5312 53.1835 44.4005 52.6425 44.4105C50.4437 44.4105 49.3113 46.4661 49.3113 48.1882C49.3113 50.737 50.7484 51.9971 52.9012 51.9971C53.9589 51.9971 55.4363 51.4783 55.4363 51.0164M54.1889 50.6115C54.1889 50.9765 53.5939 51.1818 52.9386 51.1818C51.5647 51.1818 50.5846 50.0413 50.5846 48.1055C50.5846 46.4091 51.5187 45.2773 52.8236 45.2773C53.3194 45.2431 53.8088 45.4039 54.186 45.7249L54.1889 50.6115Z"></path>
<path fill="#C7C7C7" d="M58.5118 42.5346C58.5057 42.343 58.4234 42.1616 58.2828 42.0301C58.1422 41.8986 57.9547 41.8278 57.7616 41.8332C57.6599 41.8273 57.5581 41.8423 57.4625 41.8771C57.3669 41.912 57.2796 41.966 57.206 42.0358C57.1323 42.1057 57.074 42.1898 57.0346 42.2829C56.9952 42.3761 56.9756 42.4763 56.9769 42.5773C56.9752 42.676 56.994 42.7739 57.0322 42.865C57.0704 42.9561 57.1272 43.0383 57.199 43.1066C57.2708 43.1749 57.356 43.2277 57.4494 43.2617C57.5427 43.2957 57.6422 43.3103 57.7415 43.3043C57.844 43.3076 57.9461 43.2898 58.0414 43.2522C58.1367 43.2145 58.2232 43.1579 58.2954 43.0856C58.3677 43.0134 58.4242 42.9272 58.4614 42.8324C58.4986 42.7376 58.5158 42.6362 58.5118 42.5346ZM58.3709 51.5467V44.8154C58.3709 44.593 58.3134 44.5502 58.0835 44.5502H57.3477C57.1063 44.5502 57.1063 44.6301 57.1063 44.8154V51.5467C57.1063 51.7405 57.1063 51.7976 57.319 51.7976H58.0864C58.2991 51.7976 58.3738 51.7976 58.3738 51.5467"></path>
<path fill="#C7C7C7" d="M70.9545 51.6294C70.9545 51.5609 70.9114 51.5182 70.8539 51.4469L68.1607 47.9515L68.1463 47.9373C69.1988 47.1519 70.0619 46.1439 70.6728 44.9864C70.7245 44.9001 70.7522 44.8017 70.7533 44.7013C70.7533 44.5759 70.6814 44.5474 70.4975 44.5474H69.8306C69.5777 44.5474 69.4627 44.5474 69.3909 44.7584C68.9258 46.0413 68.0429 47.1338 66.8817 47.8631C66.8671 47.8729 66.8547 47.8855 66.8453 47.9002C66.8359 47.9149 66.8297 47.9314 66.8271 47.9487C66.8276 47.9751 66.8378 48.0005 66.8558 48.02L69.3823 51.5866C69.526 51.7947 69.5806 51.7947 69.8048 51.7947H70.7676C70.8136 51.7947 70.9545 51.7947 70.9545 51.6408M66.6259 51.5866V42.1041C66.6259 41.9045 66.5281 41.9045 66.3557 41.9045H65.6084C65.4503 41.9045 65.3669 41.933 65.3669 42.1297V51.5638C65.3669 51.7577 65.41 51.7862 65.6084 51.7862H66.3557C66.5569 51.7862 66.6259 51.7862 66.6259 51.578"></path>
<path fill="#C7C7C7" d="M64.3696 49.8275C64.3696 47.4754 60.8803 47.8318 60.8803 46.2865C60.8845 46.1348 60.9198 45.9855 60.9842 45.8477C61.0486 45.71 61.1407 45.5868 61.2548 45.4856C61.3689 45.3844 61.5026 45.3075 61.6478 45.2594C61.793 45.2113 61.9465 45.1931 62.099 45.206C62.9239 45.206 63.1366 45.7391 63.5591 45.7391C63.6261 45.7431 63.6932 45.7332 63.7562 45.71C63.8191 45.6869 63.8765 45.6509 63.9246 45.6045C63.9728 45.5581 64.0106 45.5022 64.0358 45.4405C64.0609 45.3787 64.0728 45.3125 64.0707 45.2459C64.0707 44.7156 63.1481 44.4077 62.1708 44.4077C60.8803 44.4077 59.7479 45.0919 59.7479 46.4034C59.7479 47.6066 60.6101 48.114 61.6449 48.5588C62.4698 48.8981 63.2314 49.206 63.2314 49.9843C63.2314 50.5545 62.7629 51.2131 61.7742 51.2131C60.7855 51.2131 60.4952 50.4861 60.0123 50.4861C59.7708 50.4861 59.4719 50.583 59.4719 50.9451C59.4719 51.5153 60.6216 52.0114 61.7713 52.0114C63.0475 52.0114 64.3811 51.3386 64.3811 49.8418"></path>
<path fill="#C7C7C7" d="M6.31296 51.5068V46.6743C6.31296 45.8532 6.29859 44.3706 3.43871 44.3706C2.68754 44.3639 1.94021 44.4775 1.22555 44.7071C0.745548 44.861 0.590332 45.0406 0.590332 45.2773V51.5182C0.590332 51.7577 0.659321 51.7833 0.857644 51.7833H1.57333C1.77165 51.7833 1.86075 51.7577 1.86075 51.4982V45.7677C1.86075 45.4426 2.39824 45.1233 3.38985 45.1233C5.04542 45.1233 5.04541 46.1725 5.04541 46.8339V51.5068C5.04541 51.7605 5.13452 51.7919 5.35872 51.7919H6.14051C6.29572 51.7662 6.31009 51.6379 6.31009 51.5068"></path>
<path fill="#C7C7C7" d="M13.8173 48.191C13.8173 46.5118 13.277 45.4341 12.4578 44.8895C11.9036 44.5504 11.2652 44.3709 10.614 44.3709C9.96279 44.3709 9.32442 44.5504 8.77017 44.8895C7.94813 45.4341 7.41064 46.5118 7.41064 48.191C7.41064 49.8703 7.94813 50.9309 8.77017 51.4783C9.32408 51.8183 9.96258 51.9984 10.614 51.9984C11.2654 51.9984 11.9039 51.8183 12.4578 51.4783C13.277 50.9309 13.8173 49.856 13.8173 48.191ZM12.5124 48.191C12.5124 49.5054 12.2423 50.3578 11.8456 50.7227C11.5042 51.02 11.0654 51.184 10.6111 51.184C10.1568 51.184 9.71803 51.02 9.37663 50.7227C8.97998 50.3549 8.7098 49.5054 8.7098 48.191C8.7098 46.8767 8.97998 46.01 9.37663 45.6422C9.7183 45.3455 10.157 45.1819 10.6111 45.1819C11.0653 45.1819 11.5039 45.3455 11.8456 45.6422C12.2423 46.0128 12.5124 46.8596 12.5124 48.191Z"></path>
<path fill="#C7C7C7" d="M26.7716 48.191C26.7716 46.5118 26.2341 45.4341 25.4092 44.8895C24.855 44.5504 24.2166 44.3709 23.5654 44.3709C22.9142 44.3709 22.2758 44.5504 21.7216 44.8895C20.9024 45.4341 20.3621 46.5118 20.3621 48.191C20.3621 49.8703 20.9024 50.9309 21.7216 51.4783C22.2755 51.8183 22.914 51.9984 23.5654 51.9984C24.2168 51.9984 24.8553 51.8183 25.4092 51.4783C26.2341 50.9309 26.7716 49.856 26.7716 48.191ZM25.4696 48.191C25.4696 49.5054 25.1994 50.3578 24.7999 50.7227C24.4585 51.02 24.0197 51.184 23.5654 51.184C23.1111 51.184 22.6723 51.02 22.3309 50.7227C21.9343 50.3549 21.6641 49.5054 21.6641 48.191C21.6641 46.8767 21.9343 46.01 22.3309 45.6422C22.6726 45.3455 23.1113 45.1819 23.5654 45.1819C24.0195 45.1819 24.4582 45.3455 24.7999 45.6422C25.1994 46.0128 25.4696 46.8596 25.4696 48.191Z"></path>
<path fill="#C7C7C7" d="M20.2556 44.6786C20.2556 44.536 20.1406 44.536 20.0716 44.536H19.3646C19.264 44.536 19.2352 44.5902 19.195 44.7327L17.3497 50.0613L15.4355 44.7612C15.3665 44.5645 15.3377 44.536 15.1251 44.536H14.2628C14.2053 44.536 14.0645 44.536 14.0645 44.7042C14.0704 44.7729 14.0899 44.8397 14.1219 44.9009L16.6886 51.5638C16.7605 51.732 16.7892 51.7748 16.9013 51.7862H17.4561C17.6228 51.7862 17.6544 51.7862 17.7262 51.578L20.2067 44.9009C20.2385 44.8306 20.2579 44.7554 20.2642 44.6786"></path>
<path fill="#C7C7C7" d="M18.9651 16.3051C19.54 17.129 20.7213 15.7605 20.6178 15.5068C20.5143 15.253 18.3845 15.4868 18.9651 16.3051Z"></path>
<path fill="#C7C7C7" d="M23.5869 11.0135C24.684 11.0079 25.7547 10.6801 26.6641 10.0714C27.5736 9.46276 28.2808 8.60054 28.6967 7.59356C29.1126 6.58659 29.2185 5.47998 29.001 4.41338C28.7835 3.34678 28.2524 2.36798 27.4746 1.6005C26.6969 0.83301 25.7074 0.311231 24.631 0.100997C23.5546 -0.109238 22.4395 0.00149652 21.4265 0.419224C20.4135 0.836951 19.5479 1.54295 18.939 2.44814C18.3301 3.35333 18.0051 4.41714 18.0051 5.50534C18.007 6.23056 18.1529 6.94831 18.4344 7.61761C18.7159 8.28691 19.1276 8.89465 19.6459 9.40614C20.1643 9.91762 20.7791 10.3228 21.4553 10.5986C22.1315 10.8744 22.8558 11.0154 23.5869 11.0135ZM23.7392 1.28582C24.4658 1.29089 25.1745 1.50921 25.7761 1.91328C26.3777 2.31734 26.8452 2.88903 27.1197 3.55629C27.3942 4.22355 27.4634 4.95649 27.3185 5.66269C27.1737 6.36889 26.8213 7.01673 26.3057 7.52453C25.7902 8.03234 25.1346 8.37736 24.4217 8.5161C23.7087 8.65485 22.9703 8.58109 22.2996 8.30415C21.6288 8.0272 21.0557 7.55946 20.6526 6.9599C20.2495 6.36034 20.0344 5.65581 20.0343 4.93514C20.0359 4.45416 20.1329 3.9782 20.3199 3.53444C20.507 3.09069 20.7803 2.68784 21.1244 2.34893C21.4685 2.01003 21.8765 1.7417 22.3252 1.55928C22.7738 1.37686 23.2544 1.28394 23.7392 1.28582Z"></path>
<path fill="#C7C7C7" d="M51.6107 20.7384C50.8605 17.2516 47.8052 17.1461 46.1755 17.2687C44.4969 17.3942 41.3151 17.8874 38.0528 17.8874C33.6294 17.8874 28.6799 16.6614 24.8744 14.9166C24.2162 14.6144 24.5439 14.489 24.8428 14.3293C26.2799 13.5652 27.5101 12.8553 28.266 11.6436C28.8409 10.717 28.6224 10.4177 27.9786 10.9366C27.0383 11.7335 25.9009 12.2676 24.6835 12.4841C23.4661 12.7006 22.2125 12.5915 21.0517 12.1682C18.3068 11.2046 17.2433 8.59302 16.999 7.93444C16.7547 7.27585 16.4241 7.22737 16.4241 8.19387C16.4241 10.6258 17.5164 12.0998 17.8785 12.5189C18.2407 12.938 18.4131 13.3514 18.209 13.5937C17.6744 14.2352 17.0823 14.9223 17.0593 15.1989C17.0643 15.4665 17.0255 15.7333 16.9444 15.9886C16.8265 16.3279 16.3695 16.8154 15.7056 17.6536C15.3204 18.1354 15.5561 18.6401 15.8809 18.9964C16.2718 19.4212 16.519 19.9088 16.9961 20.1369C17.4732 20.3649 17.9187 20.1939 18.4735 20.2965C19.0282 20.3992 19.7065 20.7128 20.2469 21.665C21.0258 23.0478 21.8795 25.2031 23.4086 26.9964C24.0869 27.7947 24.084 29.2316 24.0869 29.7192C24.13 33.9016 21.8996 37.8617 20.4826 40.3706C20.1463 40.9665 20.2153 41.4569 20.6665 41.4626C21.181 41.4626 23.1154 41.4626 23.4258 41.4626C23.7966 41.4626 24.0007 41.0777 24.0294 40.6843C24.2622 37.263 26.2282 30.9765 27.7142 29.9016C30.2062 31.4298 32.678 34.7199 31.468 40.4505C31.4018 40.7584 31.1115 41.454 31.8531 41.454H34.2473C34.552 41.454 35.0493 41.3371 35.0176 40.7869C34.8912 38.5403 33.0057 33.8104 32.4912 31.0192C32.1721 29.2545 33.6006 26.1155 38.9669 28.5246C41.0421 26.7056 43.7381 27.8118 42.5884 31.3243C41.4387 34.8368 40.4586 36.3564 36.5525 40.4476C36.1041 40.918 36.0811 41.4483 36.7853 41.4483H39.2974C39.8378 41.4483 40.0533 41.3001 40.22 40.8781C40.3867 40.4562 42.163 34.8624 45.6811 32.2537C45.9542 32.0513 46.187 31.1561 46.7331 29.1319C48.4576 31.3243 48.6531 35.3386 45.753 40.4961C45.4512 41.0321 45.638 41.454 45.9858 41.454H48.2622C48.6876 41.454 48.8083 41.226 48.975 40.5987C49.1241 39.9598 49.3064 39.3288 49.5211 38.7085C49.6878 38.2466 49.7654 38.1725 51.5647 38.1896C52.1395 38.1896 52.1137 37.9045 52.1137 37.4141C52.1137 30.4291 52.1568 23.2103 51.625 20.7413M45.2183 18.4319C45.7932 19.4982 45.8392 20.1197 45.6725 20.6529C45.5058 21.186 44.7527 21.4854 44.586 21.4312C44.591 20.4325 44.2848 19.4567 43.7094 18.6372C44.2124 18.5631 44.7153 18.489 45.2183 18.4319ZM40.5506 18.985C40.8926 20.2452 40.838 21.8988 40.3695 22.3806C39.6107 23.1418 36.176 22.9879 35.1959 22.8396C34.9429 22.8026 34.6497 22.7541 34.5204 22.0699C34.3838 20.978 34.3051 19.8798 34.2847 18.7798C36.3647 19.0484 38.4659 19.1171 40.5592 18.985M28.3379 21.3799C28.6715 20.1643 28.9117 18.9252 29.0565 17.6736C29.7214 17.8731 30.392 18.0518 31.0684 18.2096C30.6114 21.0777 29.7003 21.8874 29.2203 22.0784C28.8495 22.2238 28.0533 22.3065 28.335 21.3885M22.1899 22.8995C21.615 22.1383 20.8419 20.3022 20.1779 19.7862C18.9104 18.7969 17.8153 19.5723 17.318 18.985C16.8208 18.3977 16.5707 18.3093 17.068 17.7106L17.8584 16.6671C18.0912 16.3564 18.0481 15.7577 18.1458 15.4982C18.4685 14.9304 18.8887 14.4229 19.3875 13.9986C20.0141 13.4597 20.5372 13.6964 22.5032 14.871C24.9003 16.2965 25.6332 15.9915 24.8026 17.2716C24.2823 18.0813 22.5923 20.2452 22.1813 22.8967M48.5554 22.0071C48.4231 24.154 47.9403 27.1846 47.1929 27.5125C46.4456 27.8403 45.2816 25.8674 39.2025 25.7619C34.8912 25.685 31.5685 26.2495 30.9592 30.1354C30.9161 30.4205 30.7494 30.3635 30.6287 30.2324C29.4445 28.9636 28.3638 28.3992 26.6047 27.3956C24.8457 26.392 23.6902 25.0178 23.4718 23.6892C23.2533 22.3607 23.7592 20.5531 26.2167 17.2431C26.5587 16.784 26.622 16.8268 27.9987 17.3428C27.8924 19.5467 27.3434 20.784 27.1135 21.9216C26.8835 23.0592 28.1798 23.3272 29.3238 23.062C30.4677 22.7969 31.5542 21.608 32.0342 18.4262C32.4826 18.5175 32.839 18.5802 33.2931 18.6515C33.3592 21.9501 33.5546 22.7028 33.6897 23.0135C33.8198 23.2693 34.0186 23.4844 34.264 23.6353C34.5094 23.7862 34.7921 23.8671 35.0809 23.8689C37.7108 24.0741 40.2545 23.9886 41.1685 23.1105C42.0825 22.2324 41.7664 20.0912 41.5163 18.9252C41.9273 18.8881 42.2809 18.8482 42.689 18.7969C43.3436 19.5663 43.6904 20.5474 43.6634 21.5538C43.6634 22.3122 44.5257 22.6942 45.7012 21.8931C46.8768 21.092 46.7618 19.6636 46.1237 18.3721C48.8227 18.1297 48.6761 19.886 48.5438 22.0299M50.5558 32.556C50.5156 32.8696 50.208 33.1262 50.1333 32.4761C50.0385 31.6408 49.5987 29.742 49.4579 28.9437C49.3256 28.1939 49.7453 25.913 49.8804 24.0171C49.8804 23.8546 50.0816 23.8575 50.1965 23.9772C51.0157 24.8325 50.7283 31.2644 50.5558 32.556Z"></path>
</g>
<defs>
<clipPath id="clip0_10022_21070">
<rect transform="translate(0.598633)" fill="white" height="52" width="70.3529"></rect>
</clipPath>
</defs>
</svg>
