<svg width="27" height="31" viewBox="0 0 27 31" fill="none" xmlns="http://www.w3.org/2000/svg">
<path fill-rule="evenodd" clip-rule="evenodd" d="M26.1998 16.5356C26.5943 16.9221 26.6008 17.5553 26.2144 17.9498L14.2144 30.1998C14.0263 30.3918 13.7688 30.5 13.5 30.5C13.2312 30.5 12.9737 30.3918 12.7856 30.1998L0.785643 17.9498C0.399164 17.5553 0.405691 16.9221 0.80022 16.5356C1.19475 16.1492 1.82788 16.1557 2.21436 16.5502L12.5 27.0501L12.5 1.5C12.5 0.947715 12.9477 0.5 13.5 0.5C14.0523 0.5 14.5 0.947715 14.5 1.5L14.5 27.0501L24.7856 16.5502C25.1721 16.1557 25.8053 16.1492 26.1998 16.5356Z" fill="white"/>
</svg>
