<svg xmlns="http://www.w3.org/2000/svg" fill="none" viewBox="0 0 26 26" height="26" width="26">
<path fill="white" d="M15.8477 10.0638C16.82 11.0376 18.6592 10.7745 19.9556 9.4761C21.252 8.17772 21.5147 6.33578 20.5424 5.362C19.5701 4.38821 17.731 4.65135 16.4346 5.94973C15.1382 7.2481 14.8754 9.09005 15.8477 10.0638Z"></path>
<path fill="white" d="M25.6932 5.38213C25.1039 7.87491 23.5248 11.2746 19.7771 15.4862L19.3885 19.3997C19.2844 20.3376 18.8647 21.2121 18.1985 21.8794L14.3272 25.7565C14.0746 26.0095 13.6887 26.0722 13.3692 25.9122C13.0497 25.7522 12.8683 25.4054 12.9188 25.0513L13.359 21.9653C13.4239 21.5097 13.3366 21.0013 13.1444 20.4115C13.0211 20.033 12.8847 19.6985 12.7401 19.3441C12.6964 19.237 12.6519 19.128 12.6069 19.0154C11.2821 18.6951 10.0428 17.9393 9.04564 16.9406C8.04831 15.9418 7.29352 14.7002 6.97375 13.3731C6.86073 13.3278 6.75136 13.2831 6.64384 13.2392C6.2908 13.0949 5.95763 12.9588 5.58005 12.8355C4.99102 12.6431 4.48341 12.5557 4.02859 12.6207L0.947295 13.0616C0.593666 13.1122 0.247397 12.9305 0.0876431 12.6105C-0.0721104 12.2905 -0.00950298 11.904 0.24309 11.651L4.11438 7.77386C4.78065 7.10658 5.65384 6.68627 6.59032 6.58205L6.60018 6.58102L10.5004 6.19417C14.6327 2.52034 18.0163 0.945947 20.5129 0.337749C21.96 -0.0147916 23.097 -0.0395011 23.8926 0.0329315C24.2896 0.0690799 24.5996 0.129234 24.8187 0.183747C24.9282 0.210993 25.0149 0.236802 25.0784 0.257452C25.3784 0.355085 25.5315 0.469425 25.6492 0.735548L25.65 0.737349C25.6667 0.775651 25.6818 0.814815 25.6961 0.854095C25.719 0.917091 25.7476 1.00288 25.778 1.11116C25.8389 1.32781 25.907 1.63393 25.9515 2.02678C26.0408 2.81424 26.0341 3.94044 25.6932 5.38213ZM17.8482 17.5283L17.9128 17.4636L17.7383 19.2205C17.675 19.7816 17.4235 20.3046 17.0248 20.7039L14.914 22.8179L15.0021 22.2004C15.1195 21.3775 14.9469 20.5849 14.7223 19.8958C14.6453 19.6593 14.5521 19.4093 14.4557 19.1626C15.6548 19.0575 16.8322 18.5459 17.8482 17.5283ZM8.45881 8.12466C7.44293 9.14209 6.93205 10.3212 6.82708 11.5219C6.58051 11.4254 6.33066 11.3321 6.09461 11.255C5.40666 11.0304 4.61534 10.8576 3.79386 10.9751L3.17727 11.0633L5.28805 8.94932C5.68674 8.55003 6.20891 8.29812 6.76908 8.23475L8.52267 8.06081L8.45881 8.12466ZM23.7423 1.68845C23.1258 1.63232 22.1722 1.64434 20.9052 1.953C18.3732 2.56983 14.5409 4.3842 9.63248 9.30012C8.62567 10.3085 8.3347 11.4786 8.5173 12.6329C8.69095 13.7306 9.30211 14.8465 10.2193 15.7651C11.1363 16.6835 12.2501 17.2955 13.3459 17.4696C14.4988 17.6528 15.6675 17.3615 16.6745 16.3529C21.6774 11.3424 23.4854 7.50573 24.0781 4.99908C24.3745 3.74548 24.3701 2.81233 24.3023 2.21426C24.2815 2.0305 24.2546 1.87742 24.2281 1.75548C24.0996 1.73089 23.9374 1.70622 23.7423 1.68845Z"></path>
<path fill="white" d="M11.3894 19.7255C10.3389 19.1695 9.33852 18.4094 8.4588 17.5283C7.52521 16.5933 6.72765 15.5222 6.1653 14.3994C4.3747 16.0112 2.97201 22.6123 3.17729 22.8179C3.38069 23.0216 9.57207 21.3614 11.3894 19.7255Z"></path>
</svg>
