<svg xmlns="http://www.w3.org/2000/svg" fill="none" viewBox="0 0 26 26" height="26" width="26">
<path fill="white" d="M13 24.375C6.71776 24.375 1.625 19.2822 1.625 13C1.625 6.71776 6.71776 1.625 13 1.625C19.2822 1.625 24.375 6.71776 24.375 13C24.375 19.2822 19.2822 24.375 13 24.375ZM13 26C20.1797 26 26 20.1797 26 13C26 5.8203 20.1797 0 13 0C5.8203 0 0 5.8203 0 13C0 20.1797 5.8203 26 13 26Z"></path>
<path fill="white" d="M6.96279 15.5467C7.35121 15.322 7.84824 15.4547 8.07293 15.8432C9.05756 17.5453 10.8959 18.6875 13 18.6875C15.1042 18.6875 16.9425 17.5453 17.9272 15.8432C18.1518 15.4547 18.6489 15.322 19.0373 15.5467C19.4257 15.7714 19.5585 16.2684 19.3338 16.6568C18.0706 18.8404 15.7077 20.3125 13 20.3125C10.2924 20.3125 7.92946 18.8404 6.66632 16.6568C6.44163 16.2684 6.57436 15.7714 6.96279 15.5467Z"></path>
<path fill="white" d="M11.375 10.5625C11.375 11.9087 10.6475 13 9.75 13C8.85254 13 8.125 11.9087 8.125 10.5625C8.125 9.21631 8.85254 8.125 9.75 8.125C10.6475 8.125 11.375 9.21631 11.375 10.5625Z"></path>
<path fill="white" d="M17.875 10.5625C17.875 11.9087 17.1475 13 16.25 13C15.3525 13 14.625 11.9087 14.625 10.5625C14.625 9.21631 15.3525 8.125 16.25 8.125C17.1475 8.125 17.875 9.21631 17.875 10.5625Z"></path>
</svg>
