<svg width="356" height="185" viewBox="0 0 356 185" fill="none" xmlns="http://www.w3.org/2000/svg">
<mask id="mask0_9826_11681" style="mask-type:alpha" maskUnits="userSpaceOnUse" x="37" y="0" width="275" height="206">
<rect x="37" width="275" height="206" fill="url(#paint0_radial_9826_11681)"/>
</mask>
<g mask="url(#mask0_9826_11681)">
<g opacity="0.3">
<mask id="mask1_9826_11681" style="mask-type:alpha" maskUnits="userSpaceOnUse" x="48" y="-28" width="249" height="249">
<path d="M234.011 96.3404C234.011 130.4 206.4 158.011 172.34 158.011C138.281 158.011 110.67 130.4 110.67 96.3404C110.67 62.2809 138.281 34.6702 172.34 34.6702C206.4 34.6702 234.011 62.2809 234.011 96.3404Z" stroke="#535354"/>
<path d="M264.846 96.3404C264.846 147.43 223.43 188.846 172.34 188.846C121.251 188.846 79.8351 147.43 79.8351 96.3404C79.8351 45.2512 121.251 3.83511 172.34 3.83511C223.43 3.83511 264.846 45.2512 264.846 96.3404Z" stroke="#535354"/>
<path d="M295.681 96.3404C295.681 164.459 240.459 219.681 172.34 219.681C104.221 219.681 49 164.459 49 96.3404C49 28.2214 104.221 -27 172.34 -27C240.459 -27 295.681 28.2214 295.681 96.3404Z" stroke="#535354"/>
</mask>
<g mask="url(#mask1_9826_11681)">
<path opacity="0.45" d="M49 -29.556H295.681V217.125H49V-29.556Z" fill="url(#paint1_radial_9826_11681)"/>
</g>
</g>
</g>
<defs>
<radialGradient id="paint0_radial_9826_11681" cx="0" cy="0" r="1" gradientUnits="userSpaceOnUse" gradientTransform="translate(174.5 90.8147) rotate(90) scale(115.185 143.797)">
<stop offset="0.798099" stop-color="#08090A"/>
<stop offset="1" stop-color="#08090A" stop-opacity="0"/>
</radialGradient>
<radialGradient id="paint1_radial_9826_11681" cx="0" cy="0" r="1" gradientUnits="userSpaceOnUse" gradientTransform="translate(212.597 102.778) rotate(170.516) scale(187.14 204.158)">
<stop stop-color="#040404" stop-opacity="0"/>
<stop offset="0.555183" stop-color="white"/>
<stop offset="1" stop-color="#040404" stop-opacity="0"/>
</radialGradient>
</defs>
</svg>
