<svg width="30" height="30" viewBox="0 0 30 30" fill="none" xmlns="http://www.w3.org/2000/svg">
<rect x="0.5" y="0.5" width="29" height="29" rx="14.5" stroke="#7266FF"/>
<path d="M15 7C10.5817 7 7 10.5817 7 15C7 19.4183 10.5817 23 15 23C19.4183 23 23 19.4183 23 15C23 10.5817 19.4183 7 15 7ZM9.04042 11.3262C9.36549 12.6548 11.5719 13.8653 12.7565 14.5153C13.2372 14.779 13.5496 14.9504 13.5 15C13.4193 15.0807 13.3377 15.1584 13.2578 15.2345C12.8424 15.6299 12.4715 15.983 12.5 16.5C12.535 17.1344 13.1178 17.3237 13.7142 17.5174C14.2915 17.7049 14.8816 17.8966 15 18.5C15.0819 18.9174 14.9255 19.4881 14.7797 20.0197C14.5652 20.8022 14.3739 21.5 15 21.5C16.5 21 18.7984 18.3144 19 16.5C19.1381 15.2574 17 14.5 15.5 14C15.022 13.8407 14.7445 14.0811 14.5097 14.2845C14.3376 14.4336 14.1884 14.5628 14 14.5C13.5547 14.3516 11.5 12.5 12.5 12C13.2808 11.6096 13.4519 11.8288 13.7274 12.1817C13.8048 12.2808 13.8904 12.3904 14 12.5C14.6085 12.8043 14.6616 12.368 14.7225 11.8671C14.7618 11.5448 14.8042 11.1958 15 11C15.4336 10.5664 16.2648 10.2088 17.0277 9.88051C17.7403 9.5739 18.3933 9.29294 18.607 8.99964C20.6402 10.2245 22 12.4534 22 15C22 18.866 18.866 22 15 22C11.134 22 8 18.866 8 15C8 13.6526 8.38071 12.3941 9.04042 11.3262Z" fill="#7266FF"/>
</svg>
