<svg xmlns="http://www.w3.org/2000/svg" fill="none" viewBox="0 0 312 30" height="30" width="312">
<g clip-path="url(#clip0_2670_1651)">
<path fill="#C7C7C7" d="M63.6711 22.2129C61.9239 27.0632 57.8913 30 52.7979 30C47.2599 30 41.2773 25.5167 41.2773 18.3389C41.2773 11.6922 46.7763 6.84192 52.7589 6.84192C55.4889 6.84192 61.4325 8.10721 63.6711 14.793H57.8055C57.1971 13.6917 55.9725 11.6141 52.7589 11.6141C49.5453 11.6141 46.4487 13.9807 46.4487 18.4248C46.4487 22.1348 49.0539 25.2356 52.9617 25.2356C54.6699 25.2356 56.4249 24.4233 57.7665 22.2207H63.6711V22.2129Z"></path>
<path fill="#C7C7C7" d="M83.7018 18.4639C83.7018 14.5118 80.652 11.5751 77.3916 11.5751C74.7084 11.5751 71.0034 13.8948 71.0034 18.4248C71.0034 22.5409 74.1 25.1887 77.3916 25.1887C81.1746 25.2277 83.7018 21.9239 83.7018 18.4639ZM65.793 18.4248C65.793 11.864 71.1672 6.81067 77.3526 6.81067C83.538 6.81067 88.8342 11.7 88.8342 18.3467C88.8342 25.4777 83.3352 29.9609 77.3526 29.9609C70.9176 29.9999 65.793 24.6654 65.793 18.4248Z"></path>
<path fill="#C7C7C7" d="M91.1894 7.54485H95.9552V9.38031H96.0332C96.4778 8.68518 97.9442 6.81067 101.688 6.81067C102.866 6.81067 105.924 7.09966 107.959 10.2317C110.237 6.96688 113.458 6.81067 114.964 6.81067C119.238 6.81067 121.352 9.09133 122.132 10.1926C122.99 11.3329 123.762 13.4105 123.762 16.6362V29.3126H118.552V17.2455C118.552 15.9802 118.552 11.6219 114.441 11.6219C112.975 11.6219 111.594 12.3952 110.861 13.6604C110.05 14.9648 110.089 17.1283 110.089 18.4717V29.3126H104.878V17.2455C104.878 14.2697 103.74 11.6219 100.526 11.6219C96.3764 11.6219 96.3764 16.1442 96.3764 18.4717V29.3126H91.166V7.54485H91.205H91.1894Z"></path>
<path fill="#C7C7C7" d="M127.951 7.54485H132.717V9.38031H132.795C133.24 8.68518 134.706 6.81067 138.45 6.81067C139.628 6.81067 142.685 7.09966 144.721 10.2317C146.999 6.96688 150.22 6.81067 151.726 6.81067C156 6.81067 158.114 9.09133 158.894 10.1926C159.752 11.3329 160.524 13.4105 160.524 16.6362V29.3126H155.353V17.2455C155.353 15.9802 155.353 11.6219 151.242 11.6219C149.776 11.6219 148.395 12.3952 147.662 13.6604C146.851 14.9648 146.89 17.1283 146.89 18.4717V29.3126H141.679V17.2455C141.679 14.2697 140.54 11.6219 137.327 11.6219C133.177 11.6219 133.177 16.1442 133.177 18.4717V29.3126H127.967V7.54485H127.951Z"></path>
<path fill="#C7C7C7" d="M168.542 21.8458C169.923 24.0484 171.639 24.8607 173.347 24.8607C177.255 24.8607 179.86 21.7599 179.86 18.05C179.86 13.5668 176.725 11.2392 173.55 11.2392C170.375 11.2392 169.112 13.3168 168.503 14.4181H162.685C164.923 7.73234 170.867 6.46704 173.597 6.46704C179.579 6.46704 185.078 11.3173 185.078 17.964C185.078 25.1809 179.096 29.6251 173.558 29.6251C168.472 29.6251 164.44 26.6883 162.685 21.838H168.55L168.542 21.8458Z"></path>
<path fill="#C7C7C7" d="M188.401 7.25591H193.167V9.16948H193.245C194.22 7.74016 195.203 6.52173 197.886 6.52173H198.331V11.5751C193.612 11.7391 193.612 15.4881 193.612 16.7534V28.9846H188.401V7.25591Z"></path>
<path fill="#C7C7C7" d="M215.108 16.2614C214.539 12.7545 212.011 11.2861 209.242 11.2861C207.129 11.2861 204.071 12.2234 203.096 16.2614H215.108ZM203.26 20.4634C203.502 21.8927 205.537 24.9466 209.242 24.9466C211.559 24.9466 213.275 23.9703 214.25 22.1739H219.749C218.485 26.087 214.375 29.7188 209.289 29.7188C202.69 29.7188 197.808 24.5405 197.808 18.2218C197.808 11.9032 202.324 6.56079 209.25 6.56079C216.177 6.56079 220.482 12.3874 220.482 17.8938C220.482 18.9091 220.318 19.8073 220.155 20.5025H203.26V20.4634Z"></path>
<path fill="#C7C7C7" d="M234.328 11.2939C230.054 11.2939 227.854 14.9648 227.854 18.2218C227.854 21.8927 230.584 24.9076 234.328 24.9076C238.072 24.9076 240.677 22.0958 240.677 18.0578C240.638 13.5355 237.417 11.2939 234.328 11.2939ZM245.607 28.9846H240.841V26.2978C239.211 28.2583 235.997 29.7188 233.267 29.7188C227.69 29.7188 222.722 25.2356 222.722 18.0187C222.722 11.372 227.565 6.52173 233.595 6.52173C238.033 6.52173 240.638 9.70059 240.802 10.0286H240.88V7.29496H245.646V28.9846H245.607Z"></path>
<path fill="#C7C7C7" d="M250.77 0V7.25592H248.251V11.8641H250.77V28.9846H255.981V11.8641H259.116V7.25592H255.981V0H250.77Z"></path>
<path fill="#C7C7C7" d="M261.237 28.9846H266.448V7.25592H261.237V28.9846ZM261.237 4.77219H266.448V0H261.237V4.77219Z"></path>
<path fill="#C7C7C7" d="M268.647 7.25598H274.302L279.513 21.6429H279.638L284.559 7.25598H290.3L281.471 28.9847H277.438L268.647 7.25598Z"></path>
<path fill="#C7C7C7" d="M306.626 16.2614C306.056 12.7545 303.529 11.2861 300.76 11.2861C298.646 11.2861 295.589 12.2234 294.614 16.2614H306.626ZM294.777 20.4634C295.019 21.8927 297.055 24.9466 300.76 24.9466C303.077 24.9466 304.793 23.9703 305.768 22.1739H311.267C310.003 26.087 305.892 29.7188 300.807 29.7188C294.208 29.7188 289.325 24.5405 289.325 18.2218C289.325 11.9032 293.841 6.56079 300.768 6.56079C307.694 6.56079 312 12.3874 312 17.8938C312 18.9091 311.836 19.8073 311.672 20.5025H294.777V20.4634Z"></path>
<path fill="#C7C7C7" d="M14.0868 20.5884H2.3634C1.0608 20.5884 0 19.5262 0 18.2218C0 16.9565 1.0608 15.8943 2.3634 15.8943H14.0868C15.3894 15.8943 16.4502 16.9565 16.4502 18.2609C16.4502 19.5262 15.3894 20.5806 14.0868 20.5806V20.5884Z"></path>
<path fill="#C7C7C7" d="M23.4858 8.84924C23.4858 7.54489 22.425 6.48267 21.1224 6.48267H2.3634C1.0608 6.48267 0 7.54489 0 8.84924C0 10.1536 1.0608 11.2158 2.3634 11.2158H21.1302C22.4328 11.1768 23.4936 10.1536 23.4936 8.84924H23.4858Z"></path>
<path fill="#C7C7C7" d="M23.4858 27.6412C23.4858 26.3369 22.425 25.2747 21.1224 25.2747H2.3634C1.0608 25.2747 0 26.3369 0 27.6412C0 28.9456 1.0608 30.0078 2.3634 30.0078H21.1302C22.4328 30.0078 23.4936 28.9456 23.4936 27.6412H23.4858Z"></path>
</g>
<defs>
<clipPath id="clip0_2670_1651">
<rect fill="white" height="30" width="312"></rect>
</clipPath>
</defs>
</svg>
