<svg xmlns="http://www.w3.org/2000/svg" fill="none" viewBox="0 0 86 52" height="52" width="86">
<path fill="#C7C7C7" d="M6.31943 36.2404L0.95166 52H5.7249L6.65916 48.9896H12.0269L12.9612 52H17.7344L12.3667 36.2404H6.31943ZM7.66137 45.7817L9.27509 40.5834H9.394L11.0077 45.7817H7.64438H7.66137Z"></path>
<path fill="#C7C7C7" d="M27.6885 45.173H27.5016L23.7136 36.2404H18.21V52H22.5415V42.8371H22.6605L26.2956 51.8848H28.8945L32.5127 42.9029H32.6486V52H36.9632V36.2404H31.4765L27.6885 45.173Z"></path>
<path fill="#C7C7C7" d="M47.6479 44.4986H47.529L41.7366 36.2404H37.9995V52H42.416V43.7254H42.501L48.3953 52H52.0814V36.2404H47.6479V44.4986Z"></path>
<path fill="#C7C7C7" d="M53.95 52H65.6367V48.5618H58.3665V45.8475H65.0762V42.4094H58.3665V39.695H65.6707V36.2404H53.95V52Z"></path>
<path fill="#C7C7C7" d="M67.1995 36.2404V39.695H72.0916V52H76.4572V39.695H81.3493V36.2404H67.1995Z"></path>
<path fill="#C7C7C7" d="M24.3422 15.7596L27.111 6.95856H27.2299L29.9987 15.7596H34.2284L39.0356 0H34.1094L31.8842 9.73869H31.7483L29.1154 0H25.2424L22.5925 9.70579H22.4736L20.2484 0H15.3223L20.1125 15.7596H24.3422Z"></path>
<path fill="#C7C7C7" d="M51.9285 12.3214H44.6582V9.60709H51.3679V6.16893H44.6582V3.4546H51.9625V0H40.2417V15.7596H51.9285V12.3214Z"></path>
<path fill="#C7C7C7" d="M13.114 30.9105H18.4818L19.416 33.9209H24.1893L18.8215 18.1613H12.7743L7.40649 33.9209H12.1797L13.114 30.9105ZM15.8658 22.5043L17.4795 27.7026H14.1162L15.7299 22.5043H15.8488H15.8658Z"></path>
<path fill="#C7C7C7" d="M37.473 26.3866C37.9826 25.6134 38.2543 24.6593 38.2543 23.5242C38.2543 22.3891 37.9995 21.4514 37.5069 20.6454C36.9973 19.8393 36.3009 19.2306 35.4006 18.8029C34.5003 18.3752 33.4302 18.1613 32.2241 18.1613H25.1917V33.9209H29.6082V28.7226H31.137L33.9907 33.9209H38.7979L35.4855 28.0481C36.3349 27.6533 36.9973 27.094 37.473 26.3701V26.3866ZM29.5912 21.583H31.1539C31.6805 21.583 32.1222 21.6489 32.4789 21.7805C32.8526 21.9121 33.1244 22.1259 33.3282 22.4056C33.5321 22.6852 33.634 23.0636 33.634 23.5078C33.634 23.9519 33.5321 24.3138 33.3282 24.5935C33.1244 24.8731 32.8526 25.0706 32.4789 25.2022C32.1052 25.3338 31.6635 25.3831 31.1539 25.3831H29.5912V21.5666V21.583Z"></path>
<path fill="#C7C7C7" d="M51.9285 30.4828H44.6582V27.7684H51.3679V24.3303H44.6582V21.6159H51.9625V18.1778H40.2417V33.9374H51.9285V30.4828Z"></path>
<path fill="#C7C7C7" d="M77.5952 9.16292H53.9668V15.7102H77.5952V9.16292Z"></path>
<path fill="#C7C7C7" d="M72.8389 0.0493469H53.9668V6.59664H72.8389V0.0493469Z"></path>
<path fill="#C7C7C7" d="M85.0693 18.2765H53.9668V24.8238H85.0693V18.2765Z"></path>
<path fill="#C7C7C7" d="M72.8389 27.3901H53.9668V33.9374H72.8389V27.3901Z"></path>
</svg>
