<svg xmlns="http://www.w3.org/2000/svg" fill="none" viewBox="0 0 26 26" height="26" width="26">
<path fill="white" d="M13 0C20.1797 0 26 5.8203 26 13C26 20.1797 20.1797 26 13 26C5.8203 26 0 20.1797 0 13C0 5.8203 5.8203 0 13 0ZM13 1.625C6.71776 1.625 1.625 6.71776 1.625 13C1.625 19.2822 6.71776 24.375 13 24.375C19.2822 24.375 24.375 19.2822 24.375 13C24.375 6.71776 19.2822 1.625 13 1.625ZM16.9805 8.125C17.4292 8.125 17.793 8.48877 17.793 8.9375V15.3965C17.793 15.8452 17.4292 16.209 16.9805 16.209C16.5319 16.2088 16.168 15.8451 16.168 15.3965V10.8994L9.51172 17.5557C9.1945 17.8726 8.68051 17.8725 8.36328 17.5557C8.04598 17.2384 8.04598 16.7236 8.36328 16.4062L15.0195 9.75H10.5215C10.0729 9.74988 9.70899 9.38615 9.70898 8.9375C9.70898 8.48885 10.0729 8.12512 10.5215 8.125H16.9805Z"></path>
</svg>
