<svg xmlns="http://www.w3.org/2000/svg" fill="none" viewBox="0 0 397 26" height="26" width="397">
<g clip-path="url(#clip0_2898_1236)">
<path fill="#C7C7C7" d="M12.8387 15.0777C15.3847 13.9202 16.6725 11.615 16.6725 8.20178C16.6725 3.12644 13.7402 0.445312 8.1728 0.445312H0V25.5549H5.5476V15.9582H7.33075L11.4023 25.5549H17.465L12.8387 15.0777ZM5.5476 5.50087H7.65767C10.0253 5.50087 10.907 6.23298 10.907 8.19189C10.907 10.1508 10.0253 10.8829 7.65767 10.8829H5.5476V5.49097V5.50087Z"></path>
<path fill="#C7C7C7" d="M30.1551 0C23.9141 0 21.1304 4.00685 21.1304 13C21.1304 21.9932 23.9141 26 30.1551 26C36.3962 26 39.1799 21.9932 39.1799 13C39.1799 4.00685 36.3863 0 30.1551 0ZM30.1551 20.7466C28.1243 20.7466 26.8662 19.4505 26.8662 12.9901C26.8662 6.52968 28.1243 5.24353 30.1551 5.24353C32.1859 5.24353 33.4441 6.53957 33.4441 12.9901C33.4441 19.4406 32.1859 20.7466 30.1551 20.7466Z"></path>
<path fill="#C7C7C7" d="M57.586 0.445312V14.6919L51.3945 0.445312H45.936V25.5549H51.0081V10.0914L57.7148 25.5549H62.6581V0.445312H57.586Z"></path>
<path fill="#C7C7C7" d="M94.5173 5.50087V0.445312H78.3896V25.5549H83.9373V15.513H92.2983V10.4476H83.9373V5.50087H94.5173Z"></path>
<path fill="#C7C7C7" d="M106.95 0C100.709 0 97.9248 4.00685 97.9248 13C97.9248 21.9932 100.709 26 106.95 26C113.191 26 115.974 21.9932 115.974 13C115.974 4.00685 113.191 0 106.95 0ZM110.238 13C110.238 19.4505 108.98 20.7565 106.95 20.7565C104.919 20.7565 103.661 19.4604 103.661 13C103.661 6.53957 104.919 5.25342 106.95 5.25342C108.98 5.25342 110.238 6.54947 110.238 13Z"></path>
<path fill="#C7C7C7" d="M119.452 0.445312V5.50087H125.732V25.5549H131.28V5.50087H137.571V0.445312H119.452Z"></path>
<path fill="#C7C7C7" d="M154.57 0.445312V10.1211H149.022V0.445312H143.475V25.5549H149.022V15.1767H154.57V25.5549H160.117V0.445312H154.57Z"></path>
<path fill="#C7C7C7" d="M185.934 0.445312H179.822L172.966 25.5549H178.554L179.772 20.2025H185.765L187.024 25.5549H192.799L185.934 0.445312ZM182.843 5.87682L185.131 15.701H180.436L182.694 5.87682H182.843Z"></path>
<path fill="#C7C7C7" d="M204.162 0.445312H197.247V25.5549H204.162C211.255 25.5549 214.554 21.5678 214.554 13.0001C214.554 4.43238 211.255 0.445312 204.162 0.445312ZM208.818 13.0001C208.818 18.8175 207.659 20.4894 203.647 20.4894H202.795V5.50087H203.647C207.659 5.50087 208.818 7.18276 208.818 12.9902V13.0001Z"></path>
<path fill="#C7C7C7" d="M231.533 0.445312L227.798 16.4133L224.063 0.445312H218.298L224.965 25.5549H230.453L237.12 0.445312H231.533Z"></path>
<path fill="#C7C7C7" d="M258.993 5.50087V0.445312H242.866V25.5549H258.993V20.4894H248.413V15.1074H256.774V10.1904H248.413V5.50087H258.993Z"></path>
<path fill="#C7C7C7" d="M277.657 15.0777C280.203 13.9202 281.491 11.615 281.491 8.20178C281.491 3.12644 278.549 0.445312 272.981 0.445312H264.809V25.5549H270.356V15.9582H272.139L276.211 25.5549H282.274L277.647 15.0777H277.657ZM270.366 5.51076H272.476C274.844 5.51076 275.725 6.24288 275.725 8.20178C275.725 10.1607 274.844 10.8928 272.476 10.8928H270.366V5.50087V5.51076Z"></path>
<path fill="#C7C7C7" d="M284.948 0.445312V5.50087H291.239V25.5549H296.786V5.50087H303.067V0.445312H284.948Z"></path>
<path fill="#C7C7C7" d="M319.829 3.22537V0.445312H306.168V3.22537H309.972V22.6066H306.168V25.5549H319.829V22.6066H316.035V3.22537H319.829Z"></path>
<path fill="#C7C7C7" d="M354.442 3.22537V0.445312H340.781V3.22537H344.575V22.6066H340.781V25.5549H354.442V22.6066H350.638V3.22537H354.442Z"></path>
<path fill="#C7C7C7" d="M332.905 10.6848L330.459 10.0219C328.656 9.54706 327.923 8.81494 327.923 7.49911C327.923 6.11403 328.913 5.21372 330.439 5.21372C331.964 5.21372 332.955 6.05467 332.985 7.46943V7.83549H338.582V7.45954C338.503 2.85908 335.362 0.00976562 330.399 0.00976562C325.436 0.00976562 322.266 2.95801 322.266 7.68709C322.266 11.8127 324.099 13.9991 328.606 15.2061L331.053 15.869C332.856 16.3439 333.589 17.076 333.589 18.3918C333.589 19.9154 332.46 20.786 330.488 20.786C328.517 20.786 327.417 19.8857 327.348 18.1148V17.7586H321.761V18.1346C321.8 23.1308 325.01 25.9999 330.568 25.9999C336.125 25.9999 339.255 23.0714 339.255 18.1741C339.255 14.1277 337.363 11.8819 332.915 10.6947L332.905 10.6848Z"></path>
<path fill="#C7C7C7" d="M369.193 0.445312V14.6919L363.011 0.445312H357.553V25.5549H362.615V10.0914L369.322 25.5549H374.265V0.445312H369.193Z"></path>
<path fill="#C7C7C7" d="M387.272 10.9323V15.7009H391.591C391.462 20.1728 389.818 20.7565 388.381 20.7565C386.608 20.7565 384.795 19.8364 384.795 13C384.795 6.16362 386.014 5.25342 388.124 5.25342C389.709 5.25342 390.61 6.14384 391.056 8.14231L391.116 8.42922H396.881L396.812 7.99391C395.93 2.61187 393.077 0 388.094 0C381.853 0 379.069 4.00685 379.069 13C379.069 23.7443 383.616 26 387.43 26C390.056 26 391.849 24.981 392.879 22.9033L393.285 25.5548H397.01V10.9323H387.282H387.272Z"></path>
</g>
<defs>
<clipPath id="clip0_2898_1236">
<rect fill="white" height="26" width="397"></rect>
</clipPath>
</defs>
</svg>
