<svg width="30" height="30" viewBox="0 0 30 30" fill="none" xmlns="http://www.w3.org/2000/svg">
<rect x="0.5" y="0.5" width="29" height="29" rx="14.5" stroke="#EE1F48"/>
<path d="M13.3125 22.3125V18.369C13.3125 18.0938 13.5938 17.8125 13.875 17.8125H16.125C16.4062 17.8125 16.6875 18.0938 16.6875 18.375V22.3125C16.6875 22.6232 16.9393 22.875 17.25 22.875H21.75C22.0607 22.875 22.3125 22.6232 22.3125 22.3125V14.4375C22.3125 14.2883 22.2532 14.1452 22.1477 14.0398L20.625 12.517V8.8125C20.625 8.50184 20.3732 8.25 20.0625 8.25H18.9375C18.6268 8.25 18.375 8.50184 18.375 8.8125V10.267L15.3977 7.28975C15.1781 7.07008 14.8219 7.07008 14.6023 7.28975L7.85225 14.0398C7.74676 14.1452 7.6875 14.2883 7.6875 14.4375V22.3125C7.6875 22.6232 7.93934 22.875 8.25 22.875H12.75C13.0607 22.875 13.3125 22.6232 13.3125 22.3125Z" fill="#EE1F48"/>
</svg>
