<svg width="356" height="182" viewBox="0 0 356 182" fill="none" xmlns="http://www.w3.org/2000/svg">
<g opacity="0.7">
<mask id="mask0_11152_23381" style="mask-type:alpha" maskUnits="userSpaceOnUse" x="0" y="0" width="356" height="182">
<rect width="356" height="182" fill="url(#paint0_radial_11152_23381)"/>
</mask>
<g mask="url(#mask0_11152_23381)">
<rect y="-26" width="79.25" height="66" rx="8" fill="#08090A"/>
<rect y="-26" width="79.25" height="66" rx="8" fill="url(#paint1_linear_11152_23381)"/>
<rect y="-26" width="79.25" height="66" rx="8" stroke="#9C9D9D"/>
<rect x="92.25" y="-26" width="79.25" height="66" rx="8" fill="#08090A" stroke="#9C9D9D"/>
<rect x="184.5" y="-26" width="79.25" height="66" rx="8" fill="#08090A"/>
<rect x="184.5" y="-26" width="79.25" height="66" rx="8" fill="url(#paint2_linear_11152_23381)"/>
<rect x="184.5" y="-26" width="79.25" height="66" rx="8" stroke="#9C9D9D"/>
<rect x="276.75" y="-26" width="79.25" height="66" rx="8" fill="#08090A" stroke="#9C9D9D"/>
<rect opacity="0.7" y="140" width="79.25" height="66" rx="8" fill="#08090A" stroke="#9C9D9D"/>
<g opacity="0.7">
<rect x="92.25" y="140" width="79.25" height="66" rx="8" fill="#08090A"/>
<rect x="92.25" y="140" width="79.25" height="66" rx="8" fill="url(#paint3_linear_11152_23381)"/>
<rect x="92.25" y="140" width="79.25" height="66" rx="8" stroke="#9C9D9D"/>
</g>
<rect opacity="0.7" x="184.5" y="140" width="79.25" height="66" rx="8" fill="#08090A" stroke="#9C9D9D"/>
</g>
</g>
<defs>
<radialGradient id="paint0_radial_11152_23381" cx="0" cy="0" r="1" gradientUnits="userSpaceOnUse" gradientTransform="translate(158.623 93.6465) rotate(-143.334) scale(115.231 129.161)">
<stop stop-color="#08090A"/>
<stop offset="1" stop-color="#08090A" stop-opacity="0"/>
</radialGradient>
<linearGradient id="paint1_linear_11152_23381" x1="42.1016" y1="7" x2="-30.3777" y2="12.7842" gradientUnits="userSpaceOnUse">
<stop stop-color="#08090A" stop-opacity="0"/>
<stop offset="1" stop-color="#9C9D9D"/>
</linearGradient>
<linearGradient id="paint2_linear_11152_23381" x1="226.602" y1="7" x2="154.122" y2="12.7842" gradientUnits="userSpaceOnUse">
<stop stop-color="#08090A" stop-opacity="0"/>
<stop offset="1" stop-color="#9C9D9D"/>
</linearGradient>
<linearGradient id="paint3_linear_11152_23381" x1="134.352" y1="173" x2="61.8723" y2="178.784" gradientUnits="userSpaceOnUse">
<stop stop-color="#08090A" stop-opacity="0"/>
<stop offset="1" stop-color="#9C9D9D"/>
</linearGradient>
</defs>
</svg>
