<?xml version="1.0" encoding="UTF-8"?> <svg xmlns="http://www.w3.org/2000/svg" width="1228" height="176" viewBox="0 0 1228 176" fill="none"><path d="M0.0708724 122.963H27.7148C26.2655 142.979 36.9236 154.543 62.3935 154.543C85.1945 154.543 95.8526 145.861 95.8526 130.186C95.8526 87.5167 2.98728 112.348 2.98728 47.976C2.98728 20.2448 24.5687 0 60.6967 0C99.9709 0 118.406 18.3293 117.187 51.1041H90.5147C91.4868 31.8259 82.5079 21.9319 59.9543 21.9319C40.0698 21.9319 29.394 31.3338 29.394 45.3224C29.394 85.5836 122.507 62.1931 122.507 128.744C122.507 157.671 100.678 176 60.9265 176C18.5061 176 -1.37849 156.704 0.0708724 122.963Z" fill="#FDFEFA"></path><path d="M155.506 3.62012H208.372C241.107 3.62012 259.047 19.2958 259.047 49.6631C259.047 80.0303 239.162 98.1136 205.226 98.1136H183.167V172.362H155.524V3.62012H155.506ZM205.703 73.7741C222.671 73.7741 230.926 66.3053 230.926 50.8756C230.926 35.446 222.442 27.9772 205.474 27.9772H183.167V73.7741H205.721H205.703Z" fill="#FDFEFA"></path><path d="M287.416 3.62012H314.565V69.9255H390.462V3.62012H417.611V172.38H390.462V95.4775H314.565V172.38H287.416V3.62012Z" fill="#FDFEFA"></path><path d="M463.938 3.62012H550.74V29.1722H490.857V69.9079H535.716V95.4599H490.857V146.09H554.876V172.362H463.955V3.62012H463.938Z" fill="#FDFEFA"></path><path d="M592.948 3.62012H645.815C678.549 3.62012 696.489 19.2958 696.489 49.6631C696.489 71.3665 685.814 87.2706 667.149 94.2649C669.323 98.8517 671.992 105.354 674.908 112.823L698.434 172.362H668.616L640.247 98.1136H620.61V172.362H592.966V3.62012H592.948ZM643.128 73.7741C660.096 73.7741 668.351 66.3053 668.351 50.8756C668.351 35.446 659.866 27.9772 642.898 27.9772H620.592V73.7741H643.146H643.128Z" fill="#FDFEFA"></path><path d="M733.59 3.62012H761.234V172.38H733.59V3.62012Z" fill="#FDFEFA"></path><path d="M875.186 0C914.46 0 938.233 21.7034 941.379 58.3445H914.23C911.314 38.0997 896.767 24.8316 873.259 24.8316C843.441 24.8316 824.034 47.73 824.034 88.4833C824.034 129.237 843.671 151.168 873.507 151.168C898.234 151.168 911.809 140.554 915.45 117.902H942.599C937.756 154.297 912.781 176 873.012 176C824.511 176 796.143 144.895 796.143 90.1703C796.143 35.446 829.124 0 875.186 0Z" fill="#FDFEFA"></path><path d="M957.393 169.726L1016.07 3.62012H1048.81L1108.21 169.726V172.38H1080.09L1067.49 135.739H996.932L984.559 172.38H957.41V169.726H957.393ZM1005.4 110.661H1058.99L1043.72 66.0593L1032.09 30.3848L1020.46 66.0593L1005.42 110.661H1005.4Z" fill="#FDFEFA"></path><path d="M1133.19 3.62012H1160.83V146.107H1228V172.38H1133.19V3.62012Z" fill="#FDFEFA"></path></svg> 