<?xml version="1.0" encoding="UTF-8"?> <svg xmlns="http://www.w3.org/2000/svg" width="77" height="79" fill="none" viewBox="0 0 77 79"><g fill="#fdfefa" clip-path="url(#a)"><path d="M25.948 77.269c5.242.436 9.902.014 11.096-.204 18.842-3.419 32.02-19.335 31.904-37.914C68.83 21.023 55.55 4.277 35.718 1.673c-.276-.029-4.426-.684-10.454.073C31.438-.247 38.267 0 38.558.015 48.708.422 57.59 4.03 65.191 11.363 72.806 18.71 76.883 28.603 77 39.02 77.247 60.814 59.468 79.407 36.636 79l-.64-.03h-.38c-1.353-.086-5.955-.465-9.653-1.687"></path><path d="M33.316 11.072c-15.29 2.386-25.075 13.472-24.9 28.253.175 15.568 12.756 27.701 29.268 28.21 0 0 3.233-.189 6.888-.742-2.563 1.31-5.665 2.168-5.665 2.168-.946.233-1.572.393-1.616.408l-.903.16c-.276.029-.51.087-.771.13-.262.044-.554.088-.714.102-.422.044-.553.073-.946.102-.495.044-1.02.117-1.515.131C14.372 70.925-.073 56.188 0 39.587.073 21.896 13.906 8.497 31.205 8.57c.553 0 1.252.044 1.922.088.145 0 .32.029.626.058 0 0 1.005.102 1.733.218 1.296.218 2.577.451 3.786.815 1.427.422 3.218 1.062 4.572 1.702 0 0-3.772-1.251-10.513-.378"></path></g><defs><clipPath id="a"><path fill="#fff" d="M0 0h77v79H0z"></path></clipPath></defs></svg> 