<svg version="1.1" id="Layer_1" xmlns="http://www.w3.org/2000/svg" xmlns:xlink="http://www.w3.org/1999/xlink" x="0px" y="0px"
	 width="100%" viewBox="280 434 3100 1100" enable-background="new 0 0 3840 2160" xml:space="preserve">
<path fill="currentColor" opacity="1.000000" stroke="none" 
	d="
M1333.680664,1178.000244 
	C1333.680664,1269.928223 1333.680664,1360.856079 1333.680664,1452.978027 
	C1347.158813,1453.304321 1359.751953,1453.981934 1372.336182,1453.844360 
	C1411.286255,1453.419189 1449.353516,1447.677368 1485.745483,1433.234863 
	C1542.606079,1410.668945 1584.427368,1371.166992 1614.175293,1318.269531 
	C1635.760376,1279.887329 1649.135254,1238.548950 1658.018066,1195.621948 
	C1660.029541,1185.901733 1661.815918,1176.134888 1663.709961,1166.368042 
	C1669.959106,1166.368042 1675.529175,1166.368042 1681.642578,1166.368042 
	C1681.642578,1269.901855 1681.642578,1373.080444 1681.642578,1476.876953 
	C1471.448486,1476.876953 1261.333862,1476.876953 1050.679932,1476.876953 
	C1050.508301,1474.597534 1050.260742,1472.684204 1050.239746,1470.768433 
	C1050.182373,1465.507690 1050.220093,1460.245972 1050.220093,1454.228638 
	C1072.223999,1454.228638 1093.418213,1454.228638 1115.304443,1454.228638 
	C1115.304443,1122.001343 1115.304443,790.559265 1115.304443,457.957001 
	C1094.012573,457.957001 1072.573853,457.957001 1050.690430,457.957001 
	C1050.690430,449.629944 1050.690430,442.455627 1050.690430,434.665588 
	C1255.736206,434.665588 1460.527222,434.665588 1665.900391,434.665588 
	C1665.900391,523.919128 1665.900391,613.055481 1665.900391,702.717773 
	C1659.466187,702.717773 1653.267944,702.717773 1646.985840,702.717773 
	C1643.308594,685.342957 1640.559448,667.906128 1635.795166,651.038391 
	C1630.565063,632.520935 1624.698364,613.992676 1616.983276,596.401428 
	C1587.722778,529.684082 1536.737549,488.232727 1466.408569,470.379059 
	C1423.666016,459.528412 1380.191528,457.568451 1336.375244,460.837830 
	C1335.762207,460.883575 1335.181641,461.362640 1334.134277,461.849365 
	C1334.134277,616.491028 1334.134277,771.334045 1334.134277,926.326965 
	C1335.723755,926.792725 1336.961304,927.404175 1338.234863,927.491943 
	C1366.023438,929.406311 1393.559692,928.446411 1420.226196,919.329895 
	C1451.977173,908.475159 1475.420776,887.737793 1491.390137,858.442322 
	C1505.125977,833.244446 1512.069214,805.902893 1516.018921,777.708557 
	C1517.541626,766.837769 1518.565674,755.897095 1519.876831,744.467407 
	C1525.844482,744.467407 1531.616943,744.467407 1537.838623,744.467407 
	C1537.838623,878.626160 1537.838623,1012.477600 1537.838623,1146.912598 
	C1532.073730,1146.912598 1526.561279,1146.912598 1519.998535,1146.912598 
	C1518.728516,1135.666016 1517.597534,1124.198486 1516.110718,1112.777100 
	C1512.698975,1086.570557 1506.582642,1061.066650 1495.362793,1037.001221 
	C1473.440674,989.981262 1436.140137,963.827515 1385.307129,956.031128 
	C1368.486206,953.451355 1351.607178,953.462891 1333.680664,953.697449 
	C1333.680664,1028.550171 1333.680664,1102.775146 1333.680664,1178.000244 
z"/>
<path fill="currentColor" opacity="1.000000" stroke="none" 
	d="
M1785.580566,502.509491 
	C1779.659546,488.329773 1774.021118,474.862885 1768.115479,460.757690 
	C1747.946045,460.757690 1728.063232,460.757690 1707.807861,460.757690 
	C1707.807861,451.642181 1707.807861,443.412323 1707.807861,434.618500 
	C1830.524170,434.618500 1952.961426,434.618500 2075.837891,434.618500 
	C2075.837891,443.207733 2075.837891,451.423309 2075.837891,460.751099 
	C2054.603027,460.751099 2033.466553,460.751099 2010.729248,460.751099 
	C2070.780273,611.660095 2130.227051,761.050537 2190.489746,912.491394 
	C2198.059570,892.220276 2204.808594,874.278809 2211.463379,856.302368 
	C2247.498047,758.965759 2283.677979,661.682129 2319.357178,564.215332 
	C2325.049561,548.664978 2328.556885,532.305359 2332.852783,516.260559 
	C2333.789062,512.763672 2333.920166,509.021851 2334.169678,505.375610 
	C2335.226074,489.947418 2328.142090,479.151581 2314.727539,472.291504 
	C2301.427490,465.489929 2286.917236,463.294739 2272.262939,462.065613 
	C2262.665527,461.260590 2253.025146,460.968719 2242.756348,460.411896 
	C2242.756348,451.790375 2242.756348,443.406494 2242.756348,434.534180 
	C2327.262939,434.534180 2411.471924,434.534180 2496.422852,434.534180 
	C2496.422852,442.914490 2496.422852,451.336456 2496.422852,460.300018 
	C2489.033447,460.784882 2481.785645,461.212311 2474.545166,461.743652 
	C2437.304443,464.476715 2407.983887,481.198486 2386.397949,511.630249 
	C2369.678955,535.200928 2358.289307,561.452454 2348.260742,588.304077 
	C2302.751709,710.156738 2257.405273,832.070190 2212.152344,954.018127 
	C2210.463623,958.568726 2209.618652,963.704651 2209.614746,968.568787 
	C2209.485840,1126.546265 2209.508789,1284.523804 2209.509033,1442.501343 
	C2209.509033,1445.420166 2209.509033,1448.339111 2209.509033,1452.192139 
	C2233.130615,1452.192139 2255.947021,1452.192139 2279.278809,1452.192139 
	C2279.278809,1460.923706 2279.278809,1468.707397 2279.278809,1476.992432 
	C2160.618896,1476.992432 2042.458374,1476.992432 1923.844727,1476.992432 
	C1923.590332,1474.885986 1923.186523,1472.966675 1923.158203,1471.041626 
	C1923.070557,1465.099854 1923.126221,1459.156006 1923.126221,1452.348145 
	C1946.847412,1452.348145 1969.677246,1452.348145 1993.616089,1452.348145 
	C1993.616089,1448.247192 1993.616089,1445.022339 1993.616089,1441.797485 
	C1993.617310,1298.484497 1993.651367,1155.171631 1993.485962,1011.858826 
	C1993.479980,1006.727539 1992.296997,1001.270142 1990.329712,996.516113 
	C1922.273682,832.043701 1854.057129,667.637756 1785.580566,502.509491 
z"/>
<path fill="currentColor" opacity="1.000000" stroke="none" 
	d="
M585.466919,1384.720459 
	C536.881409,1195.411133 488.493622,1006.903564 440.142578,818.386658 
	C410.056885,701.084778 380.029541,583.767944 349.951630,466.463989 
	C349.386078,464.258392 348.518707,462.130188 347.578827,459.330322 
	C325.215393,459.330322 302.984894,459.330322 280.126221,459.330322 
	C280.126221,450.785858 280.126221,442.982605 280.126221,434.613708 
	C398.965057,434.613708 517.761353,434.613708 637.119080,434.613708 
	C637.119080,442.656647 637.119080,450.450470 637.119080,459.161957 
	C615.583801,459.161957 594.369873,459.161957 571.842712,459.161957 
	C632.730713,687.110840 693.302429,913.875732 753.874146,1140.640625 
	C754.415833,1140.655518 754.957581,1140.670288 755.499268,1140.685181 
	C758.889526,1127.829468 762.347534,1114.991333 765.659729,1102.115479 
	C808.178101,936.830444 850.763611,771.562500 893.096375,606.229858 
	C900.603943,576.908813 908.135925,547.534546 910.708862,517.201050 
	C912.548645,495.511200 905.039917,481.759460 885.454712,471.856293 
	C870.004150,464.043793 853.260803,461.352325 836.238525,460.022125 
	C829.959534,459.531433 823.650452,459.426483 816.607788,459.112244 
	C816.607788,451.042511 816.607788,443.252319 816.607788,434.748352 
	C893.001099,434.748352 969.733887,434.748352 1046.969360,434.748352 
	C1046.969360,442.623932 1046.969360,450.182404 1046.969360,458.771393 
	C1044.312500,459.136017 1041.466431,459.447418 1038.649048,459.926941 
	C1026.851929,461.934753 1014.854004,463.190796 1003.316467,466.203583 
	C980.875000,472.063751 963.618530,485.478363 953.968811,506.657593 
	C946.831543,522.322571 940.542908,538.613403 936.078186,555.217529 
	C910.335693,650.952515 885.221924,746.856750 859.945374,842.716858 
	C805.659302,1048.594360 751.406372,1254.480591 697.130371,1460.360840 
	C693.489380,1474.171875 689.768372,1487.962036 686.034729,1501.948486 
	C662.586853,1501.948486 639.642090,1501.948486 615.443909,1501.948486 
	C605.563293,1463.297363 595.621704,1424.407837 585.466919,1384.720459 
z"/>
<path fill="currentColor" opacity="1.000000" stroke="none" 
	d="
M3063.976074,1477.496216 
	C2957.075928,1477.496216 2851.170410,1477.496216 2744.675781,1477.496216 
	C2744.675781,1469.510010 2744.675781,1462.359253 2744.675781,1454.353271 
	C2764.187256,1454.353271 2783.704834,1454.353271 2803.136963,1454.353271 
	C2803.876465,1445.823364 2748.958984,1209.439331 2739.079346,1177.681641 
	C2663.109375,1177.681641 2586.938965,1177.681641 2509.935303,1177.681641 
	C2509.011963,1180.465942 2507.868652,1183.494995 2506.998291,1186.600708 
	C2492.453857,1238.488525 2477.822510,1290.352417 2463.483398,1342.296997 
	C2457.435547,1364.206177 2453.546875,1386.453491 2455.616455,1409.378052 
	C2457.372070,1428.821533 2467.819824,1441.277466 2486.059570,1447.338501 
	C2501.412354,1452.440552 2517.426758,1453.203247 2533.423828,1453.833008 
	C2536.660889,1453.960449 2539.907471,1453.851562 2543.574707,1453.851562 
	C2543.574707,1462.021606 2543.574707,1469.192017 2543.574707,1476.930176 
	C2478.106934,1476.930176 2412.997070,1476.930176 2347.333496,1476.930176 
	C2347.333496,1469.315552 2347.333496,1462.144409 2347.333496,1454.398193 
	C2350.493164,1454.216919 2353.393311,1453.989746 2356.297607,1453.893433 
	C2377.864014,1453.177856 2395.260254,1444.323730 2406.108643,1425.598511 
	C2413.227783,1413.310181 2419.690918,1400.241089 2423.867188,1386.724365 
	C2435.940918,1347.645020 2446.857666,1308.204468 2457.966309,1268.831543 
	C2529.682861,1014.643433 2601.329102,760.435364 2672.999756,506.234375 
	C2681.304199,476.780731 2689.608398,447.327087 2697.938477,417.880798 
	C2698.742432,415.037994 2699.730957,412.247375 2700.629150,409.446533 
	C2724.022217,409.446533 2746.958496,409.446533 2770.898438,409.446533 
	C2855.321045,757.532043 2939.725098,1105.541992 3024.212646,1453.895386 
	C3047.234619,1453.895386 3069.517822,1453.895386 3092.416992,1453.895386 
	C3092.416992,1461.882324 3092.416992,1469.322632 3092.416992,1477.496216 
	C3082.851318,1477.496216 3073.911133,1477.496216 3063.976074,1477.496216 
M2643.743164,789.498413 
	C2641.802002,781.758057 2640.078613,773.954590 2637.856934,766.295532 
	C2635.767578,759.091187 2635.288330,751.305664 2630.953857,743.117920 
	C2592.369141,879.757019 2554.296631,1014.582581 2516.086182,1149.896240 
	C2588.933105,1149.896240 2660.457520,1149.896240 2733.048828,1149.896240 
	C2703.267578,1029.858765 2673.652588,910.491394 2643.743164,789.498413 
z"/>
<path fill="currentColor" opacity="1.000000" stroke="none" 
	d="
M3345.344482,1304.692627 
	C3376.215576,1347.440186 3372.395020,1407.103271 3341.659912,1443.818848 
	C3310.556152,1480.974487 3270.043457,1492.928223 3223.986084,1481.023682 
	C3179.138672,1469.431641 3151.434814,1439.006470 3142.162842,1393.501099 
	C3130.902832,1338.239746 3161.034668,1288.759033 3207.322510,1268.272949 
	C3257.447998,1246.088623 3314.146729,1262.090454 3345.344482,1304.692627 
z"/>
<path fill="currentColor" opacity="1.000000" stroke="none" 
	d="
M3193.831055,638.052979 
	C3177.571777,638.052856 3162.286865,638.052856 3146.415283,638.052856 
	C3146.415283,634.901978 3146.415283,632.422485 3146.415283,629.298340 
	C3148.964355,629.095886 3151.531006,628.727173 3154.099365,628.715698 
	C3167.430664,628.655884 3180.763916,628.785583 3194.093994,628.635925 
	C3199.076416,628.580017 3204.168457,628.495361 3209.008789,627.470764 
	C3222.125977,624.694214 3231.062744,614.557678 3232.022949,600.730286 
	C3232.709717,590.841614 3232.156494,580.866760 3232.156494,570.122437 
	C3203.717041,570.122437 3175.527344,570.122437 3146.472412,570.122437 
	C3146.273682,566.670532 3146.118408,563.975647 3145.933838,560.769287 
	C3208.004639,560.769287 3269.230713,560.769287 3331.161377,560.769287 
	C3331.470703,562.820435 3332.064697,564.985535 3332.078613,567.154358 
	C3332.145020,577.485352 3332.346191,587.828369 3331.958008,598.146790 
	C3331.115479,620.540894 3319.538574,633.410889 3297.427490,636.260986 
	C3289.881592,637.233643 3282.141602,637.500244 3274.543213,637.095154 
	C3259.334717,636.284302 3245.791504,631.590881 3237.064941,617.190247 
	C3226.981689,633.362122 3212.294922,638.653564 3193.831055,638.052979 
M3255.141602,569.824036 
	C3250.940918,569.824036 3246.740234,569.824036 3241.980957,569.824036 
	C3241.980957,577.909546 3241.952148,584.833618 3241.994385,591.757202 
	C3242.012695,594.745605 3242.009521,597.749878 3242.305420,600.718079 
	C3243.754883,615.255615 3250.160645,622.915527 3264.532227,626.395447 
	C3277.313721,629.490295 3290.224854,629.328674 3302.975586,625.952393 
	C3314.167480,622.988892 3320.875000,615.393494 3321.791748,604.093567 
	C3322.691650,593.000305 3321.988037,581.776917 3321.988037,569.824036 
	C3300.175781,569.824036 3278.645752,569.824036 3255.141602,569.824036 
z"/>
<path fill="currentColor" opacity="1.000000" stroke="none" 
	d="
M3202.308594,798.023682 
	C3202.308105,790.090332 3202.308105,783.147827 3202.308105,775.773865 
	C3183.253174,771.500977 3164.836426,767.371216 3146.071777,763.163452 
	C3146.071777,760.348267 3146.071777,757.783875 3146.071777,755.301941 
	C3146.829590,754.949829 3147.452148,754.376648 3147.918701,754.484009 
	C3206.854004,768.044983 3265.772217,781.681641 3324.714355,795.213379 
	C3329.228271,796.249695 3333.548096,796.859680 3330.913330,804.202637 
	C3270.006348,818.145447 3208.559326,832.211853 3146.389160,846.443848 
	C3146.072754,843.415100 3145.815918,840.957031 3145.459229,837.541016 
	C3164.408203,833.106323 3183.048096,828.743958 3202.308838,824.236267 
	C3202.308838,815.566589 3202.308838,807.290588 3202.308594,798.023682 
M3211.418213,780.944702 
	C3211.418213,794.465881 3211.418213,807.987061 3211.418213,822.305298 
	C3242.862061,815.078613 3273.013916,808.148865 3303.165527,801.219116 
	C3301.742432,799.182007 3300.332275,798.520813 3298.848389,798.176880 
	C3285.569092,795.097900 3272.297852,791.977051 3258.982178,789.060791 
	C3243.436523,785.656250 3227.848877,782.444641 3211.418213,780.944702 
z"/>
<path fill="currentColor" opacity="1.000000" stroke="none" 
	d="
M3317.884766,515.309082 
	C3322.620117,508.230713 3323.369141,501.036041 3322.678467,493.609161 
	C3321.432373,480.208038 3314.924072,472.129303 3301.766113,469.001129 
	C3295.034180,467.400696 3287.951904,466.689453 3281.018311,466.625366 
	C3253.056152,466.366882 3225.086182,466.255859 3197.127930,466.678345 
	C3188.916748,466.802429 3180.448730,467.913055 3172.604492,470.261841 
	C3159.995605,474.037292 3154.109619,483.908081 3154.310303,497.929871 
	C3154.503418,511.433563 3160.538574,520.348633 3172.767822,524.556580 
	C3176.824219,525.952332 3181.107178,526.857971 3185.360840,527.466431 
	C3189.612793,528.074585 3193.958008,528.030579 3198.960205,528.311646 
	C3199.237305,530.838806 3199.506836,533.297058 3199.894043,536.828674 
	C3183.697754,537.589111 3168.729980,536.457031 3156.501465,525.403625 
	C3138.829102,509.429199 3142.658936,475.338104 3163.758057,464.430969 
	C3170.907227,460.735229 3179.529541,458.286255 3187.535156,458.128174 
	C3221.809326,457.451447 3256.104492,457.836884 3290.391846,457.860779 
	C3292.051025,457.861938 3293.721924,458.022736 3295.367676,458.250824 
	C3329.436523,462.972656 3336.281982,487.960938 3329.447266,512.523010 
	C3327.419434,519.810669 3322.633789,525.461060 3316.131592,529.402466 
	C3304.572998,536.409241 3291.882812,537.518127 3278.421387,536.893555 
	C3278.288086,533.969971 3278.184814,531.711243 3278.051025,528.776489 
	C3292.071533,526.904114 3307.265137,528.687805 3317.884766,515.309082 
z"/>
<path fill="currentColor" opacity="1.000000" stroke="none" 
	d="
M3250.000977,663.401611 
	C3277.593994,663.401611 3304.187012,663.401611 3331.302979,663.401611 
	C3331.302979,685.903198 3331.302979,707.687622 3331.302979,729.869385 
	C3328.791016,729.869385 3326.575439,729.869385 3323.190918,729.869385 
	C3323.190918,710.907959 3323.190918,692.132019 3323.190918,672.868408 
	C3296.192383,672.868408 3270.354004,672.868408 3243.427246,672.868408 
	C3243.427246,691.613586 3243.427246,710.457703 3243.427246,729.687195 
	C3240.161865,729.894348 3237.950439,730.034668 3234.671875,730.242615 
	C3234.671875,711.036255 3234.671875,692.247864 3234.671875,672.911560 
	C3207.523193,672.911560 3181.409424,672.911560 3154.333984,672.911560 
	C3154.333984,691.764648 3154.333984,710.564575 3154.333984,729.796204 
	C3151.207275,729.796204 3149.036621,729.796204 3146.264648,729.796204 
	C3146.264648,707.952393 3146.264648,686.128906 3146.264648,663.401550 
	C3180.564941,663.401550 3214.782959,663.401550 3250.000977,663.401611 
z"/>
<path fill="currentColor" opacity="1.000000" stroke="none" 
	d="
M3213.000488,1051.431030 
	C3252.783447,1041.418823 3291.764648,1031.608276 3331.520020,1021.602844 
	C3331.707520,1024.917969 3331.849121,1027.419556 3332.033936,1030.683228 
	C3278.993164,1044.018677 3226.283447,1057.270996 3173.573486,1070.523438 
	C3173.517822,1071.265625 3173.462402,1072.007812 3173.406738,1072.750000 
	C3226.078613,1085.916138 3278.750244,1099.082275 3331.601074,1112.293091 
	C3331.601074,1115.311768 3331.601074,1117.813599 3331.601074,1121.138062 
	C3328.459229,1120.517578 3325.907227,1120.128906 3323.414551,1119.504028 
	C3267.245361,1105.428223 3211.083008,1091.325928 3154.918945,1077.229614 
	C3152.982178,1076.743530 3150.691895,1076.747925 3149.196777,1075.658325 
	C3147.435547,1074.374878 3146.362061,1072.146973 3143.805420,1068.758057 
	C3167.905273,1062.723511 3190.052002,1057.178101 3213.000488,1051.431030 
z"/>
<path fill="currentColor" opacity="1.000000" stroke="none" 
	d="
M3182.003418,1151.424927 
	C3172.400391,1151.424927 3163.798340,1151.424927 3154.491211,1151.424927 
	C3154.491211,1170.896729 3154.491211,1189.431641 3154.491211,1208.650757 
	C3151.379395,1208.820557 3148.943359,1208.953491 3146.041504,1209.111816 
	C3146.041504,1186.565186 3146.041504,1164.691406 3146.041504,1142.392944 
	C3207.795410,1142.392944 3269.264160,1142.392944 3331.317383,1142.392944 
	C3331.317383,1164.561523 3331.317383,1186.351807 3331.317383,1208.689209 
	C3328.670654,1208.689209 3326.262939,1208.689209 3323.040527,1208.689209 
	C3323.040527,1189.574341 3323.040527,1171.054932 3323.040527,1151.989502 
	C3296.396484,1151.989502 3270.558594,1151.989502 3243.532715,1151.989502 
	C3243.532715,1170.630005 3243.532715,1189.389771 3243.532715,1208.705688 
	C3239.930176,1208.705688 3237.511719,1208.705688 3234.316895,1208.705688 
	C3234.316895,1189.602417 3234.316895,1171.081177 3234.316895,1151.424927 
	C3216.710449,1151.424927 3199.857178,1151.424927 3182.003418,1151.424927 
z"/>
<path fill="currentColor" opacity="1.000000" stroke="none" 
	d="
M3291.995850,921.739441 
	C3243.084473,921.739441 3195.172607,921.739441 3146.393555,921.739441 
	C3146.246826,918.467957 3146.125732,915.775269 3145.971191,912.331787 
	C3204.991699,912.331787 3263.159668,912.331787 3322.424805,912.331787 
	C3322.424805,897.550354 3322.424805,883.443665 3322.424805,868.799805 
	C3325.965576,868.553833 3328.450684,868.381226 3331.559570,868.165283 
	C3331.559570,900.832886 3331.559570,932.961426 3331.559570,965.472595 
	C3328.697266,965.472595 3326.204834,965.472595 3323.049805,965.472595 
	C3323.049805,951.135437 3323.049805,937.219910 3323.049805,922.006470 
	C3312.639648,921.914001 3302.817627,921.826721 3291.995850,921.739441 
z"/>
<path fill="currentColor" opacity="1.000000" stroke="none" 
	d="
M3303.981934,999.935547 
	C3251.056396,999.935547 3199.126221,999.935547 3146.290771,999.935547 
	C3146.062012,997.050598 3145.844482,994.306580 3145.578613,990.951904 
	C3207.740723,990.951904 3269.134277,990.951904 3331.290527,990.951904 
	C3331.515381,993.517761 3331.733398,996.003540 3332.078125,999.935547 
	C3322.702148,999.935547 3313.840088,999.935547 3303.981934,999.935547 
z"/>
<path fill="none" opacity="1.000000" stroke="none" 
	d="
M2643.890381,790.311218 
	C2673.652588,910.491394 2703.267578,1029.858765 2733.048828,1149.896240 
	C2660.457520,1149.896240 2588.933105,1149.896240 2516.086182,1149.896240 
	C2554.296631,1014.582581 2592.369141,879.757019 2630.953857,743.117920 
	C2635.288330,751.305664 2635.767578,759.091187 2637.856934,766.295532 
	C2640.078613,773.954590 2641.802002,781.758057 2643.890381,790.311218 
z"/>
<path fill="none" opacity="1.000000" stroke="none" 
	d="
M3256.128662,569.824036 
	C3278.645752,569.824036 3300.175781,569.824036 3321.988037,569.824036 
	C3321.988037,581.776917 3322.691650,593.000305 3321.791748,604.093567 
	C3320.875000,615.393494 3314.167480,622.988892 3302.975586,625.952393 
	C3290.224854,629.328674 3277.313721,629.490295 3264.532227,626.395447 
	C3250.160645,622.915527 3243.754883,615.255615 3242.305420,600.718079 
	C3242.009521,597.749878 3242.012695,594.745605 3241.994385,591.757202 
	C3241.952148,584.833618 3241.980957,577.909546 3241.980957,569.824036 
	C3246.740234,569.824036 3250.940918,569.824036 3256.128662,569.824036 
z"/>
<path fill="none" opacity="1.000000" stroke="none" 
	d="
M3211.848633,780.046997 
	C3227.848877,782.444641 3243.436523,785.656250 3258.982178,789.060791 
	C3272.297852,791.977051 3285.569092,795.097900 3298.848389,798.176880 
	C3300.332275,798.520813 3301.742432,799.182007 3303.165527,801.219116 
	C3273.013916,808.148865 3242.862061,815.078613 3211.418213,822.305298 
	C3211.418213,807.987061 3211.418213,794.465881 3211.848633,780.046997 
z"/>
</svg>