<svg width="1110" height="178" viewBox="0 0 1110 178" fill="none" xmlns="http://www.w3.org/2000/svg">
<g clip-path="url(#clip0_2232_864)">
<path d="M671.099 159.442C666.377 159.442 662.41 155.476 662.41 150.754C662.41 146.031 666.377 142.064 671.099 142.064C675.821 142.064 679.787 146.031 679.787 150.754C679.787 155.476 675.821 159.442 671.099 159.442Z" fill="white"/>
<path d="M770.366 157.168H686.119L686.492 154.901C699.343 154.901 701.608 147.723 704.626 133.745L723.899 43.0768C726.917 29.0989 727.676 21.921 714.832 21.921L715.205 19.6543H752.985L752.606 21.921C739.761 21.921 737.496 29.0989 734.472 43.0768L713.32 142.812C711.998 148.856 713.32 151.879 718.983 151.879H739.008C759.407 151.879 763.564 149.801 778.484 127.511H780.756L770.366 157.168Z" fill="white"/>
<path d="M816.936 38.5482C812.4 38.5482 808.622 34.7705 808.622 30.2371C808.622 25.7036 812.4 21.9258 816.936 21.9258C821.467 21.9258 825.244 25.7036 825.244 30.2371C825.244 34.7705 821.467 38.5482 816.936 38.5482ZM795.778 159.439C788.223 159.439 789.546 149.239 791.241 141.683L805.225 75.9491C806.357 70.6602 807.49 66.1267 804.092 66.1267C801.257 66.1267 796.721 72.3597 790.488 81.9935L787.464 80.1042C796.158 63.8597 803.902 55.9266 810.697 55.9266C817.12 55.9266 817.499 62.7265 815.234 73.6821L801.258 139.416C800.688 142.061 799.176 148.295 802.58 148.295C806.357 148.295 813.532 139.228 819.764 129.216L822.789 131.106C813.342 148.861 803.333 159.439 795.778 159.439Z" fill="white"/>
<path d="M847.878 159.438C832.573 159.438 831.63 142.06 835.787 122.226L845.424 75.9483C846.366 71.6034 847.878 66.1259 844.664 66.1259C841.639 66.1259 837.109 72.3588 830.877 81.9927L827.853 80.1034C836.54 63.8588 844.284 55.9258 851.276 55.9258C859.21 55.9258 856.755 68.3923 855.623 73.6812L845.044 123.549C841.639 139.605 842.962 151.505 853.921 151.505C873.94 151.505 895.668 107.871 895.668 82.559C895.668 73.3035 893.023 63.8588 886.974 60.0808V57.8144L896.421 55.9258C901.9 60.0808 904.355 67.2591 904.355 75.3814C904.355 103.526 877.534 159.438 847.878 159.438Z" fill="white"/>
<path d="M939.413 38.5482C934.883 38.5482 931.099 34.7705 931.099 30.2371C931.099 25.7036 934.883 21.9258 939.413 21.9258C943.95 21.9258 947.727 25.7036 947.727 30.2371C947.727 34.7705 943.95 38.5482 939.413 38.5482ZM918.255 159.439C910.7 159.439 912.022 149.239 913.725 141.683L927.701 75.9491C928.834 70.6602 929.966 66.1267 926.569 66.1267C923.734 66.1267 919.204 72.3597 912.972 81.9935L909.947 80.1042C918.634 63.8597 926.379 55.9266 933.181 55.9266C939.603 55.9266 939.983 62.7265 937.711 73.6821L923.734 139.416C923.171 142.061 921.659 148.295 925.057 148.295C928.834 148.295 936.016 139.228 942.248 129.216L945.272 131.106C935.826 148.861 925.816 159.439 918.255 159.439Z" fill="white"/>
<path d="M1041.7 131.463L1043.68 133.436C1034.23 151.192 1022.3 159.438 1015.31 159.438C1008.52 159.438 1007.57 153.016 1010.21 141.683L1021.73 91.8151C1025.14 77.0815 1027.4 64.992 1017.01 64.992C998.128 64.992 971.3 107.871 960.727 157.172H951.281L968.472 75.9483C969.604 70.6594 970.737 66.1259 967.333 66.1259C964.505 66.1259 959.968 72.3588 953.735 81.9927L950.711 80.1034C959.405 63.8588 967.149 55.9258 973.945 55.9258C980.367 55.9258 980.746 62.7256 978.481 73.6812L969.787 114.482C984.144 79.3479 1003.98 55.9258 1022.3 55.9258C1038.36 55.9258 1035.53 73.4927 1030.99 93.1375L1020.41 139.416C1019.28 144.704 1017.96 149.238 1021.17 149.238C1024.76 149.238 1033.9 140.618 1041.7 131.463Z" fill="white"/>
<path d="M1087.61 58.7582L1110.12 56.8831L1106.63 64.2505L1092.84 63.0448C1095.52 66.2599 1097.12 70.5465 1097.12 75.7704C1097.12 90.6389 1085.6 103.499 1070.2 103.767C1063.36 105.91 1060.82 107.25 1060.82 109.928C1060.82 111.803 1062.03 113.144 1064.71 113.813L1077.96 117.43C1089.89 120.779 1099.54 123.993 1099.54 133.772C1099.54 148.641 1080.91 160.161 1058.68 160.161C1043.14 160.161 1036.04 153.597 1036.04 143.952C1036.04 136.585 1040.46 130.289 1052.25 124.395L1054.12 123.592L1057.21 124.261C1048.5 128.548 1044.75 134.844 1044.75 141.006C1044.75 149.311 1051.58 154.803 1065.51 154.803C1079.57 154.803 1091.49 148.239 1091.49 139.8C1091.49 132.299 1083.73 129.619 1075.56 127.476L1059.08 123.056C1054.39 121.716 1050.64 119.171 1050.64 114.616C1050.64 108.723 1056.53 105.106 1063.64 103.097C1054.53 100.954 1048.9 93.9883 1048.9 84.0757C1048.9 68.9386 1061.09 55.9452 1077.03 56.2131C1081.05 56.3473 1084.66 57.1509 1087.61 58.7582ZM1069.13 100.284C1080.78 100.284 1087.08 84.0757 1087.08 72.4216C1087.08 63.9827 1083.73 59.6961 1077.03 59.6961C1065.38 59.6961 1058.95 75.7704 1058.95 87.5581C1058.95 95.8634 1062.43 100.284 1069.13 100.284Z" fill="white"/>
<path d="M3.77734 19.6574H45.5224C72.3451 19.6574 89.912 34.0131 89.912 57.8134C89.912 82.1802 71.7782 97.8585 47.4114 97.8585C38.9112 97.8585 31.9222 95.9699 27.9555 94.4582V133.748C27.9555 147.726 29.4666 154.904 42.3113 154.904V157.171H3.77734V154.904C16.622 154.904 17.3776 147.726 17.3776 133.748V43.0798C17.3776 29.102 16.622 21.924 3.77734 21.924V19.6574ZM43.0668 92.1918C65.1672 92.1918 78.201 80.8585 78.201 57.8134C78.201 35.902 66.4894 24.9463 44.578 24.9463H35.1334C30.6 24.9463 27.9555 27.213 27.9555 31.7464V83.5026C27.9555 85.7697 27.9555 92.1918 43.0668 92.1918ZM137.823 18.1462L177.301 132.992C182.968 149.237 186.368 154.148 194.49 154.904V157.171H158.223V154.904C168.801 154.148 172.012 150.182 167.479 136.959L157.656 108.248H109.489L104.389 123.548C96.8333 145.837 94.944 154.148 108.922 154.904V157.171H78.5109V154.904C85.6885 154.148 90.4112 144.893 98.1557 122.037L133.667 18.1462H137.823ZM133.29 37.6021L111.378 102.581H155.579L133.29 37.6021ZM233.952 157.171H196.174V154.904C209.018 154.904 209.774 147.726 209.774 133.748V43.0798C209.774 29.102 209.018 21.924 196.174 21.924V19.6574H233.952V21.924C221.108 21.924 220.352 29.102 220.352 43.0798V133.748C220.352 147.726 221.108 154.904 233.952 154.904V157.171ZM279.142 159.437C267.808 159.437 252.319 155.848 243.819 150.371L242.875 124.492H245.141C251.752 145.082 264.975 154.148 280.086 154.148C296.142 154.148 310.687 143.948 310.687 125.626C310.687 108.248 298.22 100.881 281.597 92.3811L272.342 87.6584C258.175 80.4808 245.519 71.7916 245.519 53.0914C245.519 32.6909 261.197 17.3906 282.542 17.3906C292.931 17.3906 306.153 20.9796 315.22 26.2686V45.9132H312.953C306.909 29.2908 295.576 22.6796 282.164 22.6796C265.541 22.6796 255.153 32.8798 255.153 48.3688C255.153 65.1802 267.053 72.1693 277.819 77.6474L287.076 82.3694C303.698 90.8695 320.32 99.5586 320.32 121.659C320.32 143.948 302.942 159.437 279.142 159.437ZM377.258 18.1462L416.736 132.992C422.403 149.237 425.803 154.148 433.925 154.904V157.171H397.658V154.904C408.236 154.148 411.447 150.182 406.914 136.959L397.091 108.248H348.924L343.824 123.548C336.268 145.837 334.38 154.148 348.358 154.904V157.171H317.946V154.904C325.123 154.148 329.846 144.893 337.591 122.037L373.102 18.1462H377.258ZM372.725 37.6021L350.813 102.581H395.013L372.725 37.6021ZM515.511 21.924V19.6574H550.267V21.924C539.689 21.924 537.8 33.2576 537.8 52.9022V158.682H534.022L455.821 34.3909V128.27C455.821 143.948 457.71 154.904 469.988 154.904V157.171H433.909V154.904C445.621 154.904 449.398 143.948 449.398 128.27V41.1912C449.398 28.913 444.865 23.4352 433.909 21.924V19.6574H459.032L531.378 134.693V52.9022C531.378 33.2576 527.977 21.924 515.511 21.924ZM605.625 18.1462L645.104 132.992C650.77 149.237 654.17 154.148 662.293 154.904V157.171H626.026V154.904C636.604 154.148 639.815 150.182 635.281 136.959L625.459 108.248H577.291L572.192 123.548C564.636 145.837 562.747 154.148 576.724 154.904V157.171H546.313V154.904C553.491 154.148 558.214 144.893 565.958 122.037L601.47 18.1462H605.625ZM601.092 37.6021L579.18 102.581H623.381L601.092 37.6021Z" fill="white"/>
</g>
<defs>
<clipPath id="clip0_2232_864">
<rect width="1110" height="178" fill="white"/>
</clipPath>
</defs>
</svg>
