<svg width="91" height="53" viewBox="0 0 91 53" fill="none" xmlns="http://www.w3.org/2000/svg">
<path d="M27.6367 47.0925C26.9892 47.0925 26.4453 46.5486 26.4453 45.9011C26.4453 45.2536 26.9892 44.7097 27.6367 44.7097C28.2842 44.7097 28.8281 45.2536 28.8281 45.9011C28.8281 46.5486 28.2842 47.0925 27.6367 47.0925ZM41.2471 46.7817H29.6954L29.7472 46.4709C31.5084 46.4709 31.8192 45.4867 32.2337 43.5701L34.8755 31.1377C35.2899 29.2211 35.3935 28.2368 33.6323 28.2368L33.6841 27.926H38.8642L38.8124 28.2368C37.0512 28.2368 36.7404 29.2211 36.326 31.1377L33.4251 44.8133C33.2438 45.6421 33.4251 46.0565 34.2021 46.0565H36.9476C39.7449 46.0565 40.3147 45.7716 42.3608 42.7153H42.6716L41.2471 46.7817ZM47.6326 30.5161C47.011 30.5161 46.493 29.9981 46.493 29.3765C46.493 28.7548 47.011 28.2368 47.6326 28.2368C48.2543 28.2368 48.7723 28.7548 48.7723 29.3765C48.7723 29.9981 48.2543 30.5161 47.6326 30.5161ZM44.7318 47.0925C43.6957 47.0925 43.877 45.6939 44.1101 44.6579L46.0268 35.6444C46.1822 34.9192 46.3376 34.2976 45.8714 34.2976C45.4829 34.2976 44.8613 35.1523 44.0065 36.4733L43.5921 36.2143C44.7836 33.9868 45.8455 32.899 46.7779 32.899C47.6585 32.899 47.7103 33.8314 47.3995 35.3336L45.4829 44.3471C45.4052 44.7097 45.198 45.5644 45.6642 45.5644C46.1822 45.5644 47.1664 44.3212 48.0211 42.9484L48.4356 43.2074C47.1405 45.6421 45.7678 47.0925 44.7318 47.0925ZM51.8757 47.0925C49.7777 47.0925 49.6482 44.7097 50.2181 41.9901L51.539 35.6444C51.6685 35.0487 51.8757 34.2976 51.4354 34.2976C51.021 34.2976 50.3994 35.1523 49.5446 36.4733L49.1302 36.2143C50.3217 33.9868 51.3836 32.899 52.3419 32.899C53.4297 32.899 53.093 34.6084 52.9376 35.3336L51.4872 42.1714C51.021 44.373 51.2023 46.0047 52.7045 46.0047C55.45 46.0047 58.4286 40.0217 58.4286 36.551C58.4286 35.2818 58.066 33.9868 57.2371 33.4688V33.158L58.5322 32.899C59.2833 33.4688 59.62 34.453 59.62 35.5667C59.62 39.4259 55.9421 47.0925 51.8757 47.0925ZM64.4276 30.5161C63.806 30.5161 63.288 29.9981 63.288 29.3765C63.288 28.7548 63.806 28.2368 64.4276 28.2368C65.0492 28.2368 65.5673 28.7548 65.5673 29.3765C65.5673 29.9981 65.0492 30.5161 64.4276 30.5161ZM61.5267 47.0925C60.4907 47.0925 60.672 45.6939 60.9051 44.6579L62.8218 35.6444C62.9772 34.9192 63.1326 34.2976 62.6664 34.2976C62.2779 34.2976 61.6562 35.1523 60.8015 36.4733L60.3871 36.2143C61.5785 33.9868 62.6405 32.899 63.5729 32.899C64.4535 32.899 64.5053 33.8314 64.1945 35.3336L62.2779 44.3471C62.2002 44.7097 61.993 45.5644 62.4592 45.5644C62.9772 45.5644 63.9614 44.3212 64.8161 42.9484L65.2305 43.2074C63.9355 45.6421 62.5628 47.0925 61.5267 47.0925ZM78.0467 42.9484L78.487 43.2074C77.192 45.6421 75.7934 47.0925 74.8351 47.0925C73.9026 47.0925 73.7731 46.2119 74.1357 44.6579L75.7157 37.8201C76.1819 35.7998 76.4927 34.1422 75.0682 34.1422C72.4781 34.1422 68.8002 40.0217 67.3497 46.7817H66.0547L68.4117 35.6444C68.5671 34.9192 68.7225 34.2976 68.2563 34.2976C67.8678 34.2976 67.2461 35.1523 66.3914 36.4733L65.977 36.2143C67.1684 33.9868 68.2304 32.899 69.1628 32.899C70.0434 32.899 70.0952 33.8314 69.7844 35.3336L68.593 40.9282C70.5614 36.1106 73.281 32.899 75.7934 32.899C77.9949 32.899 77.6064 35.3077 76.9848 38.0014L75.5344 44.3471C75.379 45.0723 75.1977 45.6939 75.638 45.6939C76.1301 45.6939 77.192 44.4248 78.0467 42.9484ZM86.8247 33.4429L90.917 33.0544L90.373 34.3494L87.5499 34.0904C88.1197 34.712 88.4305 35.5926 88.4305 36.6805C88.4305 39.4518 86.3325 41.9901 83.4835 42.0937C82.1884 42.5599 81.4632 42.8448 81.4632 43.4146C81.4632 43.7255 81.6963 44.0363 82.2661 44.1917L84.7526 44.8651C87.3168 45.5644 88.9485 46.1342 88.9485 47.9732C88.9485 50.6927 85.6332 52.9979 81.5409 52.9979C78.5623 52.9979 77.0083 51.7029 77.0083 49.579C77.0083 48.1545 77.7853 46.7817 80.0646 45.6421L80.4272 45.4867L81.0229 45.6162C79.0544 46.4968 78.1997 47.8437 78.1997 49.1646C78.1997 50.874 79.7279 52.0137 82.3956 52.0137C85.3224 52.0137 87.8607 50.5373 87.8607 48.7761C87.8607 47.2739 86.203 46.704 84.649 46.2896L81.4891 45.4349C80.4531 45.15 79.9869 44.632 79.9869 43.9586C79.9869 42.9225 80.997 42.3268 82.3179 41.9901C80.6603 41.6016 79.5984 40.2289 79.5984 38.2863C79.5984 35.489 81.774 32.899 84.7267 32.899C85.5296 32.899 86.2289 33.0803 86.8247 33.4429ZM83.3022 41.4203C85.7886 41.4203 87.0578 38.7266 87.0578 36.3697C87.0578 34.5048 86.2548 33.5724 84.7526 33.5724C82.2402 33.5724 80.997 36.2661 80.997 38.6489C80.997 40.4879 81.8258 41.4203 83.3022 41.4203Z" fill="white"/>
<path d="M0.518014 6.14429H6.24207C9.91997 6.14429 12.3287 8.11274 12.3287 11.3762C12.3287 14.7174 9.84227 16.8672 6.50108 16.8672C5.33555 16.8672 4.37722 16.6082 3.8333 16.401V21.7883C3.8333 23.705 4.04051 24.6892 5.80176 24.6892V25H0.518014V24.6892C2.27926 24.6892 2.38286 23.705 2.38286 21.7883V9.35597C2.38286 7.43932 2.27926 6.4551 0.518014 6.4551V6.14429ZM5.90536 16.0902C8.93574 16.0902 10.7229 14.5361 10.7229 11.3762C10.7229 8.37175 9.11705 6.86951 6.11257 6.86951H4.81753C4.19591 6.86951 3.8333 7.18032 3.8333 7.80193V14.8987C3.8333 15.2095 3.8333 16.0902 5.90536 16.0902ZM18.8982 5.93708L24.3115 21.6847C25.0885 23.9122 25.5547 24.5856 26.6684 24.6892V25H21.6955V24.6892C23.1459 24.5856 23.5862 24.0417 22.9646 22.2286L21.6178 18.2917H15.0131L14.3138 20.3897C13.2778 23.446 13.0187 24.5856 14.9354 24.6892V25H10.7654V24.6892C11.7496 24.5856 12.3971 23.3165 13.4591 20.1825L18.3284 5.93708H18.8982ZM18.2766 8.60485L15.2721 17.5147H21.3329L18.2766 8.60485ZM32.0794 25H26.8993V24.6892C28.6605 24.6892 28.7641 23.705 28.7641 21.7883V9.35597C28.7641 7.43932 28.6605 6.4551 26.8993 6.4551V6.14429H32.0794V6.4551C30.3182 6.4551 30.2146 7.43932 30.2146 9.35597V21.7883C30.2146 23.705 30.3182 24.6892 32.0794 24.6892V25ZM38.2758 25.3108C36.7217 25.3108 34.5979 24.8187 33.4323 24.0676L33.3028 20.5192H33.6137C34.5202 23.3424 36.3332 24.5856 38.4053 24.5856C40.6068 24.5856 42.6012 23.187 42.6012 20.6746C42.6012 18.2917 40.8917 17.2816 38.6125 16.1161L37.3434 15.4685C35.4008 14.4843 33.6655 13.2929 33.6655 10.7287C33.6655 7.93144 35.8152 5.83348 38.742 5.83348C40.1665 5.83348 41.9796 6.32559 43.2228 7.05081V9.74448H42.912C42.0832 7.46522 40.5291 6.5587 38.6902 6.5587C36.4109 6.5587 34.9864 7.95734 34.9864 10.0812C34.9864 12.3864 36.6181 13.3447 38.0945 14.0958L39.3636 14.7433C41.6429 15.9089 43.9221 17.1003 43.9221 20.1307C43.9221 23.187 41.5393 25.3108 38.2758 25.3108ZM51.7294 5.93708L57.1426 21.6847C57.9196 23.9122 58.3859 24.5856 59.4996 24.6892V25H54.5266V24.6892C55.9771 24.5856 56.4174 24.0417 55.7958 22.2286L54.4489 18.2917H47.8443L47.1449 20.3897C46.1089 23.446 45.8499 24.5856 47.7666 24.6892V25H43.5966V24.6892C44.5808 24.5856 45.2283 23.3165 46.2902 20.1825L51.1596 5.93708H51.7294ZM51.1078 8.60485L48.1033 17.5147H54.164L51.1078 8.60485ZM70.6865 6.4551V6.14429H75.4522V6.4551C74.0018 6.4551 73.7427 8.00914 73.7427 10.7028V25.2072H73.2247L62.5018 8.16454V21.0372C62.5018 23.187 62.7608 24.6892 64.4444 24.6892V25H59.4974V24.6892C61.1032 24.6892 61.6212 23.187 61.6212 21.0372V9.09697C61.6212 7.41342 60.9996 6.6623 59.4974 6.4551V6.14429H62.9421L72.8621 21.9178V10.7028C72.8621 8.00914 72.3959 6.4551 70.6865 6.4551ZM83.0429 5.93708L88.4562 21.6847C89.2332 23.9122 89.6994 24.5856 90.8131 24.6892V25H85.8402V24.6892C87.2906 24.5856 87.7309 24.0417 87.1093 22.2286L85.7625 18.2917H79.1578L78.4585 20.3897C77.4225 23.446 77.1635 24.5856 79.0801 24.6892V25H74.9101V24.6892C75.8943 24.5856 76.5418 23.3165 77.6038 20.1825L82.4731 5.93708H83.0429ZM82.4213 8.60485L79.4168 17.5147H85.4776L82.4213 8.60485Z" fill="white"/>
</svg>
